<mxfile host="app.diagrams.net" agent="Mozilla/5.0 (Windows NT 10.0; Win64; x64) AppleWebKit/537.36 (KHTML, like Gecko) Chrome/133.0.0.0 Safari/537.36" version="26.1.0">
  <diagram name="Страница — 1" id="578RQ-KVtw70lgoViFLX">
    <mxGraphModel dx="20098" dy="8033" grid="1" gridSize="10" guides="1" tooltips="1" connect="1" arrows="1" fold="1" page="1" pageScale="1" pageWidth="827" pageHeight="1169" math="0" shadow="0">
      <root>
        <mxCell id="0" />
        <mxCell id="1" parent="0" />
        <mxCell id="2841olOFZ7QWBVNqE34i-806" value="" style="rounded=1;whiteSpace=wrap;html=1;arcSize=3;movable=1;resizable=1;rotatable=1;deletable=1;editable=1;locked=0;connectable=1;fillColor=#dae8fc;strokeColor=#6c8ebf;strokeWidth=3;" parent="1" vertex="1">
          <mxGeometry x="-5194.5" y="160" width="979" height="614" as="geometry" />
        </mxCell>
        <mxCell id="2841olOFZ7QWBVNqE34i-601" value="" style="rounded=0;whiteSpace=wrap;html=1;fillColor=#dae8fc;strokeColor=#6c8ebf;" parent="1" vertex="1">
          <mxGeometry x="-6594" y="1100" width="2200" height="1240" as="geometry" />
        </mxCell>
        <mxCell id="2841olOFZ7QWBVNqE34i-446" value="" style="rounded=1;whiteSpace=wrap;html=1;arcSize=3;movable=1;resizable=1;rotatable=1;deletable=1;editable=1;locked=0;connectable=1;strokeWidth=3;fillColor=#dae8fc;strokeColor=#6c8ebf;" parent="1" vertex="1">
          <mxGeometry x="-6593" y="2530" width="2210" height="650" as="geometry" />
        </mxCell>
        <mxCell id="2841olOFZ7QWBVNqE34i-447" value="" style="strokeWidth=2;html=1;shape=mxgraph.flowchart.database;whiteSpace=wrap;rounded=1;movable=1;resizable=1;rotatable=1;deletable=1;editable=1;locked=0;connectable=1;" parent="1" vertex="1">
          <mxGeometry x="-5520" y="2630" width="396" height="532" as="geometry" />
        </mxCell>
        <mxCell id="2841olOFZ7QWBVNqE34i-448" value="" style="group" parent="1" vertex="1" connectable="0">
          <mxGeometry x="-5408" y="2686" width="151" height="49" as="geometry" />
        </mxCell>
        <mxCell id="2841olOFZ7QWBVNqE34i-449" value="&lt;p style=&quot;margin: 0px 0px 0px 13px; text-indent: -13px; font-variant-numeric: normal; font-variant-east-asian: normal; font-variant-alternates: normal; font-kerning: auto; font-optical-sizing: auto; font-feature-settings: normal; font-variation-settings: normal; font-variant-position: normal; font-stretch: normal; font-size: 14px; line-height: normal; color: rgb(14, 14, 14); text-align: start;&quot; class=&quot;p1&quot;&gt;&lt;br&gt;&lt;/p&gt;" style="rounded=1;whiteSpace=wrap;html=1;fillColor=#FF77BF;strokeColor=none;arcSize=50;" parent="2841olOFZ7QWBVNqE34i-448" vertex="1">
          <mxGeometry y="9" width="151" height="33" as="geometry" />
        </mxCell>
        <mxCell id="2841olOFZ7QWBVNqE34i-450" value="&lt;font style=&quot;font-size: 18px;&quot;&gt;&lt;i&gt;PostgreSQL&lt;/i&gt;&lt;/font&gt;" style="text;html=1;align=center;verticalAlign=middle;whiteSpace=wrap;rounded=1;shadow=0;fontSize=23;fontStyle=1" parent="2841olOFZ7QWBVNqE34i-448" vertex="1">
          <mxGeometry x="31" width="89" height="49" as="geometry" />
        </mxCell>
        <mxCell id="2841olOFZ7QWBVNqE34i-451" value="Система управления каталогом товаров и услуг" style="text;html=1;align=center;verticalAlign=middle;whiteSpace=wrap;rounded=1;shadow=0;fontSize=23;fontStyle=1" parent="1" vertex="1">
          <mxGeometry x="-5904" y="2593" width="595" height="49" as="geometry" />
        </mxCell>
        <mxCell id="2841olOFZ7QWBVNqE34i-452" value="" style="group" parent="1" vertex="1" connectable="0">
          <mxGeometry x="-5869" y="2705" width="309" height="39" as="geometry" />
        </mxCell>
        <mxCell id="2841olOFZ7QWBVNqE34i-453" value="" style="rounded=1;whiteSpace=wrap;html=1;fillColor=#1C57CD;strokeColor=none;" parent="2841olOFZ7QWBVNqE34i-452" vertex="1">
          <mxGeometry width="309" height="39" as="geometry" />
        </mxCell>
        <mxCell id="2841olOFZ7QWBVNqE34i-454" value="" style="sketch=0;outlineConnect=0;fontColor=#232F3E;gradientColor=none;fillColor=default;strokeColor=none;dashed=0;verticalLabelPosition=bottom;verticalAlign=top;align=center;html=1;fontSize=12;fontStyle=0;aspect=fixed;pointerEvents=1;shape=mxgraph.aws4.gear;rounded=1;" parent="2841olOFZ7QWBVNqE34i-452" vertex="1">
          <mxGeometry x="282" y="11" width="17" height="17" as="geometry" />
        </mxCell>
        <mxCell id="2841olOFZ7QWBVNqE34i-455" value="Удалить товар пользователя" style="text;html=1;align=center;verticalAlign=middle;whiteSpace=wrap;rounded=1;fontSize=13;fontColor=#FFFFFF;strokeColor=none;" parent="2841olOFZ7QWBVNqE34i-452" vertex="1">
          <mxGeometry x="2" y="4.5" width="188" height="30" as="geometry" />
        </mxCell>
        <mxCell id="2841olOFZ7QWBVNqE34i-456" value="" style="group" parent="1" vertex="1" connectable="0">
          <mxGeometry x="-5867" y="2660" width="309" height="39" as="geometry" />
        </mxCell>
        <mxCell id="2841olOFZ7QWBVNqE34i-457" value="" style="rounded=1;whiteSpace=wrap;html=1;fillColor=#1C57CD;strokeColor=none;" parent="2841olOFZ7QWBVNqE34i-456" vertex="1">
          <mxGeometry width="309" height="39" as="geometry" />
        </mxCell>
        <mxCell id="2841olOFZ7QWBVNqE34i-458" value="" style="sketch=0;outlineConnect=0;fontColor=#232F3E;gradientColor=none;fillColor=#FFFFFF;strokeColor=none;dashed=0;verticalLabelPosition=bottom;verticalAlign=top;align=center;html=1;fontSize=12;fontStyle=0;aspect=fixed;pointerEvents=1;shape=mxgraph.aws4.gear;rounded=1;" parent="2841olOFZ7QWBVNqE34i-456" vertex="1">
          <mxGeometry x="286" y="11" width="17" height="17" as="geometry" />
        </mxCell>
        <mxCell id="2841olOFZ7QWBVNqE34i-459" value="Добавить товар в профиль пользователя" style="text;html=1;align=center;verticalAlign=middle;whiteSpace=wrap;rounded=1;fontSize=13;fontColor=#FFFFFF;strokeColor=none;" parent="2841olOFZ7QWBVNqE34i-456" vertex="1">
          <mxGeometry x="8" y="4" width="262" height="30" as="geometry" />
        </mxCell>
        <mxCell id="2841olOFZ7QWBVNqE34i-460" value="" style="group" parent="1" vertex="1" connectable="0">
          <mxGeometry x="-5867" y="2756" width="309" height="39" as="geometry" />
        </mxCell>
        <mxCell id="2841olOFZ7QWBVNqE34i-461" value="" style="rounded=1;whiteSpace=wrap;html=1;fillColor=#1C57CD;strokeColor=none;" parent="2841olOFZ7QWBVNqE34i-460" vertex="1">
          <mxGeometry width="309" height="39" as="geometry" />
        </mxCell>
        <mxCell id="2841olOFZ7QWBVNqE34i-462" value="" style="sketch=0;outlineConnect=0;fontColor=#232F3E;gradientColor=none;fillColor=#FFFFFF;strokeColor=none;dashed=0;verticalLabelPosition=bottom;verticalAlign=top;align=center;html=1;fontSize=12;fontStyle=0;aspect=fixed;pointerEvents=1;shape=mxgraph.aws4.gear;rounded=1;" parent="2841olOFZ7QWBVNqE34i-460" vertex="1">
          <mxGeometry x="286" y="11" width="17" height="17" as="geometry" />
        </mxCell>
        <mxCell id="2841olOFZ7QWBVNqE34i-463" value="Изменить товар пользователя" style="text;html=1;align=center;verticalAlign=middle;whiteSpace=wrap;rounded=1;fontSize=13;fontColor=#FFFFFF;strokeColor=none;" parent="2841olOFZ7QWBVNqE34i-460" vertex="1">
          <mxGeometry x="7" y="3" width="195" height="30" as="geometry" />
        </mxCell>
        <mxCell id="2841olOFZ7QWBVNqE34i-464" value="" style="group" parent="1" vertex="1" connectable="0">
          <mxGeometry x="-5865" y="2799" width="309" height="39" as="geometry" />
        </mxCell>
        <mxCell id="2841olOFZ7QWBVNqE34i-465" value="" style="rounded=1;whiteSpace=wrap;html=1;fillColor=#1C57CD;strokeColor=none;" parent="2841olOFZ7QWBVNqE34i-464" vertex="1">
          <mxGeometry width="309" height="39" as="geometry" />
        </mxCell>
        <mxCell id="2841olOFZ7QWBVNqE34i-466" value="" style="sketch=0;outlineConnect=0;fontColor=#232F3E;gradientColor=none;fillColor=#FFFFFF;strokeColor=none;dashed=0;verticalLabelPosition=bottom;verticalAlign=top;align=center;html=1;fontSize=12;fontStyle=0;aspect=fixed;pointerEvents=1;shape=mxgraph.aws4.gear;rounded=1;" parent="2841olOFZ7QWBVNqE34i-464" vertex="1">
          <mxGeometry x="286" y="11" width="17" height="17" as="geometry" />
        </mxCell>
        <mxCell id="2841olOFZ7QWBVNqE34i-467" value="Поиск товаров" style="text;html=1;align=center;verticalAlign=middle;whiteSpace=wrap;rounded=1;fontSize=13;fontColor=#FFFFFF;strokeColor=none;" parent="2841olOFZ7QWBVNqE34i-464" vertex="1">
          <mxGeometry x="3" y="4.5" width="99" height="30" as="geometry" />
        </mxCell>
        <mxCell id="2841olOFZ7QWBVNqE34i-468" value="" style="group" parent="1" vertex="1" connectable="0">
          <mxGeometry x="-5867" y="2984" width="309" height="39" as="geometry" />
        </mxCell>
        <mxCell id="2841olOFZ7QWBVNqE34i-469" value="" style="rounded=1;whiteSpace=wrap;html=1;fillColor=#1C57CD;strokeColor=none;" parent="2841olOFZ7QWBVNqE34i-468" vertex="1">
          <mxGeometry width="309" height="39" as="geometry" />
        </mxCell>
        <mxCell id="2841olOFZ7QWBVNqE34i-470" value="" style="sketch=0;outlineConnect=0;fontColor=#232F3E;gradientColor=none;fillColor=default;strokeColor=none;dashed=0;verticalLabelPosition=bottom;verticalAlign=top;align=center;html=1;fontSize=12;fontStyle=0;aspect=fixed;pointerEvents=1;shape=mxgraph.aws4.gear;rounded=1;" parent="2841olOFZ7QWBVNqE34i-468" vertex="1">
          <mxGeometry x="282" y="11" width="17" height="17" as="geometry" />
        </mxCell>
        <mxCell id="2841olOFZ7QWBVNqE34i-471" value="Удалить услугу пользователя" style="text;html=1;align=center;verticalAlign=middle;whiteSpace=wrap;rounded=1;fontSize=13;fontColor=#FFFFFF;strokeColor=none;" parent="2841olOFZ7QWBVNqE34i-468" vertex="1">
          <mxGeometry x="3" y="4.5" width="189" height="30" as="geometry" />
        </mxCell>
        <mxCell id="2841olOFZ7QWBVNqE34i-472" value="" style="group" parent="1" vertex="1" connectable="0">
          <mxGeometry x="-5868" y="2887" width="309" height="39" as="geometry" />
        </mxCell>
        <mxCell id="2841olOFZ7QWBVNqE34i-473" value="" style="rounded=1;whiteSpace=wrap;html=1;fillColor=#1C57CD;strokeColor=none;" parent="2841olOFZ7QWBVNqE34i-472" vertex="1">
          <mxGeometry width="309" height="39" as="geometry" />
        </mxCell>
        <mxCell id="2841olOFZ7QWBVNqE34i-474" value="" style="sketch=0;outlineConnect=0;fontColor=#232F3E;gradientColor=none;fillColor=#FFFFFF;strokeColor=none;dashed=0;verticalLabelPosition=bottom;verticalAlign=top;align=center;html=1;fontSize=12;fontStyle=0;aspect=fixed;pointerEvents=1;shape=mxgraph.aws4.gear;rounded=1;" parent="2841olOFZ7QWBVNqE34i-472" vertex="1">
          <mxGeometry x="286" y="10" width="17" height="17" as="geometry" />
        </mxCell>
        <mxCell id="2841olOFZ7QWBVNqE34i-475" value="Добавить услугу в профиль пользователя" style="text;html=1;align=center;verticalAlign=middle;whiteSpace=wrap;rounded=1;fontSize=13;fontColor=#FFFFFF;strokeColor=none;" parent="2841olOFZ7QWBVNqE34i-472" vertex="1">
          <mxGeometry x="2" y="5" width="273" height="30" as="geometry" />
        </mxCell>
        <mxCell id="2841olOFZ7QWBVNqE34i-477" value="" style="group" parent="1" vertex="1" connectable="0">
          <mxGeometry x="-5868" y="2937" width="309" height="39" as="geometry" />
        </mxCell>
        <mxCell id="2841olOFZ7QWBVNqE34i-478" value="" style="rounded=1;whiteSpace=wrap;html=1;fillColor=#1C57CD;strokeColor=none;" parent="2841olOFZ7QWBVNqE34i-477" vertex="1">
          <mxGeometry width="309" height="39" as="geometry" />
        </mxCell>
        <mxCell id="2841olOFZ7QWBVNqE34i-479" value="" style="sketch=0;outlineConnect=0;fontColor=#232F3E;gradientColor=none;fillColor=#FFFFFF;strokeColor=none;dashed=0;verticalLabelPosition=bottom;verticalAlign=top;align=center;html=1;fontSize=12;fontStyle=0;aspect=fixed;pointerEvents=1;shape=mxgraph.aws4.gear;rounded=1;" parent="2841olOFZ7QWBVNqE34i-477" vertex="1">
          <mxGeometry x="286" y="11" width="17" height="17" as="geometry" />
        </mxCell>
        <mxCell id="2841olOFZ7QWBVNqE34i-480" value="Изменить услугу пользователя" style="text;html=1;align=center;verticalAlign=middle;whiteSpace=wrap;rounded=1;fontSize=13;fontColor=#FFFFFF;strokeColor=none;" parent="2841olOFZ7QWBVNqE34i-477" vertex="1">
          <mxGeometry x="4" y="4.5" width="195" height="30" as="geometry" />
        </mxCell>
        <mxCell id="2841olOFZ7QWBVNqE34i-481" value="" style="group" parent="1" vertex="1" connectable="0">
          <mxGeometry x="-5866" y="3031" width="309" height="39" as="geometry" />
        </mxCell>
        <mxCell id="2841olOFZ7QWBVNqE34i-482" value="" style="rounded=1;whiteSpace=wrap;html=1;fillColor=#1C57CD;strokeColor=none;" parent="2841olOFZ7QWBVNqE34i-481" vertex="1">
          <mxGeometry width="309" height="39" as="geometry" />
        </mxCell>
        <mxCell id="2841olOFZ7QWBVNqE34i-483" value="" style="sketch=0;outlineConnect=0;fontColor=#232F3E;gradientColor=none;fillColor=#FFFFFF;strokeColor=none;dashed=0;verticalLabelPosition=bottom;verticalAlign=top;align=center;html=1;fontSize=12;fontStyle=0;aspect=fixed;pointerEvents=1;shape=mxgraph.aws4.gear;rounded=1;" parent="2841olOFZ7QWBVNqE34i-481" vertex="1">
          <mxGeometry x="286" y="11" width="17" height="17" as="geometry" />
        </mxCell>
        <mxCell id="2841olOFZ7QWBVNqE34i-484" value="Поиск услуг" style="text;html=1;align=center;verticalAlign=middle;whiteSpace=wrap;rounded=1;fontSize=13;fontColor=#FFFFFF;strokeColor=none;" parent="2841olOFZ7QWBVNqE34i-481" vertex="1">
          <mxGeometry x="4" y="4" width="81" height="30" as="geometry" />
        </mxCell>
        <mxCell id="2841olOFZ7QWBVNqE34i-485" value="" style="group" parent="1" vertex="1" connectable="0">
          <mxGeometry x="-5866" y="2842" width="309" height="39" as="geometry" />
        </mxCell>
        <mxCell id="2841olOFZ7QWBVNqE34i-486" value="" style="rounded=1;whiteSpace=wrap;html=1;fillColor=#1C57CD;strokeColor=none;" parent="2841olOFZ7QWBVNqE34i-485" vertex="1">
          <mxGeometry width="309" height="39" as="geometry" />
        </mxCell>
        <mxCell id="2841olOFZ7QWBVNqE34i-487" value="" style="sketch=0;outlineConnect=0;fontColor=#232F3E;gradientColor=none;fillColor=#FFFFFF;strokeColor=none;dashed=0;verticalLabelPosition=bottom;verticalAlign=top;align=center;html=1;fontSize=12;fontStyle=0;aspect=fixed;pointerEvents=1;shape=mxgraph.aws4.gear;rounded=1;" parent="2841olOFZ7QWBVNqE34i-485" vertex="1">
          <mxGeometry x="286" y="11" width="17" height="17" as="geometry" />
        </mxCell>
        <mxCell id="2841olOFZ7QWBVNqE34i-488" value="Фильтрация и сортировка результатов" style="text;html=1;align=center;verticalAlign=middle;whiteSpace=wrap;rounded=1;fontSize=13;fontColor=#FFFFFF;strokeColor=none;" parent="2841olOFZ7QWBVNqE34i-485" vertex="1">
          <mxGeometry x="5" y="4.5" width="248" height="30" as="geometry" />
        </mxCell>
        <mxCell id="2841olOFZ7QWBVNqE34i-489" value="&lt;p style=&quot;margin: 0px 0px 0px 13px; text-indent: -13px; font-variant-numeric: normal; font-variant-east-asian: normal; font-variant-alternates: normal; font-kerning: auto; font-optical-sizing: auto; font-feature-settings: normal; font-variation-settings: normal; font-variant-position: normal; font-stretch: normal; font-size: 14px; line-height: normal; color: rgb(14, 14, 14); text-align: start;&quot; class=&quot;p1&quot;&gt;&lt;font face=&quot;Times New Roman&quot;&gt;Услуга.ID&lt;/font&gt;&lt;/p&gt;" style="rounded=1;whiteSpace=wrap;html=1;fillColor=#b1ddf0;strokeColor=#10739e;" parent="1" vertex="1">
          <mxGeometry x="-5506" y="2829" width="87" height="21" as="geometry" />
        </mxCell>
        <mxCell id="2841olOFZ7QWBVNqE34i-490" value="&lt;p style=&quot;margin: 0px 0px 0px 13px; text-indent: -13px; font-variant-numeric: normal; font-variant-east-asian: normal; font-variant-alternates: normal; font-kerning: auto; font-optical-sizing: auto; font-feature-settings: normal; font-variation-settings: normal; font-variant-position: normal; font-stretch: normal; font-size: 14px; line-height: normal; color: rgb(14, 14, 14); text-align: start;&quot; class=&quot;p1&quot;&gt;&lt;font face=&quot;Times New Roman&quot;&gt;Услуга.Название&lt;/font&gt;&lt;/p&gt;" style="rounded=1;whiteSpace=wrap;html=1;fillColor=#b1ddf0;strokeColor=#10739e;" parent="1" vertex="1">
          <mxGeometry x="-5506" y="2859" width="110" height="21" as="geometry" />
        </mxCell>
        <mxCell id="2841olOFZ7QWBVNqE34i-491" value="&lt;p style=&quot;margin: 0px 0px 0px 13px; text-indent: -13px; font-variant-numeric: normal; font-variant-east-asian: normal; font-variant-alternates: normal; font-kerning: auto; font-optical-sizing: auto; font-feature-settings: normal; font-variation-settings: normal; font-variant-position: normal; font-stretch: normal; font-size: 14px; line-height: normal; color: rgb(14, 14, 14); text-align: start;&quot; class=&quot;p1&quot;&gt;&lt;font face=&quot;Times New Roman&quot;&gt;Услуга. Описание&lt;/font&gt;&lt;/p&gt;" style="rounded=1;whiteSpace=wrap;html=1;fillColor=#b1ddf0;strokeColor=#10739e;" parent="1" vertex="1">
          <mxGeometry x="-5506" y="2887" width="112" height="21" as="geometry" />
        </mxCell>
        <mxCell id="2841olOFZ7QWBVNqE34i-492" value="&lt;p style=&quot;margin: 0px 0px 0px 13px; text-indent: -13px; font-variant-numeric: normal; font-variant-east-asian: normal; font-variant-alternates: normal; font-kerning: auto; font-optical-sizing: auto; font-feature-settings: normal; font-variation-settings: normal; font-variant-position: normal; font-stretch: normal; font-size: 14px; line-height: normal; color: rgb(14, 14, 14); text-align: start;&quot; class=&quot;p1&quot;&gt;&lt;font face=&quot;Times New Roman&quot;&gt;Товар.ID&lt;/font&gt;&lt;/p&gt;" style="rounded=1;whiteSpace=wrap;html=1;fillColor=#b1ddf0;strokeColor=#10739e;" parent="1" vertex="1">
          <mxGeometry x="-5318" y="2829" width="78" height="21" as="geometry" />
        </mxCell>
        <mxCell id="2841olOFZ7QWBVNqE34i-493" value="&lt;p style=&quot;margin: 0px 0px 0px 13px; text-indent: -13px; font-variant-numeric: normal; font-variant-east-asian: normal; font-variant-alternates: normal; font-kerning: auto; font-optical-sizing: auto; font-feature-settings: normal; font-variation-settings: normal; font-variant-position: normal; font-stretch: normal; font-size: 14px; line-height: normal; color: rgb(14, 14, 14); text-align: start;&quot; class=&quot;p1&quot;&gt;&lt;font face=&quot;Times New Roman&quot;&gt;Товар.Название&lt;/font&gt;&lt;/p&gt;" style="rounded=1;whiteSpace=wrap;html=1;fillColor=#b1ddf0;strokeColor=#10739e;" parent="1" vertex="1">
          <mxGeometry x="-5318" y="2887" width="111" height="21" as="geometry" />
        </mxCell>
        <mxCell id="2841olOFZ7QWBVNqE34i-494" value="&lt;p style=&quot;margin: 0px 0px 0px 13px; text-indent: -13px; font-variant-numeric: normal; font-variant-east-asian: normal; font-variant-alternates: normal; font-kerning: auto; font-optical-sizing: auto; font-feature-settings: normal; font-variation-settings: normal; font-variant-position: normal; font-stretch: normal; font-size: 14px; line-height: normal; color: rgb(14, 14, 14); text-align: start;&quot; class=&quot;p1&quot;&gt;&lt;font face=&quot;Times New Roman&quot;&gt;Товар.Описание&lt;/font&gt;&lt;/p&gt;" style="rounded=1;whiteSpace=wrap;html=1;fillColor=#b1ddf0;strokeColor=#10739e;" parent="1" vertex="1">
          <mxGeometry x="-5318" y="2859" width="107" height="21" as="geometry" />
        </mxCell>
        <mxCell id="2841olOFZ7QWBVNqE34i-553" value="" style="rounded=1;whiteSpace=wrap;html=1;arcSize=3;movable=1;resizable=1;rotatable=1;deletable=1;editable=1;locked=0;connectable=1;fillColor=#fff2cc;strokeColor=#d6b656;strokeWidth=3;" parent="1" vertex="1">
          <mxGeometry x="-6554" y="1612" width="812" height="602" as="geometry" />
        </mxCell>
        <mxCell id="2841olOFZ7QWBVNqE34i-554" value="Система управления аукционами" style="text;html=1;align=center;verticalAlign=middle;whiteSpace=wrap;rounded=1;shadow=0;fontSize=23;fontStyle=1" parent="1" vertex="1">
          <mxGeometry x="-6459" y="1610" width="549" height="49" as="geometry" />
        </mxCell>
        <mxCell id="2841olOFZ7QWBVNqE34i-555" value="" style="strokeWidth=2;html=1;shape=mxgraph.flowchart.database;whiteSpace=wrap;rounded=1;movable=1;resizable=1;rotatable=1;deletable=1;editable=1;locked=0;connectable=1;" parent="1" vertex="1">
          <mxGeometry x="-6174" y="1645" width="396" height="551" as="geometry" />
        </mxCell>
        <mxCell id="2841olOFZ7QWBVNqE34i-556" value="" style="group" parent="1" vertex="1" connectable="0">
          <mxGeometry x="-6058" y="1709" width="151" height="49" as="geometry" />
        </mxCell>
        <mxCell id="2841olOFZ7QWBVNqE34i-557" value="&lt;p style=&quot;margin: 0px 0px 0px 13px; text-indent: -13px; font-variant-numeric: normal; font-variant-east-asian: normal; font-variant-alternates: normal; font-kerning: auto; font-optical-sizing: auto; font-feature-settings: normal; font-variation-settings: normal; font-variant-position: normal; font-stretch: normal; font-size: 14px; line-height: normal; color: rgb(14, 14, 14); text-align: start;&quot; class=&quot;p1&quot;&gt;&lt;br&gt;&lt;/p&gt;" style="rounded=1;whiteSpace=wrap;html=1;fillColor=#FF77BF;strokeColor=none;arcSize=50;" parent="2841olOFZ7QWBVNqE34i-556" vertex="1">
          <mxGeometry y="9" width="151" height="33" as="geometry" />
        </mxCell>
        <mxCell id="2841olOFZ7QWBVNqE34i-558" value="&lt;font style=&quot;font-size: 18px;&quot;&gt;&lt;i&gt;PostgreSQL&lt;/i&gt;&lt;/font&gt;" style="text;html=1;align=center;verticalAlign=middle;whiteSpace=wrap;rounded=1;shadow=0;fontSize=23;fontStyle=1" parent="2841olOFZ7QWBVNqE34i-556" vertex="1">
          <mxGeometry x="31" width="89" height="49" as="geometry" />
        </mxCell>
        <mxCell id="2841olOFZ7QWBVNqE34i-559" value="" style="group" parent="1" vertex="1" connectable="0">
          <mxGeometry x="-6517" y="1688" width="309" height="39" as="geometry" />
        </mxCell>
        <mxCell id="2841olOFZ7QWBVNqE34i-560" value="" style="rounded=1;whiteSpace=wrap;html=1;fillColor=#1C57CD;strokeColor=none;" parent="2841olOFZ7QWBVNqE34i-559" vertex="1">
          <mxGeometry width="309" height="39" as="geometry" />
        </mxCell>
        <mxCell id="2841olOFZ7QWBVNqE34i-561" value="" style="sketch=0;outlineConnect=0;fontColor=#232F3E;gradientColor=none;fillColor=#FFFFFF;strokeColor=none;dashed=0;verticalLabelPosition=bottom;verticalAlign=top;align=center;html=1;fontSize=12;fontStyle=0;aspect=fixed;pointerEvents=1;shape=mxgraph.aws4.gear;rounded=1;" parent="2841olOFZ7QWBVNqE34i-559" vertex="1">
          <mxGeometry x="286" y="11" width="17" height="17" as="geometry" />
        </mxCell>
        <mxCell id="2841olOFZ7QWBVNqE34i-562" value="Создать аукцион" style="text;html=1;align=center;verticalAlign=middle;whiteSpace=wrap;rounded=1;fontSize=13;fontColor=#FFFFFF;strokeColor=none;" parent="2841olOFZ7QWBVNqE34i-559" vertex="1">
          <mxGeometry x="3" y="4.5" width="113" height="30" as="geometry" />
        </mxCell>
        <mxCell id="2841olOFZ7QWBVNqE34i-563" value="" style="group" parent="1" vertex="1" connectable="0">
          <mxGeometry x="-6518" y="1736.5" width="309" height="39" as="geometry" />
        </mxCell>
        <mxCell id="2841olOFZ7QWBVNqE34i-564" value="" style="rounded=1;whiteSpace=wrap;html=1;fillColor=#1C57CD;strokeColor=none;" parent="2841olOFZ7QWBVNqE34i-563" vertex="1">
          <mxGeometry width="309" height="39" as="geometry" />
        </mxCell>
        <mxCell id="2841olOFZ7QWBVNqE34i-565" value="" style="sketch=0;outlineConnect=0;fontColor=#232F3E;gradientColor=none;fillColor=#FFFFFF;strokeColor=none;dashed=0;verticalLabelPosition=bottom;verticalAlign=top;align=center;html=1;fontSize=12;fontStyle=0;aspect=fixed;pointerEvents=1;shape=mxgraph.aws4.gear;rounded=1;" parent="2841olOFZ7QWBVNqE34i-563" vertex="1">
          <mxGeometry x="286" y="11" width="17" height="17" as="geometry" />
        </mxCell>
        <mxCell id="2841olOFZ7QWBVNqE34i-566" value="Редактировать аукцион" style="text;html=1;align=center;verticalAlign=middle;whiteSpace=wrap;rounded=1;fontSize=13;fontColor=#FFFFFF;strokeColor=none;" parent="2841olOFZ7QWBVNqE34i-563" vertex="1">
          <mxGeometry x="3" y="4.5" width="160" height="30" as="geometry" />
        </mxCell>
        <mxCell id="2841olOFZ7QWBVNqE34i-567" value="" style="group" parent="1" vertex="1" connectable="0">
          <mxGeometry x="-6518" y="1784" width="309" height="39" as="geometry" />
        </mxCell>
        <mxCell id="2841olOFZ7QWBVNqE34i-568" value="" style="rounded=1;whiteSpace=wrap;html=1;fillColor=#1C57CD;strokeColor=none;" parent="2841olOFZ7QWBVNqE34i-567" vertex="1">
          <mxGeometry width="309" height="39" as="geometry" />
        </mxCell>
        <mxCell id="2841olOFZ7QWBVNqE34i-569" value="" style="sketch=0;outlineConnect=0;fontColor=#232F3E;gradientColor=none;fillColor=#FFFFFF;strokeColor=none;dashed=0;verticalLabelPosition=bottom;verticalAlign=top;align=center;html=1;fontSize=12;fontStyle=0;aspect=fixed;pointerEvents=1;shape=mxgraph.aws4.gear;rounded=1;" parent="2841olOFZ7QWBVNqE34i-567" vertex="1">
          <mxGeometry x="286" y="11" width="17" height="17" as="geometry" />
        </mxCell>
        <mxCell id="2841olOFZ7QWBVNqE34i-570" value="Обработать новую заявку на аукцион" style="text;html=1;align=center;verticalAlign=middle;whiteSpace=wrap;rounded=1;fontSize=13;fontColor=#FFFFFF;strokeColor=none;" parent="2841olOFZ7QWBVNqE34i-567" vertex="1">
          <mxGeometry x="3" y="4.5" width="241" height="30" as="geometry" />
        </mxCell>
        <mxCell id="2841olOFZ7QWBVNqE34i-571" value="" style="group" parent="1" vertex="1" connectable="0">
          <mxGeometry x="-6508" y="1706" width="2040" height="508" as="geometry" />
        </mxCell>
        <mxCell id="2841olOFZ7QWBVNqE34i-572" value="" style="rounded=1;whiteSpace=wrap;html=1;fillColor=#1C57CD;strokeColor=none;" parent="2841olOFZ7QWBVNqE34i-571" vertex="1">
          <mxGeometry x="-10" y="126" width="309" height="39" as="geometry" />
        </mxCell>
        <mxCell id="2841olOFZ7QWBVNqE34i-573" value="" style="sketch=0;outlineConnect=0;fontColor=#232F3E;gradientColor=none;fillColor=#FFFFFF;strokeColor=none;dashed=0;verticalLabelPosition=bottom;verticalAlign=top;align=center;html=1;fontSize=12;fontStyle=0;aspect=fixed;pointerEvents=1;shape=mxgraph.aws4.gear;rounded=1;" parent="2841olOFZ7QWBVNqE34i-571" vertex="1">
          <mxGeometry x="276" y="137" width="17" height="17" as="geometry" />
        </mxCell>
        <mxCell id="2841olOFZ7QWBVNqE34i-574" value="Обновление ставок аукциона" style="text;html=1;align=center;verticalAlign=middle;whiteSpace=wrap;rounded=1;fontSize=13;fontColor=#FFFFFF;strokeColor=none;" parent="2841olOFZ7QWBVNqE34i-571" vertex="1">
          <mxGeometry x="-6" y="130.5" width="189" height="30" as="geometry" />
        </mxCell>
        <mxCell id="2841olOFZ7QWBVNqE34i-498" value="" style="rounded=1;whiteSpace=wrap;html=1;arcSize=7;movable=1;resizable=1;rotatable=1;deletable=1;editable=1;locked=0;connectable=1;fillColor=#fff2cc;strokeColor=#d6b656;strokeWidth=3;" parent="2841olOFZ7QWBVNqE34i-571" vertex="1">
          <mxGeometry x="1234" y="-78" width="797" height="586" as="geometry" />
        </mxCell>
        <mxCell id="2841olOFZ7QWBVNqE34i-499" value="Система управления заказами" style="text;html=1;align=center;verticalAlign=middle;whiteSpace=wrap;rounded=1;shadow=0;fontSize=23;fontStyle=1" parent="2841olOFZ7QWBVNqE34i-571" vertex="1">
          <mxGeometry x="1324" y="-86" width="549" height="49" as="geometry" />
        </mxCell>
        <mxCell id="2841olOFZ7QWBVNqE34i-500" value="" style="strokeWidth=2;html=1;shape=mxgraph.flowchart.database;whiteSpace=wrap;rounded=1;movable=1;resizable=1;rotatable=1;deletable=1;editable=1;locked=0;connectable=1;" parent="2841olOFZ7QWBVNqE34i-571" vertex="1">
          <mxGeometry x="1609" y="-51" width="396" height="551" as="geometry" />
        </mxCell>
        <mxCell id="2841olOFZ7QWBVNqE34i-501" value="" style="group" parent="2841olOFZ7QWBVNqE34i-571" vertex="1" connectable="0">
          <mxGeometry x="1252" y="-42" width="309" height="39" as="geometry" />
        </mxCell>
        <mxCell id="2841olOFZ7QWBVNqE34i-502" value="" style="rounded=1;whiteSpace=wrap;html=1;fillColor=#1C57CD;strokeColor=none;" parent="2841olOFZ7QWBVNqE34i-501" vertex="1">
          <mxGeometry width="309" height="39" as="geometry" />
        </mxCell>
        <mxCell id="2841olOFZ7QWBVNqE34i-503" value="" style="sketch=0;outlineConnect=0;fontColor=#232F3E;gradientColor=none;fillColor=default;strokeColor=none;dashed=0;verticalLabelPosition=bottom;verticalAlign=top;align=center;html=1;fontSize=12;fontStyle=0;aspect=fixed;pointerEvents=1;shape=mxgraph.aws4.gear;rounded=1;" parent="2841olOFZ7QWBVNqE34i-501" vertex="1">
          <mxGeometry x="282" y="11" width="17" height="17" as="geometry" />
        </mxCell>
        <mxCell id="2841olOFZ7QWBVNqE34i-504" value="Создание заказа" style="text;html=1;align=center;verticalAlign=middle;whiteSpace=wrap;rounded=1;fontSize=13;fontColor=#FFFFFF;strokeColor=none;" parent="2841olOFZ7QWBVNqE34i-501" vertex="1">
          <mxGeometry x="5" y="4.5" width="110" height="30" as="geometry" />
        </mxCell>
        <mxCell id="2841olOFZ7QWBVNqE34i-505" value="" style="group" parent="2841olOFZ7QWBVNqE34i-571" vertex="1" connectable="0">
          <mxGeometry x="1253" y="3" width="309" height="39" as="geometry" />
        </mxCell>
        <mxCell id="2841olOFZ7QWBVNqE34i-506" value="" style="rounded=1;whiteSpace=wrap;html=1;fillColor=#1C57CD;strokeColor=none;" parent="2841olOFZ7QWBVNqE34i-505" vertex="1">
          <mxGeometry width="309" height="39" as="geometry" />
        </mxCell>
        <mxCell id="2841olOFZ7QWBVNqE34i-507" value="" style="sketch=0;outlineConnect=0;fontColor=#232F3E;gradientColor=none;fillColor=default;strokeColor=none;dashed=0;verticalLabelPosition=bottom;verticalAlign=top;align=center;html=1;fontSize=12;fontStyle=0;aspect=fixed;pointerEvents=1;shape=mxgraph.aws4.gear;rounded=1;" parent="2841olOFZ7QWBVNqE34i-505" vertex="1">
          <mxGeometry x="282" y="11" width="17" height="17" as="geometry" />
        </mxCell>
        <mxCell id="2841olOFZ7QWBVNqE34i-508" value="Редактирование заказа" style="text;html=1;align=center;verticalAlign=middle;whiteSpace=wrap;rounded=1;fontSize=13;fontColor=#FFFFFF;strokeColor=none;" parent="2841olOFZ7QWBVNqE34i-505" vertex="1">
          <mxGeometry x="3" y="4.5" width="154" height="30" as="geometry" />
        </mxCell>
        <mxCell id="2841olOFZ7QWBVNqE34i-509" value="" style="group" parent="2841olOFZ7QWBVNqE34i-571" vertex="1" connectable="0">
          <mxGeometry x="1253" y="46" width="309" height="39" as="geometry" />
        </mxCell>
        <mxCell id="2841olOFZ7QWBVNqE34i-510" value="" style="rounded=1;whiteSpace=wrap;html=1;fillColor=#1C57CD;strokeColor=none;" parent="2841olOFZ7QWBVNqE34i-509" vertex="1">
          <mxGeometry width="309" height="39" as="geometry" />
        </mxCell>
        <mxCell id="2841olOFZ7QWBVNqE34i-511" value="" style="sketch=0;outlineConnect=0;fontColor=#232F3E;gradientColor=none;fillColor=default;strokeColor=none;dashed=0;verticalLabelPosition=bottom;verticalAlign=top;align=center;html=1;fontSize=12;fontStyle=0;aspect=fixed;pointerEvents=1;shape=mxgraph.aws4.gear;rounded=1;" parent="2841olOFZ7QWBVNqE34i-509" vertex="1">
          <mxGeometry x="282" y="11" width="17" height="17" as="geometry" />
        </mxCell>
        <mxCell id="2841olOFZ7QWBVNqE34i-512" value="Сохранение заказа" style="text;html=1;align=center;verticalAlign=middle;whiteSpace=wrap;rounded=1;fontSize=13;fontColor=#FFFFFF;strokeColor=none;" parent="2841olOFZ7QWBVNqE34i-509" vertex="1">
          <mxGeometry x="4" y="4" width="126" height="30" as="geometry" />
        </mxCell>
        <mxCell id="2841olOFZ7QWBVNqE34i-513" value="" style="group" parent="2841olOFZ7QWBVNqE34i-571" vertex="1" connectable="0">
          <mxGeometry x="1252" y="90" width="309" height="39" as="geometry" />
        </mxCell>
        <mxCell id="2841olOFZ7QWBVNqE34i-514" value="" style="rounded=1;whiteSpace=wrap;html=1;fillColor=#1C57CD;strokeColor=none;" parent="2841olOFZ7QWBVNqE34i-513" vertex="1">
          <mxGeometry width="309" height="39" as="geometry" />
        </mxCell>
        <mxCell id="2841olOFZ7QWBVNqE34i-515" value="" style="sketch=0;outlineConnect=0;fontColor=#232F3E;gradientColor=none;fillColor=default;strokeColor=none;dashed=0;verticalLabelPosition=bottom;verticalAlign=top;align=center;html=1;fontSize=12;fontStyle=0;aspect=fixed;pointerEvents=1;shape=mxgraph.aws4.gear;rounded=1;" parent="2841olOFZ7QWBVNqE34i-513" vertex="1">
          <mxGeometry x="281.5" y="11" width="17" height="17" as="geometry" />
        </mxCell>
        <mxCell id="2841olOFZ7QWBVNqE34i-516" value="Подтверждение заказа" style="text;html=1;align=center;verticalAlign=middle;whiteSpace=wrap;rounded=1;fontSize=13;fontColor=#FFFFFF;strokeColor=none;" parent="2841olOFZ7QWBVNqE34i-513" vertex="1">
          <mxGeometry x="4" y="4.5" width="152" height="30" as="geometry" />
        </mxCell>
        <mxCell id="2841olOFZ7QWBVNqE34i-517" value="" style="group" parent="2841olOFZ7QWBVNqE34i-571" vertex="1" connectable="0">
          <mxGeometry x="1251" y="133" width="309" height="39" as="geometry" />
        </mxCell>
        <mxCell id="2841olOFZ7QWBVNqE34i-518" value="" style="rounded=1;whiteSpace=wrap;html=1;fillColor=#1C57CD;strokeColor=none;" parent="2841olOFZ7QWBVNqE34i-517" vertex="1">
          <mxGeometry width="309" height="39" as="geometry" />
        </mxCell>
        <mxCell id="2841olOFZ7QWBVNqE34i-519" value="" style="sketch=0;outlineConnect=0;fontColor=#232F3E;gradientColor=none;fillColor=default;strokeColor=none;dashed=0;verticalLabelPosition=bottom;verticalAlign=top;align=center;html=1;fontSize=12;fontStyle=0;aspect=fixed;pointerEvents=1;shape=mxgraph.aws4.gear;rounded=1;" parent="2841olOFZ7QWBVNqE34i-517" vertex="1">
          <mxGeometry x="281.5" y="11" width="17" height="17" as="geometry" />
        </mxCell>
        <mxCell id="2841olOFZ7QWBVNqE34i-520" value="Размещение заказа" style="text;html=1;align=center;verticalAlign=middle;whiteSpace=wrap;rounded=1;fontSize=13;fontColor=#FFFFFF;strokeColor=none;" parent="2841olOFZ7QWBVNqE34i-517" vertex="1">
          <mxGeometry x="3" y="4.5" width="130.5" height="30" as="geometry" />
        </mxCell>
        <mxCell id="2841olOFZ7QWBVNqE34i-521" value="" style="group" parent="2841olOFZ7QWBVNqE34i-571" vertex="1" connectable="0">
          <mxGeometry x="1252" y="175" width="309" height="39" as="geometry" />
        </mxCell>
        <mxCell id="2841olOFZ7QWBVNqE34i-522" value="" style="rounded=1;whiteSpace=wrap;html=1;fillColor=#1C57CD;strokeColor=none;" parent="2841olOFZ7QWBVNqE34i-521" vertex="1">
          <mxGeometry width="309" height="39" as="geometry" />
        </mxCell>
        <mxCell id="2841olOFZ7QWBVNqE34i-523" value="" style="sketch=0;outlineConnect=0;fontColor=#232F3E;gradientColor=none;fillColor=default;strokeColor=none;dashed=0;verticalLabelPosition=bottom;verticalAlign=top;align=center;html=1;fontSize=12;fontStyle=0;aspect=fixed;pointerEvents=1;shape=mxgraph.aws4.gear;rounded=1;" parent="2841olOFZ7QWBVNqE34i-521" vertex="1">
          <mxGeometry x="281.5" y="11" width="17" height="17" as="geometry" />
        </mxCell>
        <mxCell id="2841olOFZ7QWBVNqE34i-524" value="Отобразить все заказы" style="text;html=1;align=center;verticalAlign=middle;whiteSpace=wrap;rounded=1;fontSize=13;fontColor=#FFFFFF;strokeColor=none;" parent="2841olOFZ7QWBVNqE34i-521" vertex="1">
          <mxGeometry x="3" y="4.5" width="152" height="30" as="geometry" />
        </mxCell>
        <mxCell id="2841olOFZ7QWBVNqE34i-525" value="" style="group" parent="2841olOFZ7QWBVNqE34i-571" vertex="1" connectable="0">
          <mxGeometry x="1252" y="219" width="309" height="39" as="geometry" />
        </mxCell>
        <mxCell id="2841olOFZ7QWBVNqE34i-526" value="" style="rounded=1;whiteSpace=wrap;html=1;fillColor=#1C57CD;strokeColor=none;" parent="2841olOFZ7QWBVNqE34i-525" vertex="1">
          <mxGeometry width="309" height="39" as="geometry" />
        </mxCell>
        <mxCell id="2841olOFZ7QWBVNqE34i-527" value="" style="sketch=0;outlineConnect=0;fontColor=#232F3E;gradientColor=none;fillColor=default;strokeColor=none;dashed=0;verticalLabelPosition=bottom;verticalAlign=top;align=center;html=1;fontSize=12;fontStyle=0;aspect=fixed;pointerEvents=1;shape=mxgraph.aws4.gear;rounded=1;" parent="2841olOFZ7QWBVNqE34i-525" vertex="1">
          <mxGeometry x="282" y="11" width="17" height="17" as="geometry" />
        </mxCell>
        <mxCell id="2841olOFZ7QWBVNqE34i-528" value="Отобразить детали заказа" style="text;html=1;align=center;verticalAlign=middle;whiteSpace=wrap;rounded=1;fontSize=13;fontColor=#FFFFFF;strokeColor=none;" parent="2841olOFZ7QWBVNqE34i-525" vertex="1">
          <mxGeometry x="5" y="5" width="169" height="30" as="geometry" />
        </mxCell>
        <mxCell id="2841olOFZ7QWBVNqE34i-529" value="" style="group" parent="2841olOFZ7QWBVNqE34i-571" vertex="1" connectable="0">
          <mxGeometry x="1251" y="263" width="309" height="39" as="geometry" />
        </mxCell>
        <mxCell id="2841olOFZ7QWBVNqE34i-530" value="" style="rounded=1;whiteSpace=wrap;html=1;fillColor=#1C57CD;strokeColor=none;" parent="2841olOFZ7QWBVNqE34i-529" vertex="1">
          <mxGeometry width="309" height="39" as="geometry" />
        </mxCell>
        <mxCell id="2841olOFZ7QWBVNqE34i-531" value="" style="sketch=0;outlineConnect=0;fontColor=#232F3E;gradientColor=none;fillColor=default;strokeColor=none;dashed=0;verticalLabelPosition=bottom;verticalAlign=top;align=center;html=1;fontSize=12;fontStyle=0;aspect=fixed;pointerEvents=1;shape=mxgraph.aws4.gear;rounded=1;" parent="2841olOFZ7QWBVNqE34i-529" vertex="1">
          <mxGeometry x="282" y="11" width="17" height="17" as="geometry" />
        </mxCell>
        <mxCell id="2841olOFZ7QWBVNqE34i-532" value="Нотификация об изменении состояния заказа" style="text;html=1;align=center;verticalAlign=middle;whiteSpace=wrap;rounded=1;fontSize=13;fontColor=#FFFFFF;strokeColor=none;" parent="2841olOFZ7QWBVNqE34i-529" vertex="1">
          <mxGeometry x="6" y="4.5" width="247" height="30" as="geometry" />
        </mxCell>
        <mxCell id="2841olOFZ7QWBVNqE34i-533" value="" style="group" parent="2841olOFZ7QWBVNqE34i-571" vertex="1" connectable="0">
          <mxGeometry x="1251" y="308" width="309" height="39" as="geometry" />
        </mxCell>
        <mxCell id="2841olOFZ7QWBVNqE34i-534" value="" style="rounded=1;whiteSpace=wrap;html=1;fillColor=#1C57CD;strokeColor=none;" parent="2841olOFZ7QWBVNqE34i-533" vertex="1">
          <mxGeometry width="309" height="39" as="geometry" />
        </mxCell>
        <mxCell id="2841olOFZ7QWBVNqE34i-535" value="" style="sketch=0;outlineConnect=0;fontColor=#232F3E;gradientColor=none;fillColor=#FFFFFF;strokeColor=none;dashed=0;verticalLabelPosition=bottom;verticalAlign=top;align=center;html=1;fontSize=12;fontStyle=0;aspect=fixed;pointerEvents=1;shape=mxgraph.aws4.gear;rounded=1;" parent="2841olOFZ7QWBVNqE34i-533" vertex="1">
          <mxGeometry x="286" y="11" width="17" height="17" as="geometry" />
        </mxCell>
        <mxCell id="2841olOFZ7QWBVNqE34i-536" value="Отобразить статистику заказов" style="text;html=1;align=center;verticalAlign=middle;whiteSpace=wrap;rounded=1;fontSize=13;fontColor=#FFFFFF;strokeColor=none;" parent="2841olOFZ7QWBVNqE34i-533" vertex="1">
          <mxGeometry x="6.5" y="4.5" width="202" height="30" as="geometry" />
        </mxCell>
        <mxCell id="2841olOFZ7QWBVNqE34i-537" value="" style="group" parent="2841olOFZ7QWBVNqE34i-571" vertex="1" connectable="0">
          <mxGeometry x="1725" y="13" width="151" height="49" as="geometry" />
        </mxCell>
        <mxCell id="2841olOFZ7QWBVNqE34i-538" value="&lt;p style=&quot;margin: 0px 0px 0px 13px; text-indent: -13px; font-variant-numeric: normal; font-variant-east-asian: normal; font-variant-alternates: normal; font-kerning: auto; font-optical-sizing: auto; font-feature-settings: normal; font-variation-settings: normal; font-variant-position: normal; font-stretch: normal; font-size: 14px; line-height: normal; color: rgb(14, 14, 14); text-align: start;&quot; class=&quot;p1&quot;&gt;&lt;br&gt;&lt;/p&gt;" style="rounded=1;whiteSpace=wrap;html=1;fillColor=#FF77BF;strokeColor=none;arcSize=50;" parent="2841olOFZ7QWBVNqE34i-537" vertex="1">
          <mxGeometry y="9" width="151" height="33" as="geometry" />
        </mxCell>
        <mxCell id="2841olOFZ7QWBVNqE34i-539" value="&lt;font style=&quot;font-size: 18px;&quot;&gt;&lt;i&gt;PostgreSQL&lt;/i&gt;&lt;/font&gt;" style="text;html=1;align=center;verticalAlign=middle;whiteSpace=wrap;rounded=1;shadow=0;fontSize=23;fontStyle=1" parent="2841olOFZ7QWBVNqE34i-537" vertex="1">
          <mxGeometry x="31" width="89" height="49" as="geometry" />
        </mxCell>
        <mxCell id="2841olOFZ7QWBVNqE34i-540" value="" style="group" parent="2841olOFZ7QWBVNqE34i-571" vertex="1" connectable="0">
          <mxGeometry x="1249" y="352" width="309" height="39" as="geometry" />
        </mxCell>
        <mxCell id="2841olOFZ7QWBVNqE34i-541" value="" style="rounded=1;whiteSpace=wrap;html=1;fillColor=#1C57CD;strokeColor=none;" parent="2841olOFZ7QWBVNqE34i-540" vertex="1">
          <mxGeometry width="309" height="39" as="geometry" />
        </mxCell>
        <mxCell id="2841olOFZ7QWBVNqE34i-542" value="" style="sketch=0;outlineConnect=0;fontColor=#232F3E;gradientColor=none;fillColor=#FFFFFF;strokeColor=none;dashed=0;verticalLabelPosition=bottom;verticalAlign=top;align=center;html=1;fontSize=12;fontStyle=0;aspect=fixed;pointerEvents=1;shape=mxgraph.aws4.gear;rounded=1;" parent="2841olOFZ7QWBVNqE34i-540" vertex="1">
          <mxGeometry x="286" y="11" width="17" height="17" as="geometry" />
        </mxCell>
        <mxCell id="2841olOFZ7QWBVNqE34i-543" value="Фильтрация и сортировка результатов" style="text;html=1;align=center;verticalAlign=middle;whiteSpace=wrap;rounded=1;fontSize=13;fontColor=#FFFFFF;strokeColor=none;" parent="2841olOFZ7QWBVNqE34i-540" vertex="1">
          <mxGeometry x="5" y="4.5" width="248" height="30" as="geometry" />
        </mxCell>
        <mxCell id="2841olOFZ7QWBVNqE34i-544" value="" style="group" parent="2841olOFZ7QWBVNqE34i-571" vertex="1" connectable="0">
          <mxGeometry x="1249" y="398" width="309" height="39" as="geometry" />
        </mxCell>
        <mxCell id="2841olOFZ7QWBVNqE34i-545" value="" style="rounded=1;whiteSpace=wrap;html=1;fillColor=#1C57CD;strokeColor=none;" parent="2841olOFZ7QWBVNqE34i-544" vertex="1">
          <mxGeometry width="309" height="39" as="geometry" />
        </mxCell>
        <mxCell id="2841olOFZ7QWBVNqE34i-546" value="" style="sketch=0;outlineConnect=0;fontColor=#232F3E;gradientColor=none;fillColor=#FFFFFF;strokeColor=none;dashed=0;verticalLabelPosition=bottom;verticalAlign=top;align=center;html=1;fontSize=12;fontStyle=0;aspect=fixed;pointerEvents=1;shape=mxgraph.aws4.gear;rounded=1;" parent="2841olOFZ7QWBVNqE34i-544" vertex="1">
          <mxGeometry x="286" y="11" width="17" height="17" as="geometry" />
        </mxCell>
        <mxCell id="2841olOFZ7QWBVNqE34i-547" value="Фильтрация и сортировка результатов" style="text;html=1;align=center;verticalAlign=middle;whiteSpace=wrap;rounded=1;fontSize=13;fontColor=#FFFFFF;strokeColor=none;" parent="2841olOFZ7QWBVNqE34i-544" vertex="1">
          <mxGeometry x="5" y="4.5" width="248" height="30" as="geometry" />
        </mxCell>
        <mxCell id="2841olOFZ7QWBVNqE34i-548" value="&lt;p style=&quot;margin: 0px 0px 0px 13px; text-indent: -13px; font-variant-numeric: normal; font-variant-east-asian: normal; font-variant-alternates: normal; font-kerning: auto; font-optical-sizing: auto; font-feature-settings: normal; font-variation-settings: normal; font-variant-position: normal; font-stretch: normal; font-size: 14px; line-height: normal; color: rgb(14, 14, 14); text-align: start;&quot; class=&quot;p1&quot;&gt;&lt;font face=&quot;Times New Roman&quot;&gt;Заказ. Автор&lt;/font&gt;&lt;/p&gt;" style="rounded=1;whiteSpace=wrap;html=1;fillColor=#b1ddf0;strokeColor=#CC0000;strokeWidth=2;" parent="2841olOFZ7QWBVNqE34i-571" vertex="1">
          <mxGeometry x="1736" y="246" width="141" height="21" as="geometry" />
        </mxCell>
        <mxCell id="2841olOFZ7QWBVNqE34i-549" value="&lt;p style=&quot;margin: 0px 0px 0px 13px; text-indent: -13px; font-variant-numeric: normal; font-variant-east-asian: normal; font-variant-alternates: normal; font-kerning: auto; font-optical-sizing: auto; font-feature-settings: normal; font-variation-settings: normal; font-variant-position: normal; font-stretch: normal; font-size: 14px; line-height: normal; color: rgb(14, 14, 14); text-align: start;&quot; class=&quot;p1&quot;&gt;&lt;font face=&quot;Times New Roman&quot;&gt;Заказ. ID&lt;/font&gt;&lt;/p&gt;" style="rounded=1;whiteSpace=wrap;html=1;fillColor=#b1ddf0;strokeColor=#CC0000;strokeWidth=2;" parent="2841olOFZ7QWBVNqE34i-571" vertex="1">
          <mxGeometry x="1640" y="156" width="119" height="21" as="geometry" />
        </mxCell>
        <mxCell id="2841olOFZ7QWBVNqE34i-550" value="&lt;p style=&quot;margin: 0px 0px 0px 13px; text-indent: -13px; font-variant-numeric: normal; font-variant-east-asian: normal; font-variant-alternates: normal; font-kerning: auto; font-optical-sizing: auto; font-feature-settings: normal; font-variation-settings: normal; font-variant-position: normal; font-stretch: normal; font-size: 14px; line-height: normal; color: rgb(14, 14, 14); text-align: start;&quot; class=&quot;p1&quot;&gt;&lt;font face=&quot;Times New Roman&quot;&gt;Заказ. ID товара&lt;/font&gt;&lt;/p&gt;" style="rounded=1;whiteSpace=wrap;html=1;fillColor=#b1ddf0;strokeColor=#CC0000;strokeWidth=2;" parent="2841olOFZ7QWBVNqE34i-571" vertex="1">
          <mxGeometry x="1638" y="192" width="155" height="21" as="geometry" />
        </mxCell>
        <mxCell id="2841olOFZ7QWBVNqE34i-551" value="&lt;p style=&quot;margin: 0px 0px 0px 13px; text-indent: -13px; font-variant-numeric: normal; font-variant-east-asian: normal; font-variant-alternates: normal; font-kerning: auto; font-optical-sizing: auto; font-feature-settings: normal; font-variation-settings: normal; font-variant-position: normal; font-stretch: normal; font-size: 14px; line-height: normal; color: rgb(14, 14, 14); text-align: start;&quot; class=&quot;p1&quot;&gt;&lt;font face=&quot;Times New Roman&quot;&gt;Заказ. Описание&lt;/font&gt;&lt;/p&gt;" style="rounded=1;whiteSpace=wrap;html=1;fillColor=#b1ddf0;strokeColor=#CC0000;strokeWidth=2;" parent="2841olOFZ7QWBVNqE34i-571" vertex="1">
          <mxGeometry x="1833" y="157" width="119" height="21" as="geometry" />
        </mxCell>
        <mxCell id="2841olOFZ7QWBVNqE34i-552" value="&lt;p style=&quot;margin: 0px 0px 0px 13px; text-indent: -13px; font-variant-numeric: normal; font-variant-east-asian: normal; font-variant-alternates: normal; font-kerning: auto; font-optical-sizing: auto; font-feature-settings: normal; font-variation-settings: normal; font-variant-position: normal; font-stretch: normal; font-size: 14px; line-height: normal; color: rgb(14, 14, 14); text-align: start;&quot; class=&quot;p1&quot;&gt;&lt;font face=&quot;Times New Roman&quot;&gt;Заказ. Статус&lt;/font&gt;&lt;/p&gt;" style="rounded=1;whiteSpace=wrap;html=1;fillColor=#b1ddf0;strokeColor=#CC0000;strokeWidth=2;" parent="2841olOFZ7QWBVNqE34i-571" vertex="1">
          <mxGeometry x="1831" y="196" width="119" height="21" as="geometry" />
        </mxCell>
        <mxCell id="2841olOFZ7QWBVNqE34i-792" value="&lt;p style=&quot;margin: 0px 0px 0px 13px; text-indent: -13px; font-variant-numeric: normal; font-variant-east-asian: normal; font-variant-alternates: normal; font-kerning: auto; font-optical-sizing: auto; font-feature-settings: normal; font-variation-settings: normal; font-variant-position: normal; font-stretch: normal; font-size: 14px; line-height: normal; color: rgb(14, 14, 14); text-align: start;&quot; class=&quot;p1&quot;&gt;&lt;font face=&quot;Times New Roman&quot;&gt;Пользователь.ID&lt;/font&gt;&lt;/p&gt;" style="rounded=1;whiteSpace=wrap;html=1;fillColor=#b1ddf0;strokeColor=#10739e;" parent="2841olOFZ7QWBVNqE34i-571" vertex="1">
          <mxGeometry x="372" y="302" width="151" height="21" as="geometry" />
        </mxCell>
        <mxCell id="2841olOFZ7QWBVNqE34i-794" value="&lt;p style=&quot;margin: 0px 0px 0px 13px; text-indent: -13px; font-variant-numeric: normal; font-variant-east-asian: normal; font-variant-alternates: normal; font-kerning: auto; font-optical-sizing: auto; font-feature-settings: normal; font-variation-settings: normal; font-variant-position: normal; font-stretch: normal; font-size: 14px; line-height: normal; color: rgb(14, 14, 14); text-align: start;&quot; class=&quot;p1&quot;&gt;&lt;font face=&quot;Times New Roman&quot;&gt;Пользователь.ID&lt;/font&gt;&lt;/p&gt;" style="rounded=1;whiteSpace=wrap;html=1;fillColor=#b1ddf0;strokeColor=#10739e;" parent="2841olOFZ7QWBVNqE34i-571" vertex="1">
          <mxGeometry x="1640" y="308" width="151" height="21" as="geometry" />
        </mxCell>
        <mxCell id="2841olOFZ7QWBVNqE34i-575" value="" style="group" parent="1" vertex="1" connectable="0">
          <mxGeometry x="-6518" y="1880" width="309" height="39" as="geometry" />
        </mxCell>
        <mxCell id="2841olOFZ7QWBVNqE34i-576" value="" style="rounded=1;whiteSpace=wrap;html=1;fillColor=#1C57CD;strokeColor=none;" parent="2841olOFZ7QWBVNqE34i-575" vertex="1">
          <mxGeometry width="309" height="39" as="geometry" />
        </mxCell>
        <mxCell id="2841olOFZ7QWBVNqE34i-577" value="" style="sketch=0;outlineConnect=0;fontColor=#232F3E;gradientColor=none;fillColor=#FFFFFF;strokeColor=none;dashed=0;verticalLabelPosition=bottom;verticalAlign=top;align=center;html=1;fontSize=12;fontStyle=0;aspect=fixed;pointerEvents=1;shape=mxgraph.aws4.gear;rounded=1;" parent="2841olOFZ7QWBVNqE34i-575" vertex="1">
          <mxGeometry x="286" y="11" width="17" height="17" as="geometry" />
        </mxCell>
        <mxCell id="2841olOFZ7QWBVNqE34i-578" value="Нотификация участника аукциона" style="text;html=1;align=center;verticalAlign=middle;whiteSpace=wrap;rounded=1;fontSize=13;fontColor=#FFFFFF;strokeColor=none;" parent="2841olOFZ7QWBVNqE34i-575" vertex="1">
          <mxGeometry x="3" y="4.5" width="218" height="30" as="geometry" />
        </mxCell>
        <mxCell id="2841olOFZ7QWBVNqE34i-579" value="" style="group" parent="1" vertex="1" connectable="0">
          <mxGeometry x="-6521" y="1982" width="309" height="39" as="geometry" />
        </mxCell>
        <mxCell id="2841olOFZ7QWBVNqE34i-580" value="" style="rounded=1;whiteSpace=wrap;html=1;fillColor=#1C57CD;strokeColor=none;" parent="2841olOFZ7QWBVNqE34i-579" vertex="1">
          <mxGeometry width="309" height="39" as="geometry" />
        </mxCell>
        <mxCell id="2841olOFZ7QWBVNqE34i-581" value="" style="sketch=0;outlineConnect=0;fontColor=#232F3E;gradientColor=none;fillColor=#FFFFFF;strokeColor=none;dashed=0;verticalLabelPosition=bottom;verticalAlign=top;align=center;html=1;fontSize=12;fontStyle=0;aspect=fixed;pointerEvents=1;shape=mxgraph.aws4.gear;rounded=1;" parent="2841olOFZ7QWBVNqE34i-579" vertex="1">
          <mxGeometry x="280" y="11" width="17" height="17" as="geometry" />
        </mxCell>
        <mxCell id="2841olOFZ7QWBVNqE34i-582" value="Обновление статуса аукциона" style="text;html=1;align=center;verticalAlign=middle;whiteSpace=wrap;rounded=1;fontSize=13;fontColor=#FFFFFF;strokeColor=none;" parent="2841olOFZ7QWBVNqE34i-579" vertex="1">
          <mxGeometry y="4.5" width="202" height="30" as="geometry" />
        </mxCell>
        <mxCell id="2841olOFZ7QWBVNqE34i-583" value="" style="group" parent="1" vertex="1" connectable="0">
          <mxGeometry x="-6521" y="1936" width="309" height="39" as="geometry" />
        </mxCell>
        <mxCell id="2841olOFZ7QWBVNqE34i-584" value="" style="rounded=1;whiteSpace=wrap;html=1;fillColor=#1C57CD;strokeColor=none;" parent="2841olOFZ7QWBVNqE34i-583" vertex="1">
          <mxGeometry width="309" height="39" as="geometry" />
        </mxCell>
        <mxCell id="2841olOFZ7QWBVNqE34i-585" value="" style="sketch=0;outlineConnect=0;fontColor=#232F3E;gradientColor=none;fillColor=#FFFFFF;strokeColor=none;dashed=0;verticalLabelPosition=bottom;verticalAlign=top;align=center;html=1;fontSize=12;fontStyle=0;aspect=fixed;pointerEvents=1;shape=mxgraph.aws4.gear;rounded=1;" parent="2841olOFZ7QWBVNqE34i-583" vertex="1">
          <mxGeometry x="280" y="11" width="17" height="17" as="geometry" />
        </mxCell>
        <mxCell id="2841olOFZ7QWBVNqE34i-586" value="Обновление ставок аукциона" style="text;html=1;align=center;verticalAlign=middle;whiteSpace=wrap;rounded=1;fontSize=13;fontColor=#FFFFFF;strokeColor=none;" parent="2841olOFZ7QWBVNqE34i-583" vertex="1">
          <mxGeometry y="4.5" width="202" height="30" as="geometry" />
        </mxCell>
        <mxCell id="2841olOFZ7QWBVNqE34i-587" value="" style="group" parent="1" vertex="1" connectable="0">
          <mxGeometry x="-6524" y="2034" width="309" height="39" as="geometry" />
        </mxCell>
        <mxCell id="2841olOFZ7QWBVNqE34i-588" value="" style="rounded=1;whiteSpace=wrap;html=1;fillColor=#1C57CD;strokeColor=none;" parent="2841olOFZ7QWBVNqE34i-587" vertex="1">
          <mxGeometry width="309" height="39" as="geometry" />
        </mxCell>
        <mxCell id="2841olOFZ7QWBVNqE34i-589" value="" style="sketch=0;outlineConnect=0;fontColor=#232F3E;gradientColor=none;fillColor=#FFFFFF;strokeColor=none;dashed=0;verticalLabelPosition=bottom;verticalAlign=top;align=center;html=1;fontSize=12;fontStyle=0;aspect=fixed;pointerEvents=1;shape=mxgraph.aws4.gear;rounded=1;" parent="2841olOFZ7QWBVNqE34i-587" vertex="1">
          <mxGeometry x="286" y="11" width="17" height="17" as="geometry" />
        </mxCell>
        <mxCell id="2841olOFZ7QWBVNqE34i-590" value="Фильтрация и сортировка результатов" style="text;html=1;align=center;verticalAlign=middle;whiteSpace=wrap;rounded=1;fontSize=13;fontColor=#FFFFFF;strokeColor=none;" parent="2841olOFZ7QWBVNqE34i-587" vertex="1">
          <mxGeometry x="5" y="4.5" width="248" height="30" as="geometry" />
        </mxCell>
        <mxCell id="2841olOFZ7QWBVNqE34i-591" value="&lt;p style=&quot;margin: 0px 0px 0px 13px; text-indent: -13px; font-variant-numeric: normal; font-variant-east-asian: normal; font-variant-alternates: normal; font-kerning: auto; font-optical-sizing: auto; font-feature-settings: normal; font-variation-settings: normal; font-variant-position: normal; font-stretch: normal; font-size: 14px; line-height: normal; color: rgb(14, 14, 14); text-align: start;&quot; class=&quot;p1&quot;&gt;&lt;font face=&quot;Times New Roman&quot;&gt;Торговая площадка.ID&lt;/font&gt;&lt;/p&gt;" style="rounded=1;whiteSpace=wrap;html=1;fillColor=#b1ddf0;strokeColor=#10739e;" parent="1" vertex="1">
          <mxGeometry x="-6136" y="1883" width="144.5" height="21" as="geometry" />
        </mxCell>
        <mxCell id="2841olOFZ7QWBVNqE34i-592" value="&lt;p style=&quot;margin: 0px 0px 0px 13px; text-indent: -13px; font-variant-numeric: normal; font-variant-east-asian: normal; font-variant-alternates: normal; font-kerning: auto; font-optical-sizing: auto; font-feature-settings: normal; font-variation-settings: normal; font-variant-position: normal; font-stretch: normal; font-size: 14px; line-height: normal; color: rgb(14, 14, 14); text-align: start;&quot; class=&quot;p1&quot;&gt;&lt;font face=&quot;Times New Roman&quot;&gt;Торговая площадка.Наименование&lt;/font&gt;&lt;/p&gt;" style="rounded=1;whiteSpace=wrap;html=1;fillColor=#b1ddf0;strokeColor=#10739e;" parent="1" vertex="1">
          <mxGeometry x="-6134.5" y="1911.75" width="214" height="21" as="geometry" />
        </mxCell>
        <mxCell id="2841olOFZ7QWBVNqE34i-593" value="&lt;p style=&quot;margin: 0px 0px 0px 13px; text-indent: -13px; font-variant-numeric: normal; font-variant-east-asian: normal; font-variant-alternates: normal; font-kerning: auto; font-optical-sizing: auto; font-feature-settings: normal; font-variation-settings: normal; font-variant-position: normal; font-stretch: normal; font-size: 14px; line-height: normal; color: rgb(14, 14, 14); text-align: start;&quot; class=&quot;p1&quot;&gt;&lt;font face=&quot;Times New Roman&quot;&gt;Заявка на аукцион.ID&lt;/font&gt;&lt;/p&gt;" style="rounded=1;whiteSpace=wrap;html=1;fillColor=#b1ddf0;strokeColor=#10739e;" parent="1" vertex="1">
          <mxGeometry x="-6135" y="1976" width="151" height="21" as="geometry" />
        </mxCell>
        <mxCell id="2841olOFZ7QWBVNqE34i-594" value="&lt;p style=&quot;margin: 0px 0px 0px 13px; text-indent: -13px; font-variant-numeric: normal; font-variant-east-asian: normal; font-variant-alternates: normal; font-kerning: auto; font-optical-sizing: auto; font-feature-settings: normal; font-variation-settings: normal; font-variant-position: normal; font-stretch: normal; line-height: normal; color: rgb(14, 14, 14); text-align: start;&quot; class=&quot;p1&quot;&gt;&lt;font style=&quot;font-size: 14px;&quot; face=&quot;Times New Roman&quot;&gt;Заявка на регистрацию&lt;/font&gt;&lt;/p&gt;" style="rounded=1;whiteSpace=wrap;html=1;fillColor=#b1ddf0;strokeColor=#10739e;" parent="1" vertex="1">
          <mxGeometry x="-6133" y="1942" width="150" height="21" as="geometry" />
        </mxCell>
        <mxCell id="2841olOFZ7QWBVNqE34i-600" value="&lt;font style=&quot;font-size: 72px;&quot;&gt;sell/buy/auc gateway&lt;/font&gt;" style="rounded=1;whiteSpace=wrap;html=1;arcSize=3;movable=1;resizable=1;rotatable=1;deletable=1;editable=1;locked=0;connectable=1;fillColor=#f5f5f5;strokeColor=#FF0000;strokeWidth=3;fontColor=#333333;" parent="1" vertex="1">
          <mxGeometry x="-6594" y="1100" width="2200" height="216" as="geometry" />
        </mxCell>
        <mxCell id="2841olOFZ7QWBVNqE34i-701" value="Редактировать профиль" style="text;html=1;align=center;verticalAlign=middle;whiteSpace=wrap;rounded=1;fontSize=13;fontColor=#FFFFFF;" parent="1" vertex="1">
          <mxGeometry x="-4855" y="-857.75" width="164" height="30" as="geometry" />
        </mxCell>
        <mxCell id="2841olOFZ7QWBVNqE34i-702" value="Разместить заказ" style="text;html=1;align=center;verticalAlign=middle;whiteSpace=wrap;rounded=1;fontSize=13;fontColor=#FFFFFF;" parent="1" vertex="1">
          <mxGeometry x="-4849" y="-809.25" width="117" height="30" as="geometry" />
        </mxCell>
        <mxCell id="2841olOFZ7QWBVNqE34i-703" value="" style="rounded=1;whiteSpace=wrap;html=1;arcSize=3;movable=1;resizable=1;rotatable=1;deletable=1;editable=1;locked=0;connectable=1;fillColor=#dae8fc;strokeColor=#6c8ebf;strokeWidth=3;" parent="1" vertex="1">
          <mxGeometry x="-6969" y="-729.25" width="3300" height="614" as="geometry" />
        </mxCell>
        <mxCell id="2841olOFZ7QWBVNqE34i-704" value="" style="strokeWidth=2;html=1;shape=mxgraph.flowchart.database;whiteSpace=wrap;rounded=1;movable=1;resizable=1;rotatable=1;deletable=1;editable=1;locked=0;connectable=1;" parent="1" vertex="1">
          <mxGeometry x="-5199" y="-696.25" width="396" height="551" as="geometry" />
        </mxCell>
        <mxCell id="2841olOFZ7QWBVNqE34i-705" value="" style="group" parent="1" vertex="1" connectable="0">
          <mxGeometry x="-5083" y="-632.25" width="151" height="49" as="geometry" />
        </mxCell>
        <mxCell id="2841olOFZ7QWBVNqE34i-706" value="&lt;p style=&quot;margin: 0px 0px 0px 13px; text-indent: -13px; font-variant-numeric: normal; font-variant-east-asian: normal; font-variant-alternates: normal; font-kerning: auto; font-optical-sizing: auto; font-feature-settings: normal; font-variation-settings: normal; font-variant-position: normal; font-stretch: normal; font-size: 14px; line-height: normal; color: rgb(14, 14, 14); text-align: start;&quot; class=&quot;p1&quot;&gt;&lt;br&gt;&lt;/p&gt;" style="rounded=1;whiteSpace=wrap;html=1;fillColor=#FF77BF;strokeColor=none;arcSize=50;" parent="2841olOFZ7QWBVNqE34i-705" vertex="1">
          <mxGeometry y="9" width="151" height="33" as="geometry" />
        </mxCell>
        <mxCell id="2841olOFZ7QWBVNqE34i-707" value="&lt;font style=&quot;font-size: 18px;&quot;&gt;&lt;i&gt;PostgreSQL&lt;/i&gt;&lt;/font&gt;" style="text;html=1;align=center;verticalAlign=middle;whiteSpace=wrap;rounded=1;shadow=0;fontSize=23;fontStyle=1" parent="2841olOFZ7QWBVNqE34i-705" vertex="1">
          <mxGeometry x="31" width="89" height="49" as="geometry" />
        </mxCell>
        <mxCell id="2841olOFZ7QWBVNqE34i-708" value="&lt;font style=&quot;font-size: 48px;&quot;&gt;authentication proxy&lt;/font&gt;" style="text;html=1;align=center;verticalAlign=middle;whiteSpace=wrap;rounded=1;shadow=0;fontSize=23;fontStyle=1" parent="1" vertex="1">
          <mxGeometry x="-5575" y="-735.25" width="549" height="49" as="geometry" />
        </mxCell>
        <mxCell id="2841olOFZ7QWBVNqE34i-709" value="" style="group" parent="1" vertex="1" connectable="0">
          <mxGeometry x="-5549" y="-640.25" width="309" height="39" as="geometry" />
        </mxCell>
        <mxCell id="2841olOFZ7QWBVNqE34i-710" value="" style="group" parent="2841olOFZ7QWBVNqE34i-709" vertex="1" connectable="0">
          <mxGeometry width="309" height="39" as="geometry" />
        </mxCell>
        <mxCell id="2841olOFZ7QWBVNqE34i-711" value="" style="rounded=1;whiteSpace=wrap;html=1;gradientColor=none;fillColor=#1C57CD;strokeColor=none;movable=1;resizable=1;rotatable=1;deletable=1;editable=1;locked=0;connectable=1;" parent="2841olOFZ7QWBVNqE34i-710" vertex="1">
          <mxGeometry width="309" height="39" as="geometry" />
        </mxCell>
        <mxCell id="2841olOFZ7QWBVNqE34i-712" value="" style="sketch=0;outlineConnect=0;dashed=0;verticalLabelPosition=bottom;verticalAlign=top;align=center;html=1;fontSize=12;fontStyle=0;aspect=fixed;pointerEvents=1;shape=mxgraph.aws4.gear;rounded=1;strokeColor=none;fillColor=default;" parent="2841olOFZ7QWBVNqE34i-710" vertex="1">
          <mxGeometry x="280" y="11" width="17" height="17" as="geometry" />
        </mxCell>
        <mxCell id="2841olOFZ7QWBVNqE34i-713" value="Регистрация пользователя" style="text;html=1;align=center;verticalAlign=middle;whiteSpace=wrap;rounded=1;fontSize=13;fontColor=#FFFFFF;strokeColor=none;movable=1;resizable=1;rotatable=1;deletable=1;editable=1;locked=0;connectable=1;" parent="2841olOFZ7QWBVNqE34i-710" vertex="1">
          <mxGeometry x="3" y="4.5" width="172" height="30" as="geometry" />
        </mxCell>
        <mxCell id="2841olOFZ7QWBVNqE34i-714" value="" style="group" parent="1" vertex="1" connectable="0">
          <mxGeometry x="-5549" y="-591.25" width="309" height="39" as="geometry" />
        </mxCell>
        <mxCell id="2841olOFZ7QWBVNqE34i-715" value="" style="rounded=1;whiteSpace=wrap;html=1;fillColor=#1C57CD;strokeColor=none;" parent="2841olOFZ7QWBVNqE34i-714" vertex="1">
          <mxGeometry width="309" height="39" as="geometry" />
        </mxCell>
        <mxCell id="2841olOFZ7QWBVNqE34i-716" value="" style="sketch=0;outlineConnect=0;fontColor=#232F3E;gradientColor=none;fillColor=default;strokeColor=none;dashed=0;verticalLabelPosition=bottom;verticalAlign=top;align=center;html=1;fontSize=12;fontStyle=0;aspect=fixed;pointerEvents=1;shape=mxgraph.aws4.gear;rounded=1;" parent="2841olOFZ7QWBVNqE34i-714" vertex="1">
          <mxGeometry x="280" y="11" width="17" height="17" as="geometry" />
        </mxCell>
        <mxCell id="2841olOFZ7QWBVNqE34i-717" value="Аутентификация" style="text;html=1;align=center;verticalAlign=middle;whiteSpace=wrap;rounded=1;fontSize=13;fontColor=#FFFFFF;strokeColor=none;" parent="2841olOFZ7QWBVNqE34i-714" vertex="1">
          <mxGeometry x="2" y="4.5" width="114" height="30" as="geometry" />
        </mxCell>
        <mxCell id="2841olOFZ7QWBVNqE34i-718" value="" style="group" parent="1" vertex="1" connectable="0">
          <mxGeometry x="-5549" y="-546.25" width="309" height="39" as="geometry" />
        </mxCell>
        <mxCell id="2841olOFZ7QWBVNqE34i-719" value="" style="rounded=1;whiteSpace=wrap;html=1;fillColor=#1C57CD;strokeColor=none;" parent="2841olOFZ7QWBVNqE34i-718" vertex="1">
          <mxGeometry width="309" height="39" as="geometry" />
        </mxCell>
        <mxCell id="2841olOFZ7QWBVNqE34i-720" value="" style="sketch=0;outlineConnect=0;fontColor=#232F3E;gradientColor=none;fillColor=default;strokeColor=none;dashed=0;verticalLabelPosition=bottom;verticalAlign=top;align=center;html=1;fontSize=12;fontStyle=0;aspect=fixed;pointerEvents=1;shape=mxgraph.aws4.gear;rounded=1;" parent="2841olOFZ7QWBVNqE34i-718" vertex="1">
          <mxGeometry x="280" y="11" width="17" height="17" as="geometry" />
        </mxCell>
        <mxCell id="2841olOFZ7QWBVNqE34i-721" value="Присвоение ролей" style="text;html=1;align=center;verticalAlign=middle;whiteSpace=wrap;rounded=1;fontSize=13;fontColor=#FFFFFF;strokeColor=none;" parent="2841olOFZ7QWBVNqE34i-718" vertex="1">
          <mxGeometry x="3" y="5" width="122" height="30" as="geometry" />
        </mxCell>
        <mxCell id="2841olOFZ7QWBVNqE34i-722" value="\" style="group" parent="1" vertex="1" connectable="0">
          <mxGeometry x="-5549" y="-503.25" width="309" height="39" as="geometry" />
        </mxCell>
        <mxCell id="2841olOFZ7QWBVNqE34i-724" value="" style="sketch=0;outlineConnect=0;fontColor=#232F3E;gradientColor=none;fillColor=default;strokeColor=none;dashed=0;verticalLabelPosition=bottom;verticalAlign=top;align=center;html=1;fontSize=12;fontStyle=0;aspect=fixed;pointerEvents=1;shape=mxgraph.aws4.gear;rounded=1;" parent="2841olOFZ7QWBVNqE34i-722" vertex="1">
          <mxGeometry x="280" y="11" width="17" height="17" as="geometry" />
        </mxCell>
        <mxCell id="2841olOFZ7QWBVNqE34i-726" value="" style="group" parent="2841olOFZ7QWBVNqE34i-722" vertex="1" connectable="0">
          <mxGeometry width="309" height="39" as="geometry" />
        </mxCell>
        <mxCell id="2841olOFZ7QWBVNqE34i-727" value="" style="rounded=1;whiteSpace=wrap;html=1;fillColor=#1C57CD;strokeColor=none;" parent="2841olOFZ7QWBVNqE34i-726" vertex="1">
          <mxGeometry width="309" height="39" as="geometry" />
        </mxCell>
        <mxCell id="2841olOFZ7QWBVNqE34i-728" value="" style="sketch=0;outlineConnect=0;fontColor=#232F3E;gradientColor=none;fillColor=default;strokeColor=none;dashed=0;verticalLabelPosition=bottom;verticalAlign=top;align=center;html=1;fontSize=12;fontStyle=0;aspect=fixed;pointerEvents=1;shape=mxgraph.aws4.gear;rounded=1;" parent="2841olOFZ7QWBVNqE34i-726" vertex="1">
          <mxGeometry x="280" y="11" width="17" height="17" as="geometry" />
        </mxCell>
        <mxCell id="2841olOFZ7QWBVNqE34i-729" value="Валидация токена безопасности" style="text;html=1;align=center;verticalAlign=middle;whiteSpace=wrap;rounded=1;fontSize=13;fontColor=#FFFFFF;strokeColor=none;" parent="2841olOFZ7QWBVNqE34i-726" vertex="1">
          <mxGeometry x="3" y="4.5" width="209" height="30" as="geometry" />
        </mxCell>
        <mxCell id="2841olOFZ7QWBVNqE34i-730" value="&lt;p style=&quot;margin: 0px 0px 0px 13px; text-indent: -13px; font-variant-numeric: normal; font-variant-east-asian: normal; font-variant-alternates: normal; font-kerning: auto; font-optical-sizing: auto; font-feature-settings: normal; font-variation-settings: normal; font-variant-position: normal; font-stretch: normal; line-height: normal; color: rgb(14, 14, 14); text-align: start;&quot; class=&quot;p1&quot;&gt;&lt;font face=&quot;Times New Roman&quot;&gt;&lt;span style=&quot;font-size: 14px;&quot;&gt;JWT&lt;/span&gt;&lt;/font&gt;&lt;/p&gt;" style="rounded=1;whiteSpace=wrap;html=1;fillColor=#b1ddf0;strokeColor=#10739e;" parent="1" vertex="1">
          <mxGeometry x="-4937" y="-478.25" width="51.33" height="22" as="geometry" />
        </mxCell>
        <mxCell id="2841olOFZ7QWBVNqE34i-731" value="&lt;p style=&quot;margin: 0px 0px 0px 13px; text-indent: -13px; font-variant-numeric: normal; font-variant-east-asian: normal; font-variant-alternates: normal; font-kerning: auto; font-optical-sizing: auto; font-feature-settings: normal; font-variation-settings: normal; font-variant-position: normal; font-stretch: normal; font-size: 14px; line-height: normal; color: rgb(14, 14, 14); text-align: start;&quot; class=&quot;p1&quot;&gt;&lt;font face=&quot;Times New Roman&quot;&gt;Пользователь.Роль&lt;/font&gt;&lt;/p&gt;" style="rounded=1;whiteSpace=wrap;html=1;fillColor=#b1ddf0;strokeColor=#10739e;" parent="1" vertex="1">
          <mxGeometry x="-5171" y="-386.75" width="151" height="21" as="geometry" />
        </mxCell>
        <mxCell id="2841olOFZ7QWBVNqE34i-732" value="&lt;p style=&quot;margin: 0px 0px 0px 13px; text-indent: -13px; font-variant-numeric: normal; font-variant-east-asian: normal; font-variant-alternates: normal; font-kerning: auto; font-optical-sizing: auto; font-feature-settings: normal; font-variation-settings: normal; font-variant-position: normal; font-stretch: normal; font-size: 14px; line-height: normal; color: rgb(14, 14, 14); text-align: start;&quot; class=&quot;p1&quot;&gt;&lt;font face=&quot;Times New Roman&quot;&gt;Пользователь.ID&lt;/font&gt;&lt;/p&gt;" style="rounded=1;whiteSpace=wrap;html=1;fillColor=#b1ddf0;strokeColor=#10739e;" parent="1" vertex="1">
          <mxGeometry x="-5171" y="-358.75" width="151" height="21" as="geometry" />
        </mxCell>
        <mxCell id="2841olOFZ7QWBVNqE34i-733" value="&lt;p style=&quot;margin: 0px 0px 0px 13px; text-indent: -13px; font-variant-numeric: normal; font-variant-east-asian: normal; font-variant-alternates: normal; font-kerning: auto; font-optical-sizing: auto; font-feature-settings: normal; font-variation-settings: normal; font-variant-position: normal; font-stretch: normal; font-size: 14px; line-height: normal; color: rgb(14, 14, 14); text-align: start;&quot; class=&quot;p1&quot;&gt;&lt;font face=&quot;Times New Roman&quot;&gt;Пользователь.Имя&lt;/font&gt;&lt;/p&gt;" style="rounded=1;whiteSpace=wrap;html=1;fillColor=#b1ddf0;strokeColor=#10739e;" parent="1" vertex="1">
          <mxGeometry x="-5168" y="-479.25" width="119" height="21" as="geometry" />
        </mxCell>
        <mxCell id="2841olOFZ7QWBVNqE34i-734" value="&lt;p style=&quot;margin: 0px 0px 0px 13px; text-indent: -13px; font-variant-numeric: normal; font-variant-east-asian: normal; font-variant-alternates: normal; font-kerning: auto; font-optical-sizing: auto; font-feature-settings: normal; font-variation-settings: normal; font-variant-position: normal; font-stretch: normal; font-size: 14px; line-height: normal; color: rgb(14, 14, 14); text-align: start;&quot; class=&quot;p1&quot;&gt;&lt;font face=&quot;Times New Roman&quot;&gt;Пользователь.Фамилия&lt;/font&gt;&lt;/p&gt;" style="rounded=1;whiteSpace=wrap;html=1;fillColor=#b1ddf0;strokeColor=#10739e;" parent="1" vertex="1">
          <mxGeometry x="-4990" y="-414.25" width="151" height="21" as="geometry" />
        </mxCell>
        <mxCell id="2841olOFZ7QWBVNqE34i-735" value="&lt;p style=&quot;margin: 0px 0px 0px 13px; text-indent: -13px; font-variant-numeric: normal; font-variant-east-asian: normal; font-variant-alternates: normal; font-kerning: auto; font-optical-sizing: auto; font-feature-settings: normal; font-variation-settings: normal; font-variant-position: normal; font-stretch: normal; font-size: 14px; line-height: normal; color: rgb(14, 14, 14); text-align: start;&quot; class=&quot;p1&quot;&gt;&lt;font face=&quot;Times New Roman&quot;&gt;Пользователь.Адрес&lt;/font&gt;&lt;/p&gt;" style="rounded=1;whiteSpace=wrap;html=1;fillColor=#b1ddf0;strokeColor=#10739e;" parent="1" vertex="1">
          <mxGeometry x="-4990" y="-384.25" width="130" height="21" as="geometry" />
        </mxCell>
        <mxCell id="2841olOFZ7QWBVNqE34i-736" value="&lt;p style=&quot;margin: 0px 0px 0px 13px; text-indent: -13px; font-variant-numeric: normal; font-variant-east-asian: normal; font-variant-alternates: normal; font-kerning: auto; font-optical-sizing: auto; font-feature-settings: normal; font-variation-settings: normal; font-variant-position: normal; font-stretch: normal; font-size: 14px; line-height: normal; color: rgb(14, 14, 14); text-align: start;&quot; class=&quot;p1&quot;&gt;&lt;font face=&quot;Times New Roman&quot;&gt;Пользователь.Дата регистрации&lt;/font&gt;&lt;/p&gt;" style="rounded=1;whiteSpace=wrap;html=1;fillColor=#b1ddf0;strokeColor=#10739e;" parent="1" vertex="1">
          <mxGeometry x="-5169" y="-449.25" width="199" height="21" as="geometry" />
        </mxCell>
        <mxCell id="2841olOFZ7QWBVNqE34i-737" value="&lt;p style=&quot;margin: 0px 0px 0px 13px; text-indent: -13px; font-variant-numeric: normal; font-variant-east-asian: normal; font-variant-alternates: normal; font-kerning: auto; font-optical-sizing: auto; font-feature-settings: normal; font-variation-settings: normal; font-variant-position: normal; font-stretch: normal; font-size: 14px; line-height: normal; color: rgb(14, 14, 14); text-align: start;&quot; class=&quot;p1&quot;&gt;&lt;font face=&quot;Times New Roman&quot;&gt;Пользователь.Статус&lt;/font&gt;&lt;/p&gt;" style="rounded=1;whiteSpace=wrap;html=1;fillColor=#b1ddf0;strokeColor=#10739e;" parent="1" vertex="1">
          <mxGeometry x="-4991" y="-355.25" width="136" height="21" as="geometry" />
        </mxCell>
        <mxCell id="2841olOFZ7QWBVNqE34i-738" value="&lt;p style=&quot;margin: 0px 0px 0px 13px; text-indent: -13px; font-variant-numeric: normal; font-variant-east-asian: normal; font-variant-alternates: normal; font-kerning: auto; font-optical-sizing: auto; font-feature-settings: normal; font-variation-settings: normal; font-variant-position: normal; font-stretch: normal; font-size: 14px; line-height: normal; color: rgb(14, 14, 14); text-align: start;&quot; class=&quot;p1&quot;&gt;&lt;font face=&quot;Times New Roman&quot;&gt;Пользователь.Номер телефона&lt;/font&gt;&lt;/p&gt;" style="rounded=1;whiteSpace=wrap;html=1;fillColor=#b1ddf0;strokeColor=#10739e;" parent="1" vertex="1">
          <mxGeometry x="-5171" y="-323.25" width="190" height="21" as="geometry" />
        </mxCell>
        <mxCell id="2841olOFZ7QWBVNqE34i-739" value="&lt;p style=&quot;margin: 0px 0px 0px 13px; text-indent: -13px; font-variant-numeric: normal; font-variant-east-asian: normal; font-variant-alternates: normal; font-kerning: auto; font-optical-sizing: auto; font-feature-settings: normal; font-variation-settings: normal; font-variant-position: normal; font-stretch: normal; font-size: 14px; line-height: normal; color: rgb(14, 14, 14); text-align: start;&quot; class=&quot;p1&quot;&gt;&lt;font face=&quot;Times New Roman&quot;&gt;Пользователь.Активен&lt;/font&gt;&lt;/p&gt;" style="rounded=1;whiteSpace=wrap;html=1;fillColor=#b1ddf0;strokeColor=#10739e;" parent="1" vertex="1">
          <mxGeometry x="-5172" y="-419.25" width="147" height="21" as="geometry" />
        </mxCell>
        <mxCell id="2841olOFZ7QWBVNqE34i-740" value="&lt;p style=&quot;margin: 0px 0px 0px 13px; text-indent: -13px; font-variant-numeric: normal; font-variant-east-asian: normal; font-variant-alternates: normal; font-kerning: auto; font-optical-sizing: auto; font-feature-settings: normal; font-variation-settings: normal; font-variant-position: normal; font-stretch: normal; font-size: 14px; line-height: normal; color: rgb(14, 14, 14); text-align: start;&quot; class=&quot;p1&quot;&gt;&lt;font face=&quot;Times New Roman&quot;&gt;Пользователь.Электронная почта&lt;/font&gt;&lt;/p&gt;" style="rounded=1;whiteSpace=wrap;html=1;fillColor=#b1ddf0;strokeColor=#10739e;" parent="1" vertex="1">
          <mxGeometry x="-5171" y="-290.25" width="209" height="21" as="geometry" />
        </mxCell>
        <mxCell id="2841olOFZ7QWBVNqE34i-741" value="" style="rounded=1;whiteSpace=wrap;html=1;arcSize=3;movable=1;resizable=1;rotatable=1;deletable=1;editable=1;locked=0;connectable=1;fillColor=#dae8fc;strokeColor=#6c8ebf;strokeWidth=3;" parent="1" vertex="1">
          <mxGeometry x="-6969" y="126" width="962" height="614" as="geometry" />
        </mxCell>
        <mxCell id="2841olOFZ7QWBVNqE34i-742" value="" style="strokeWidth=2;html=1;shape=mxgraph.flowchart.database;whiteSpace=wrap;rounded=1;movable=1;resizable=1;rotatable=1;deletable=1;editable=1;locked=0;connectable=1;strokeColor=#CC0000;" parent="1" vertex="1">
          <mxGeometry x="-6566" y="168" width="396" height="551" as="geometry" />
        </mxCell>
        <mxCell id="2841olOFZ7QWBVNqE34i-743" value="" style="group" parent="1" vertex="1" connectable="0">
          <mxGeometry x="-6449" y="236" width="151" height="49" as="geometry" />
        </mxCell>
        <mxCell id="2841olOFZ7QWBVNqE34i-744" value="&lt;p style=&quot;margin: 0px 0px 0px 13px; text-indent: -13px; font-variant-numeric: normal; font-variant-east-asian: normal; font-variant-alternates: normal; font-kerning: auto; font-optical-sizing: auto; font-feature-settings: normal; font-variation-settings: normal; font-variant-position: normal; font-stretch: normal; font-size: 14px; line-height: normal; color: rgb(14, 14, 14); text-align: start;&quot; class=&quot;p1&quot;&gt;&lt;br&gt;&lt;/p&gt;" style="rounded=1;whiteSpace=wrap;html=1;fillColor=#FF77BF;strokeColor=none;arcSize=50;" parent="2841olOFZ7QWBVNqE34i-743" vertex="1">
          <mxGeometry y="9" width="151" height="33" as="geometry" />
        </mxCell>
        <mxCell id="2841olOFZ7QWBVNqE34i-745" value="&lt;font style=&quot;font-size: 18px;&quot;&gt;&lt;i&gt;PostgreSQL&lt;/i&gt;&lt;/font&gt;" style="text;html=1;align=center;verticalAlign=middle;whiteSpace=wrap;rounded=1;shadow=0;fontSize=23;fontStyle=1" parent="2841olOFZ7QWBVNqE34i-743" vertex="1">
          <mxGeometry x="31" width="89" height="49" as="geometry" />
        </mxCell>
        <mxCell id="2841olOFZ7QWBVNqE34i-746" value="&lt;span style=&quot;font-size: 48px;&quot;&gt;support platfotm&lt;/span&gt;" style="text;html=1;align=center;verticalAlign=middle;whiteSpace=wrap;rounded=1;shadow=0;fontSize=23;fontStyle=1" parent="1" vertex="1">
          <mxGeometry x="-6946" y="139" width="549" height="49" as="geometry" />
        </mxCell>
        <mxCell id="2841olOFZ7QWBVNqE34i-747" value="" style="group" parent="1" vertex="1" connectable="0">
          <mxGeometry x="-6899" y="263" width="309" height="39" as="geometry" />
        </mxCell>
        <mxCell id="2841olOFZ7QWBVNqE34i-748" value="" style="rounded=1;whiteSpace=wrap;html=1;fillColor=#1C57CD;strokeColor=none;" parent="2841olOFZ7QWBVNqE34i-747" vertex="1">
          <mxGeometry width="309" height="39" as="geometry" />
        </mxCell>
        <mxCell id="2841olOFZ7QWBVNqE34i-749" value="" style="sketch=0;outlineConnect=0;fontColor=#232F3E;gradientColor=none;fillColor=#FFFFFF;strokeColor=none;dashed=0;verticalLabelPosition=bottom;verticalAlign=top;align=center;html=1;fontSize=12;fontStyle=0;aspect=fixed;pointerEvents=1;shape=mxgraph.aws4.gear;rounded=1;" parent="2841olOFZ7QWBVNqE34i-747" vertex="1">
          <mxGeometry x="280" y="11" width="17" height="17" as="geometry" />
        </mxCell>
        <mxCell id="2841olOFZ7QWBVNqE34i-750" value="Регистрация заявки на техподдержку" style="text;html=1;align=center;verticalAlign=middle;whiteSpace=wrap;rounded=1;fontSize=13;fontColor=#FFFFFF;strokeColor=none;" parent="2841olOFZ7QWBVNqE34i-747" vertex="1">
          <mxGeometry x="4" y="4.5" width="249" height="30" as="geometry" />
        </mxCell>
        <mxCell id="2841olOFZ7QWBVNqE34i-751" value="" style="group" parent="1" vertex="1" connectable="0">
          <mxGeometry x="-6899" y="217" width="309" height="39" as="geometry" />
        </mxCell>
        <mxCell id="2841olOFZ7QWBVNqE34i-752" value="" style="rounded=1;whiteSpace=wrap;html=1;fillColor=#1C57CD;strokeColor=none;" parent="2841olOFZ7QWBVNqE34i-751" vertex="1">
          <mxGeometry width="309" height="39" as="geometry" />
        </mxCell>
        <mxCell id="2841olOFZ7QWBVNqE34i-753" value="" style="sketch=0;outlineConnect=0;fontColor=#232F3E;gradientColor=none;fillColor=#FFFFFF;strokeColor=none;dashed=0;verticalLabelPosition=bottom;verticalAlign=top;align=center;html=1;fontSize=12;fontStyle=0;aspect=fixed;pointerEvents=1;shape=mxgraph.aws4.gear;rounded=1;" parent="2841olOFZ7QWBVNqE34i-751" vertex="1">
          <mxGeometry x="280" y="11" width="17" height="17" as="geometry" />
        </mxCell>
        <mxCell id="2841olOFZ7QWBVNqE34i-754" value="Создать заявку на техподдержку" style="text;html=1;align=center;verticalAlign=middle;whiteSpace=wrap;rounded=1;fontSize=13;fontColor=#FFFFFF;strokeColor=none;" parent="2841olOFZ7QWBVNqE34i-751" vertex="1">
          <mxGeometry y="4.5" width="230" height="30" as="geometry" />
        </mxCell>
        <mxCell id="2841olOFZ7QWBVNqE34i-755" value="" style="group" parent="1" vertex="1" connectable="0">
          <mxGeometry x="-6899" y="359" width="309" height="39" as="geometry" />
        </mxCell>
        <mxCell id="2841olOFZ7QWBVNqE34i-756" value="" style="rounded=1;whiteSpace=wrap;html=1;fillColor=#1C57CD;strokeColor=none;" parent="2841olOFZ7QWBVNqE34i-755" vertex="1">
          <mxGeometry width="309" height="39" as="geometry" />
        </mxCell>
        <mxCell id="2841olOFZ7QWBVNqE34i-757" value="" style="sketch=0;outlineConnect=0;fontColor=#232F3E;gradientColor=none;fillColor=#FFFFFF;strokeColor=none;dashed=0;verticalLabelPosition=bottom;verticalAlign=top;align=center;html=1;fontSize=12;fontStyle=0;aspect=fixed;pointerEvents=1;shape=mxgraph.aws4.gear;rounded=1;" parent="2841olOFZ7QWBVNqE34i-755" vertex="1">
          <mxGeometry x="286" y="11" width="17" height="17" as="geometry" />
        </mxCell>
        <mxCell id="2841olOFZ7QWBVNqE34i-758" value="Фильтрация и сортировка результатов" style="text;html=1;align=center;verticalAlign=middle;whiteSpace=wrap;rounded=1;fontSize=13;fontColor=#FFFFFF;strokeColor=none;" parent="2841olOFZ7QWBVNqE34i-755" vertex="1">
          <mxGeometry x="5" y="4.5" width="248" height="30" as="geometry" />
        </mxCell>
        <mxCell id="2841olOFZ7QWBVNqE34i-759" value="" style="group" parent="1" vertex="1" connectable="0">
          <mxGeometry x="-6900" y="312" width="309" height="39" as="geometry" />
        </mxCell>
        <mxCell id="2841olOFZ7QWBVNqE34i-760" value="" style="rounded=1;whiteSpace=wrap;html=1;fillColor=#1C57CD;strokeColor=none;" parent="2841olOFZ7QWBVNqE34i-759" vertex="1">
          <mxGeometry width="309" height="39" as="geometry" />
        </mxCell>
        <mxCell id="2841olOFZ7QWBVNqE34i-761" value="" style="sketch=0;outlineConnect=0;fontColor=#232F3E;gradientColor=none;fillColor=#FFFFFF;strokeColor=none;dashed=0;verticalLabelPosition=bottom;verticalAlign=top;align=center;html=1;fontSize=12;fontStyle=0;aspect=fixed;pointerEvents=1;shape=mxgraph.aws4.gear;rounded=1;" parent="2841olOFZ7QWBVNqE34i-759" vertex="1">
          <mxGeometry x="280" y="11" width="17" height="17" as="geometry" />
        </mxCell>
        <mxCell id="2841olOFZ7QWBVNqE34i-762" value="Обновление статуса заявки" style="text;html=1;align=center;verticalAlign=middle;whiteSpace=wrap;rounded=1;fontSize=13;fontColor=#FFFFFF;strokeColor=none;" parent="2841olOFZ7QWBVNqE34i-759" vertex="1">
          <mxGeometry x="8" y="4" width="176" height="30" as="geometry" />
        </mxCell>
        <mxCell id="2841olOFZ7QWBVNqE34i-763" value="" style="group" parent="1" vertex="1" connectable="0">
          <mxGeometry x="-6903" y="554" width="309" height="75" as="geometry" />
        </mxCell>
        <mxCell id="2841olOFZ7QWBVNqE34i-764" value="" style="rounded=1;whiteSpace=wrap;html=1;fillColor=#1C57CD;strokeColor=none;" parent="2841olOFZ7QWBVNqE34i-763" vertex="1">
          <mxGeometry width="309" height="75" as="geometry" />
        </mxCell>
        <mxCell id="2841olOFZ7QWBVNqE34i-765" value="" style="sketch=0;outlineConnect=0;fontColor=#232F3E;gradientColor=none;fillColor=#FFFFFF;strokeColor=none;dashed=0;verticalLabelPosition=bottom;verticalAlign=top;align=center;html=1;fontSize=12;fontStyle=0;aspect=fixed;pointerEvents=1;shape=mxgraph.aws4.gear;rounded=1;" parent="2841olOFZ7QWBVNqE34i-763" vertex="1">
          <mxGeometry x="280" y="21.153846153846153" width="17" height="17" as="geometry" />
        </mxCell>
        <mxCell id="2841olOFZ7QWBVNqE34i-766" value="Обновление статуса заявки" style="text;html=1;align=center;verticalAlign=middle;whiteSpace=wrap;rounded=1;fontSize=13;fontColor=#FFFFFF;strokeColor=none;" parent="2841olOFZ7QWBVNqE34i-763" vertex="1">
          <mxGeometry x="8" y="7.6923076923076925" width="176" height="57.69230769230769" as="geometry" />
        </mxCell>
        <mxCell id="2841olOFZ7QWBVNqE34i-767" value="" style="group" parent="1" vertex="1" connectable="0">
          <mxGeometry x="-6902" y="507" width="309" height="39" as="geometry" />
        </mxCell>
        <mxCell id="2841olOFZ7QWBVNqE34i-768" value="" style="rounded=1;whiteSpace=wrap;html=1;fillColor=#1C57CD;strokeColor=none;" parent="2841olOFZ7QWBVNqE34i-767" vertex="1">
          <mxGeometry width="309" height="39" as="geometry" />
        </mxCell>
        <mxCell id="2841olOFZ7QWBVNqE34i-769" value="" style="sketch=0;outlineConnect=0;fontColor=#232F3E;gradientColor=none;fillColor=#FFFFFF;strokeColor=none;dashed=0;verticalLabelPosition=bottom;verticalAlign=top;align=center;html=1;fontSize=12;fontStyle=0;aspect=fixed;pointerEvents=1;shape=mxgraph.aws4.gear;rounded=1;" parent="2841olOFZ7QWBVNqE34i-767" vertex="1">
          <mxGeometry x="280" y="11" width="17" height="17" as="geometry" />
        </mxCell>
        <mxCell id="2841olOFZ7QWBVNqE34i-770" value="Обновить статус заявки на апелляцию" style="text;html=1;align=center;verticalAlign=middle;whiteSpace=wrap;rounded=1;fontSize=13;fontColor=#FFFFFF;strokeColor=none;" parent="2841olOFZ7QWBVNqE34i-767" vertex="1">
          <mxGeometry x="3" y="4.5" width="250" height="30" as="geometry" />
        </mxCell>
        <mxCell id="2841olOFZ7QWBVNqE34i-771" value="" style="group" parent="1" vertex="1" connectable="0">
          <mxGeometry x="-6902" y="462" width="309" height="39" as="geometry" />
        </mxCell>
        <mxCell id="2841olOFZ7QWBVNqE34i-772" value="" style="rounded=1;whiteSpace=wrap;html=1;fillColor=#1C57CD;strokeColor=none;" parent="2841olOFZ7QWBVNqE34i-771" vertex="1">
          <mxGeometry width="309" height="39" as="geometry" />
        </mxCell>
        <mxCell id="2841olOFZ7QWBVNqE34i-773" value="" style="sketch=0;outlineConnect=0;fontColor=#232F3E;gradientColor=none;fillColor=#FFFFFF;strokeColor=none;dashed=0;verticalLabelPosition=bottom;verticalAlign=top;align=center;html=1;fontSize=12;fontStyle=0;aspect=fixed;pointerEvents=1;shape=mxgraph.aws4.gear;rounded=1;" parent="2841olOFZ7QWBVNqE34i-771" vertex="1">
          <mxGeometry x="280" y="11" width="17" height="17" as="geometry" />
        </mxCell>
        <mxCell id="2841olOFZ7QWBVNqE34i-774" value="Регистрация заявки на апелляцию" style="text;html=1;align=center;verticalAlign=middle;whiteSpace=wrap;rounded=1;fontSize=13;fontColor=#FFFFFF;strokeColor=none;" parent="2841olOFZ7QWBVNqE34i-771" vertex="1">
          <mxGeometry x="1" y="4.5" width="227" height="30" as="geometry" />
        </mxCell>
        <mxCell id="2841olOFZ7QWBVNqE34i-775" value="" style="group" parent="1" vertex="1" connectable="0">
          <mxGeometry x="-6902" y="415" width="309" height="39" as="geometry" />
        </mxCell>
        <mxCell id="2841olOFZ7QWBVNqE34i-776" value="" style="rounded=1;whiteSpace=wrap;html=1;fillColor=#1C57CD;strokeColor=none;" parent="2841olOFZ7QWBVNqE34i-775" vertex="1">
          <mxGeometry width="309" height="39" as="geometry" />
        </mxCell>
        <mxCell id="2841olOFZ7QWBVNqE34i-777" value="" style="sketch=0;outlineConnect=0;fontColor=#232F3E;gradientColor=none;fillColor=#FFFFFF;strokeColor=none;dashed=0;verticalLabelPosition=bottom;verticalAlign=top;align=center;html=1;fontSize=12;fontStyle=0;aspect=fixed;pointerEvents=1;shape=mxgraph.aws4.gear;rounded=1;" parent="2841olOFZ7QWBVNqE34i-775" vertex="1">
          <mxGeometry x="280" y="11" width="17" height="17" as="geometry" />
        </mxCell>
        <mxCell id="2841olOFZ7QWBVNqE34i-778" value="Создать заявку на апелляцию&amp;nbsp;" style="text;html=1;align=center;verticalAlign=middle;whiteSpace=wrap;rounded=1;fontSize=13;fontColor=#FFFFFF;strokeColor=none;" parent="2841olOFZ7QWBVNqE34i-775" vertex="1">
          <mxGeometry x="4" y="4.5" width="202" height="30" as="geometry" />
        </mxCell>
        <mxCell id="2841olOFZ7QWBVNqE34i-779" value="&lt;p style=&quot;margin: 0px 0px 0px 13px; text-indent: -13px; font-variant-numeric: normal; font-variant-east-asian: normal; font-variant-alternates: normal; font-kerning: auto; font-optical-sizing: auto; font-feature-settings: normal; font-variation-settings: normal; font-variant-position: normal; font-stretch: normal; font-size: 14px; line-height: normal; color: rgb(14, 14, 14); text-align: start;&quot; class=&quot;p1&quot;&gt;&lt;font face=&quot;Times New Roman&quot;&gt;Заявка. ID&lt;/font&gt;&lt;/p&gt;" style="rounded=1;whiteSpace=wrap;html=1;fillColor=#b1ddf0;strokeColor=#CC0000;strokeWidth=2;" parent="1" vertex="1">
          <mxGeometry x="-6534" y="392" width="119" height="21" as="geometry" />
        </mxCell>
        <mxCell id="2841olOFZ7QWBVNqE34i-780" value="&lt;p style=&quot;margin: 0px 0px 0px 13px; text-indent: -13px; font-variant-numeric: normal; font-variant-east-asian: normal; font-variant-alternates: normal; font-kerning: auto; font-optical-sizing: auto; font-feature-settings: normal; font-variation-settings: normal; font-variant-position: normal; font-stretch: normal; font-size: 14px; line-height: normal; color: rgb(14, 14, 14); text-align: start;&quot; class=&quot;p1&quot;&gt;&lt;font face=&quot;Times New Roman&quot;&gt;Заявка. Наименование&lt;/font&gt;&lt;/p&gt;" style="rounded=1;whiteSpace=wrap;html=1;fillColor=#b1ddf0;strokeColor=#CC0000;strokeWidth=2;" parent="1" vertex="1">
          <mxGeometry x="-6536" y="428" width="155" height="21" as="geometry" />
        </mxCell>
        <mxCell id="2841olOFZ7QWBVNqE34i-781" value="&lt;p style=&quot;margin: 0px 0px 0px 13px; text-indent: -13px; font-variant-numeric: normal; font-variant-east-asian: normal; font-variant-alternates: normal; font-kerning: auto; font-optical-sizing: auto; font-feature-settings: normal; font-variation-settings: normal; font-variant-position: normal; font-stretch: normal; font-size: 14px; line-height: normal; color: rgb(14, 14, 14); text-align: start;&quot; class=&quot;p1&quot;&gt;&lt;font face=&quot;Times New Roman&quot;&gt;Заявка. Описание&lt;/font&gt;&lt;/p&gt;" style="rounded=1;whiteSpace=wrap;html=1;fillColor=#b1ddf0;strokeColor=#CC0000;strokeWidth=2;" parent="1" vertex="1">
          <mxGeometry x="-6534" y="464" width="119" height="21" as="geometry" />
        </mxCell>
        <mxCell id="2841olOFZ7QWBVNqE34i-782" value="&lt;p style=&quot;margin: 0px 0px 0px 13px; text-indent: -13px; font-variant-numeric: normal; font-variant-east-asian: normal; font-variant-alternates: normal; font-kerning: auto; font-optical-sizing: auto; font-feature-settings: normal; font-variation-settings: normal; font-variant-position: normal; font-stretch: normal; font-size: 14px; line-height: normal; color: rgb(14, 14, 14); text-align: start;&quot; class=&quot;p1&quot;&gt;&lt;font face=&quot;Times New Roman&quot;&gt;Заявка. ID аукциона/товара&lt;/font&gt;&lt;/p&gt;" style="rounded=1;whiteSpace=wrap;html=1;fillColor=#b1ddf0;strokeColor=#CC0000;strokeWidth=2;" parent="1" vertex="1">
          <mxGeometry x="-6384" y="463" width="186" height="21" as="geometry" />
        </mxCell>
        <mxCell id="2841olOFZ7QWBVNqE34i-783" value="&lt;p style=&quot;margin: 0px 0px 0px 13px; text-indent: -13px; font-variant-numeric: normal; font-variant-east-asian: normal; font-variant-alternates: normal; font-kerning: auto; font-optical-sizing: auto; font-feature-settings: normal; font-variation-settings: normal; font-variant-position: normal; font-stretch: normal; font-size: 14px; line-height: normal; color: rgb(14, 14, 14); text-align: start;&quot; class=&quot;p1&quot;&gt;&lt;font face=&quot;Times New Roman&quot;&gt;Заявка. Тип&lt;/font&gt;&lt;/p&gt;" style="rounded=1;whiteSpace=wrap;html=1;fillColor=#b1ddf0;strokeColor=#CC0000;strokeWidth=2;" parent="1" vertex="1">
          <mxGeometry x="-6345" y="427" width="119" height="21" as="geometry" />
        </mxCell>
        <mxCell id="2841olOFZ7QWBVNqE34i-784" value="&lt;p style=&quot;margin: 0px 0px 0px 13px; text-indent: -13px; font-variant-numeric: normal; font-variant-east-asian: normal; font-variant-alternates: normal; font-kerning: auto; font-optical-sizing: auto; font-feature-settings: normal; font-variation-settings: normal; font-variant-position: normal; font-stretch: normal; font-size: 14px; line-height: normal; color: rgb(14, 14, 14); text-align: start;&quot; class=&quot;p1&quot;&gt;&lt;font face=&quot;Times New Roman&quot;&gt;Заявка. Статус&lt;/font&gt;&lt;/p&gt;" style="rounded=1;whiteSpace=wrap;html=1;fillColor=#b1ddf0;strokeColor=#CC0000;strokeWidth=2;" parent="1" vertex="1">
          <mxGeometry x="-6536" y="508" width="119" height="21" as="geometry" />
        </mxCell>
        <mxCell id="2841olOFZ7QWBVNqE34i-785" value="&lt;p style=&quot;margin: 0px 0px 0px 13px; text-indent: -13px; font-variant-numeric: normal; font-variant-east-asian: normal; font-variant-alternates: normal; font-kerning: auto; font-optical-sizing: auto; font-feature-settings: normal; font-variation-settings: normal; font-variant-position: normal; font-stretch: normal; font-size: 14px; line-height: normal; color: rgb(14, 14, 14); text-align: start;&quot; class=&quot;p1&quot;&gt;&lt;font face=&quot;Times New Roman&quot;&gt;Заявка. Исполнитель&lt;/font&gt;&lt;/p&gt;" style="rounded=1;whiteSpace=wrap;html=1;fillColor=#b1ddf0;strokeColor=#CC0000;strokeWidth=2;" parent="1" vertex="1">
          <mxGeometry x="-6374" y="512" width="141" height="21" as="geometry" />
        </mxCell>
        <mxCell id="2841olOFZ7QWBVNqE34i-786" value="&lt;p style=&quot;margin: 0px 0px 0px 13px; text-indent: -13px; font-variant-numeric: normal; font-variant-east-asian: normal; font-variant-alternates: normal; font-kerning: auto; font-optical-sizing: auto; font-feature-settings: normal; font-variation-settings: normal; font-variant-position: normal; font-stretch: normal; font-size: 14px; line-height: normal; color: rgb(14, 14, 14); text-align: start;&quot; class=&quot;p1&quot;&gt;&lt;font face=&quot;Times New Roman&quot;&gt;Заявка. ID&lt;/font&gt;&lt;/p&gt;" style="rounded=1;whiteSpace=wrap;html=1;fillColor=#b1ddf0;strokeColor=#CC0000;strokeWidth=2;" parent="1" vertex="1">
          <mxGeometry x="-6534" y="391" width="119" height="21" as="geometry" />
        </mxCell>
        <mxCell id="2841olOFZ7QWBVNqE34i-787" value="&lt;p style=&quot;margin: 0px 0px 0px 13px; text-indent: -13px; font-variant-numeric: normal; font-variant-east-asian: normal; font-variant-alternates: normal; font-kerning: auto; font-optical-sizing: auto; font-feature-settings: normal; font-variation-settings: normal; font-variant-position: normal; font-stretch: normal; font-size: 14px; line-height: normal; color: rgb(14, 14, 14); text-align: start;&quot; class=&quot;p1&quot;&gt;&lt;font face=&quot;Times New Roman&quot;&gt;Заявка. Наименование&lt;/font&gt;&lt;/p&gt;" style="rounded=1;whiteSpace=wrap;html=1;fillColor=#b1ddf0;strokeColor=#CC0000;strokeWidth=2;" parent="1" vertex="1">
          <mxGeometry x="-6536" y="427" width="155" height="21" as="geometry" />
        </mxCell>
        <mxCell id="2841olOFZ7QWBVNqE34i-788" value="&lt;p style=&quot;margin: 0px 0px 0px 13px; text-indent: -13px; font-variant-numeric: normal; font-variant-east-asian: normal; font-variant-alternates: normal; font-kerning: auto; font-optical-sizing: auto; font-feature-settings: normal; font-variation-settings: normal; font-variant-position: normal; font-stretch: normal; font-size: 14px; line-height: normal; color: rgb(14, 14, 14); text-align: start;&quot; class=&quot;p1&quot;&gt;&lt;font face=&quot;Times New Roman&quot;&gt;Заявка. Описание&lt;/font&gt;&lt;/p&gt;" style="rounded=1;whiteSpace=wrap;html=1;fillColor=#b1ddf0;strokeColor=#CC0000;strokeWidth=2;" parent="1" vertex="1">
          <mxGeometry x="-6534" y="463" width="119" height="21" as="geometry" />
        </mxCell>
        <mxCell id="2841olOFZ7QWBVNqE34i-789" value="&lt;p style=&quot;margin: 0px 0px 0px 13px; text-indent: -13px; font-variant-numeric: normal; font-variant-east-asian: normal; font-variant-alternates: normal; font-kerning: auto; font-optical-sizing: auto; font-feature-settings: normal; font-variation-settings: normal; font-variant-position: normal; font-stretch: normal; font-size: 14px; line-height: normal; color: rgb(14, 14, 14); text-align: start;&quot; class=&quot;p1&quot;&gt;&lt;font face=&quot;Times New Roman&quot;&gt;Заявка. Статус&lt;/font&gt;&lt;/p&gt;" style="rounded=1;whiteSpace=wrap;html=1;fillColor=#b1ddf0;strokeColor=#CC0000;strokeWidth=2;" parent="1" vertex="1">
          <mxGeometry x="-6536" y="507" width="119" height="21" as="geometry" />
        </mxCell>
        <mxCell id="2841olOFZ7QWBVNqE34i-790" value="&lt;p style=&quot;margin: 0px 0px 0px 13px; text-indent: -13px; font-variant-numeric: normal; font-variant-east-asian: normal; font-variant-alternates: normal; font-kerning: auto; font-optical-sizing: auto; font-feature-settings: normal; font-variation-settings: normal; font-variant-position: normal; font-stretch: normal; font-size: 14px; line-height: normal; color: rgb(14, 14, 14); text-align: start;&quot; class=&quot;p1&quot;&gt;&lt;font face=&quot;Times New Roman&quot;&gt;Заявка. Тип&lt;/font&gt;&lt;/p&gt;" style="rounded=1;whiteSpace=wrap;html=1;fillColor=#b1ddf0;strokeColor=#CC0000;strokeWidth=2;" parent="1" vertex="1">
          <mxGeometry x="-6345" y="426" width="119" height="21" as="geometry" />
        </mxCell>
        <mxCell id="2841olOFZ7QWBVNqE34i-791" value="&lt;p style=&quot;margin: 0px 0px 0px 13px; text-indent: -13px; font-variant-numeric: normal; font-variant-east-asian: normal; font-variant-alternates: normal; font-kerning: auto; font-optical-sizing: auto; font-feature-settings: normal; font-variation-settings: normal; font-variant-position: normal; font-stretch: normal; font-size: 14px; line-height: normal; color: rgb(14, 14, 14); text-align: start;&quot; class=&quot;p1&quot;&gt;&lt;font face=&quot;Times New Roman&quot;&gt;Заявка. ID аукциона/товара&lt;/font&gt;&lt;/p&gt;" style="rounded=1;whiteSpace=wrap;html=1;fillColor=#b1ddf0;strokeColor=#CC0000;strokeWidth=2;" parent="1" vertex="1">
          <mxGeometry x="-6384" y="462" width="186" height="21" as="geometry" />
        </mxCell>
        <mxCell id="2841olOFZ7QWBVNqE34i-795" value="&lt;p style=&quot;margin: 0px 0px 0px 13px; text-indent: -13px; font-variant-numeric: normal; font-variant-east-asian: normal; font-variant-alternates: normal; font-kerning: auto; font-optical-sizing: auto; font-feature-settings: normal; font-variation-settings: normal; font-variant-position: normal; font-stretch: normal; font-size: 14px; line-height: normal; color: rgb(14, 14, 14); text-align: start;&quot; class=&quot;p1&quot;&gt;&lt;font face=&quot;Times New Roman&quot;&gt;Пользователь.ID&lt;/font&gt;&lt;/p&gt;" style="rounded=1;whiteSpace=wrap;html=1;fillColor=#b1ddf0;strokeColor=#10739e;" parent="1" vertex="1">
          <mxGeometry x="-5448" y="2921" width="151" height="21" as="geometry" />
        </mxCell>
        <mxCell id="2841olOFZ7QWBVNqE34i-797" value="" style="group" parent="1" vertex="1" connectable="0">
          <mxGeometry x="-5174.5" y="312" width="309" height="39" as="geometry" />
        </mxCell>
        <mxCell id="2841olOFZ7QWBVNqE34i-798" value="" style="rounded=1;whiteSpace=wrap;html=1;fillColor=#1C57CD;strokeColor=none;" parent="2841olOFZ7QWBVNqE34i-797" vertex="1">
          <mxGeometry width="309" height="39" as="geometry" />
        </mxCell>
        <mxCell id="2841olOFZ7QWBVNqE34i-799" value="" style="sketch=0;outlineConnect=0;fontColor=#232F3E;gradientColor=none;fillColor=#FFFFFF;strokeColor=none;dashed=0;verticalLabelPosition=bottom;verticalAlign=top;align=center;html=1;fontSize=12;fontStyle=0;aspect=fixed;pointerEvents=1;shape=mxgraph.aws4.gear;rounded=1;" parent="2841olOFZ7QWBVNqE34i-797" vertex="1">
          <mxGeometry x="286" y="11" width="17" height="17" as="geometry" />
        </mxCell>
        <mxCell id="2841olOFZ7QWBVNqE34i-800" value="Сгенерировать отчёт по продажам" style="text;html=1;align=center;verticalAlign=middle;whiteSpace=wrap;rounded=1;fontSize=13;fontColor=#FFFFFF;strokeColor=none;" parent="2841olOFZ7QWBVNqE34i-797" vertex="1">
          <mxGeometry x="6" y="4.5" width="226" height="30" as="geometry" />
        </mxCell>
        <mxCell id="2841olOFZ7QWBVNqE34i-801" value="" style="group" parent="1" vertex="1" connectable="0">
          <mxGeometry x="-6899" y="634.5" width="309" height="39" as="geometry" />
        </mxCell>
        <mxCell id="2841olOFZ7QWBVNqE34i-802" value="" style="rounded=1;whiteSpace=wrap;html=1;fillColor=#1C57CD;strokeColor=none;" parent="2841olOFZ7QWBVNqE34i-801" vertex="1">
          <mxGeometry width="309" height="39" as="geometry" />
        </mxCell>
        <mxCell id="2841olOFZ7QWBVNqE34i-803" value="" style="sketch=0;outlineConnect=0;fontColor=#232F3E;gradientColor=none;fillColor=#FFFFFF;strokeColor=none;dashed=0;verticalLabelPosition=bottom;verticalAlign=top;align=center;html=1;fontSize=12;fontStyle=0;aspect=fixed;pointerEvents=1;shape=mxgraph.aws4.gear;rounded=1;" parent="2841olOFZ7QWBVNqE34i-801" vertex="1">
          <mxGeometry x="280" y="11" width="17" height="17" as="geometry" />
        </mxCell>
        <mxCell id="2841olOFZ7QWBVNqE34i-804" value="Сгенерировать отчёт активности пользователей" style="text;html=1;align=center;verticalAlign=middle;whiteSpace=wrap;rounded=1;fontSize=13;fontColor=#FFFFFF;strokeColor=none;" parent="2841olOFZ7QWBVNqE34i-801" vertex="1">
          <mxGeometry x="5" y="6" width="215" height="30" as="geometry" />
        </mxCell>
        <mxCell id="2841olOFZ7QWBVNqE34i-805" value="Разместить заказ" style="text;html=1;align=center;verticalAlign=middle;whiteSpace=wrap;rounded=1;fontSize=13;fontColor=#FFFFFF;" parent="1" vertex="1">
          <mxGeometry x="-6383" y="820.25" width="117" height="30" as="geometry" />
        </mxCell>
        <mxCell id="2841olOFZ7QWBVNqE34i-807" value="" style="strokeWidth=2;html=1;shape=mxgraph.flowchart.database;whiteSpace=wrap;rounded=1;movable=1;resizable=1;rotatable=1;deletable=1;editable=1;locked=0;connectable=1;" parent="1" vertex="1">
          <mxGeometry x="-4814.5" y="199" width="396" height="551" as="geometry" />
        </mxCell>
        <mxCell id="2841olOFZ7QWBVNqE34i-808" value="" style="group" parent="1" vertex="1" connectable="0">
          <mxGeometry x="-4698.5" y="263" width="151" height="49" as="geometry" />
        </mxCell>
        <mxCell id="2841olOFZ7QWBVNqE34i-809" value="&lt;p style=&quot;margin: 0px 0px 0px 13px; text-indent: -13px; font-variant-numeric: normal; font-variant-east-asian: normal; font-variant-alternates: normal; font-kerning: auto; font-optical-sizing: auto; font-feature-settings: normal; font-variation-settings: normal; font-variant-position: normal; font-stretch: normal; font-size: 14px; line-height: normal; color: rgb(14, 14, 14); text-align: start;&quot; class=&quot;p1&quot;&gt;&lt;br&gt;&lt;/p&gt;" style="rounded=1;whiteSpace=wrap;html=1;fillColor=#FF77BF;strokeColor=none;arcSize=50;" parent="2841olOFZ7QWBVNqE34i-808" vertex="1">
          <mxGeometry y="9" width="151" height="33" as="geometry" />
        </mxCell>
        <mxCell id="2841olOFZ7QWBVNqE34i-810" value="&lt;font style=&quot;font-size: 18px;&quot;&gt;&lt;i&gt;PostgreSQL&lt;/i&gt;&lt;/font&gt;" style="text;html=1;align=center;verticalAlign=middle;whiteSpace=wrap;rounded=1;shadow=0;fontSize=23;fontStyle=1" parent="2841olOFZ7QWBVNqE34i-808" vertex="1">
          <mxGeometry x="31" width="89" height="49" as="geometry" />
        </mxCell>
        <mxCell id="2841olOFZ7QWBVNqE34i-811" value="&lt;font style=&quot;font-size: 48px;&quot;&gt;profile&lt;/font&gt;" style="text;html=1;align=center;verticalAlign=middle;whiteSpace=wrap;rounded=1;shadow=0;fontSize=23;fontStyle=1" parent="1" vertex="1">
          <mxGeometry x="-5190.5" y="160" width="549" height="49" as="geometry" />
        </mxCell>
        <mxCell id="2841olOFZ7QWBVNqE34i-825" value="" style="group" parent="1" vertex="1" connectable="0">
          <mxGeometry x="-5174.5" y="263" width="309" height="39" as="geometry" />
        </mxCell>
        <mxCell id="2841olOFZ7QWBVNqE34i-826" value="" style="rounded=1;whiteSpace=wrap;html=1;fillColor=#1C57CD;strokeColor=none;" parent="2841olOFZ7QWBVNqE34i-825" vertex="1">
          <mxGeometry width="309" height="39" as="geometry" />
        </mxCell>
        <mxCell id="2841olOFZ7QWBVNqE34i-827" value="" style="sketch=0;outlineConnect=0;fontColor=#232F3E;gradientColor=none;fillColor=default;strokeColor=none;dashed=0;verticalLabelPosition=bottom;verticalAlign=top;align=center;html=1;fontSize=12;fontStyle=0;aspect=fixed;pointerEvents=1;shape=mxgraph.aws4.gear;rounded=1;" parent="2841olOFZ7QWBVNqE34i-825" vertex="1">
          <mxGeometry x="280" y="11" width="17" height="17" as="geometry" />
        </mxCell>
        <mxCell id="2841olOFZ7QWBVNqE34i-828" value="Нотификация нового пользователя" style="text;html=1;align=center;verticalAlign=middle;whiteSpace=wrap;rounded=1;fontSize=13;fontColor=#FFFFFF;strokeColor=none;" parent="2841olOFZ7QWBVNqE34i-825" vertex="1">
          <mxGeometry x="3" y="4.5" width="227" height="30" as="geometry" />
        </mxCell>
        <mxCell id="2841olOFZ7QWBVNqE34i-834" value="&lt;p style=&quot;margin: 0px 0px 0px 13px; text-indent: -13px; font-variant-numeric: normal; font-variant-east-asian: normal; font-variant-alternates: normal; font-kerning: auto; font-optical-sizing: auto; font-feature-settings: normal; font-variation-settings: normal; font-variant-position: normal; font-stretch: normal; font-size: 14px; line-height: normal; color: rgb(14, 14, 14); text-align: start;&quot; class=&quot;p1&quot;&gt;&lt;font face=&quot;Times New Roman&quot;&gt;Пользователь.Роль&lt;/font&gt;&lt;/p&gt;" style="rounded=1;whiteSpace=wrap;html=1;fillColor=#b1ddf0;strokeColor=#10739e;" parent="1" vertex="1">
          <mxGeometry x="-4786.5" y="508.5" width="151" height="21" as="geometry" />
        </mxCell>
        <mxCell id="2841olOFZ7QWBVNqE34i-835" value="&lt;p style=&quot;margin: 0px 0px 0px 13px; text-indent: -13px; font-variant-numeric: normal; font-variant-east-asian: normal; font-variant-alternates: normal; font-kerning: auto; font-optical-sizing: auto; font-feature-settings: normal; font-variation-settings: normal; font-variant-position: normal; font-stretch: normal; font-size: 14px; line-height: normal; color: rgb(14, 14, 14); text-align: start;&quot; class=&quot;p1&quot;&gt;&lt;font face=&quot;Times New Roman&quot;&gt;Пользователь.ID&lt;/font&gt;&lt;/p&gt;" style="rounded=1;whiteSpace=wrap;html=1;fillColor=#b1ddf0;strokeColor=#10739e;" parent="1" vertex="1">
          <mxGeometry x="-4786.5" y="536.5" width="151" height="21" as="geometry" />
        </mxCell>
        <mxCell id="2841olOFZ7QWBVNqE34i-836" value="&lt;p style=&quot;margin: 0px 0px 0px 13px; text-indent: -13px; font-variant-numeric: normal; font-variant-east-asian: normal; font-variant-alternates: normal; font-kerning: auto; font-optical-sizing: auto; font-feature-settings: normal; font-variation-settings: normal; font-variant-position: normal; font-stretch: normal; font-size: 14px; line-height: normal; color: rgb(14, 14, 14); text-align: start;&quot; class=&quot;p1&quot;&gt;&lt;font face=&quot;Times New Roman&quot;&gt;Пользователь.Имя&lt;/font&gt;&lt;/p&gt;" style="rounded=1;whiteSpace=wrap;html=1;fillColor=#b1ddf0;strokeColor=#10739e;" parent="1" vertex="1">
          <mxGeometry x="-4783.5" y="416" width="119" height="21" as="geometry" />
        </mxCell>
        <mxCell id="2841olOFZ7QWBVNqE34i-837" value="&lt;p style=&quot;margin: 0px 0px 0px 13px; text-indent: -13px; font-variant-numeric: normal; font-variant-east-asian: normal; font-variant-alternates: normal; font-kerning: auto; font-optical-sizing: auto; font-feature-settings: normal; font-variation-settings: normal; font-variant-position: normal; font-stretch: normal; font-size: 14px; line-height: normal; color: rgb(14, 14, 14); text-align: start;&quot; class=&quot;p1&quot;&gt;&lt;font face=&quot;Times New Roman&quot;&gt;Пользователь.Фамилия&lt;/font&gt;&lt;/p&gt;" style="rounded=1;whiteSpace=wrap;html=1;fillColor=#b1ddf0;strokeColor=#10739e;" parent="1" vertex="1">
          <mxGeometry x="-4605.5" y="481" width="151" height="21" as="geometry" />
        </mxCell>
        <mxCell id="2841olOFZ7QWBVNqE34i-838" value="&lt;p style=&quot;margin: 0px 0px 0px 13px; text-indent: -13px; font-variant-numeric: normal; font-variant-east-asian: normal; font-variant-alternates: normal; font-kerning: auto; font-optical-sizing: auto; font-feature-settings: normal; font-variation-settings: normal; font-variant-position: normal; font-stretch: normal; font-size: 14px; line-height: normal; color: rgb(14, 14, 14); text-align: start;&quot; class=&quot;p1&quot;&gt;&lt;font face=&quot;Times New Roman&quot;&gt;Пользователь.Адрес&lt;/font&gt;&lt;/p&gt;" style="rounded=1;whiteSpace=wrap;html=1;fillColor=#b1ddf0;strokeColor=#10739e;" parent="1" vertex="1">
          <mxGeometry x="-4605.5" y="511" width="130" height="21" as="geometry" />
        </mxCell>
        <mxCell id="2841olOFZ7QWBVNqE34i-839" value="&lt;p style=&quot;margin: 0px 0px 0px 13px; text-indent: -13px; font-variant-numeric: normal; font-variant-east-asian: normal; font-variant-alternates: normal; font-kerning: auto; font-optical-sizing: auto; font-feature-settings: normal; font-variation-settings: normal; font-variant-position: normal; font-stretch: normal; font-size: 14px; line-height: normal; color: rgb(14, 14, 14); text-align: start;&quot; class=&quot;p1&quot;&gt;&lt;font face=&quot;Times New Roman&quot;&gt;Пользователь.Дата регистрации&lt;/font&gt;&lt;/p&gt;" style="rounded=1;whiteSpace=wrap;html=1;fillColor=#b1ddf0;strokeColor=#10739e;" parent="1" vertex="1">
          <mxGeometry x="-4784.5" y="446" width="199" height="21" as="geometry" />
        </mxCell>
        <mxCell id="2841olOFZ7QWBVNqE34i-840" value="&lt;p style=&quot;margin: 0px 0px 0px 13px; text-indent: -13px; font-variant-numeric: normal; font-variant-east-asian: normal; font-variant-alternates: normal; font-kerning: auto; font-optical-sizing: auto; font-feature-settings: normal; font-variation-settings: normal; font-variant-position: normal; font-stretch: normal; font-size: 14px; line-height: normal; color: rgb(14, 14, 14); text-align: start;&quot; class=&quot;p1&quot;&gt;&lt;font face=&quot;Times New Roman&quot;&gt;Пользователь.Статус&lt;/font&gt;&lt;/p&gt;" style="rounded=1;whiteSpace=wrap;html=1;fillColor=#b1ddf0;strokeColor=#10739e;" parent="1" vertex="1">
          <mxGeometry x="-4606.5" y="540" width="136" height="21" as="geometry" />
        </mxCell>
        <mxCell id="2841olOFZ7QWBVNqE34i-841" value="&lt;p style=&quot;margin: 0px 0px 0px 13px; text-indent: -13px; font-variant-numeric: normal; font-variant-east-asian: normal; font-variant-alternates: normal; font-kerning: auto; font-optical-sizing: auto; font-feature-settings: normal; font-variation-settings: normal; font-variant-position: normal; font-stretch: normal; font-size: 14px; line-height: normal; color: rgb(14, 14, 14); text-align: start;&quot; class=&quot;p1&quot;&gt;&lt;font face=&quot;Times New Roman&quot;&gt;Пользователь.Номер телефона&lt;/font&gt;&lt;/p&gt;" style="rounded=1;whiteSpace=wrap;html=1;fillColor=#b1ddf0;strokeColor=#10739e;" parent="1" vertex="1">
          <mxGeometry x="-4786.5" y="572" width="190" height="21" as="geometry" />
        </mxCell>
        <mxCell id="2841olOFZ7QWBVNqE34i-842" value="&lt;p style=&quot;margin: 0px 0px 0px 13px; text-indent: -13px; font-variant-numeric: normal; font-variant-east-asian: normal; font-variant-alternates: normal; font-kerning: auto; font-optical-sizing: auto; font-feature-settings: normal; font-variation-settings: normal; font-variant-position: normal; font-stretch: normal; font-size: 14px; line-height: normal; color: rgb(14, 14, 14); text-align: start;&quot; class=&quot;p1&quot;&gt;&lt;font face=&quot;Times New Roman&quot;&gt;Пользователь.Активен&lt;/font&gt;&lt;/p&gt;" style="rounded=1;whiteSpace=wrap;html=1;fillColor=#b1ddf0;strokeColor=#10739e;" parent="1" vertex="1">
          <mxGeometry x="-4787.5" y="476" width="147" height="21" as="geometry" />
        </mxCell>
        <mxCell id="2841olOFZ7QWBVNqE34i-843" value="&lt;p style=&quot;margin: 0px 0px 0px 13px; text-indent: -13px; font-variant-numeric: normal; font-variant-east-asian: normal; font-variant-alternates: normal; font-kerning: auto; font-optical-sizing: auto; font-feature-settings: normal; font-variation-settings: normal; font-variant-position: normal; font-stretch: normal; font-size: 14px; line-height: normal; color: rgb(14, 14, 14); text-align: start;&quot; class=&quot;p1&quot;&gt;&lt;font face=&quot;Times New Roman&quot;&gt;Пользователь.Электронная почта&lt;/font&gt;&lt;/p&gt;" style="rounded=1;whiteSpace=wrap;html=1;fillColor=#b1ddf0;strokeColor=#10739e;" parent="1" vertex="1">
          <mxGeometry x="-4786.5" y="605" width="209" height="21" as="geometry" />
        </mxCell>
        <mxCell id="2841olOFZ7QWBVNqE34i-937" value="" style="group" parent="1" vertex="1" connectable="0">
          <mxGeometry x="-4854.5" y="-1223" width="155" height="49" as="geometry" />
        </mxCell>
        <mxCell id="2841olOFZ7QWBVNqE34i-938" value="&lt;p style=&quot;margin: 0px 0px 0px 13px; text-indent: -13px; font-variant-numeric: normal; font-variant-east-asian: normal; font-variant-alternates: normal; font-kerning: auto; font-optical-sizing: auto; font-feature-settings: normal; font-variation-settings: normal; font-variant-position: normal; font-stretch: normal; font-size: 14px; line-height: normal; color: rgb(14, 14, 14); text-align: start;&quot; class=&quot;p1&quot;&gt;&lt;br&gt;&lt;/p&gt;" style="rounded=1;whiteSpace=wrap;html=1;fillColor=#FF77BF;strokeColor=none;arcSize=33;" parent="2841olOFZ7QWBVNqE34i-937" vertex="1">
          <mxGeometry y="13" width="155" height="34" as="geometry" />
        </mxCell>
        <mxCell id="2841olOFZ7QWBVNqE34i-939" value="&lt;font style=&quot;font-size: 18px;&quot;&gt;&lt;i&gt;React/HTML/CSS&lt;/i&gt;&lt;/font&gt;" style="text;html=1;align=center;verticalAlign=middle;whiteSpace=wrap;rounded=1;shadow=0;fontSize=23;fontStyle=1" parent="2841olOFZ7QWBVNqE34i-937" vertex="1">
          <mxGeometry x="29" width="89" height="49" as="geometry" />
        </mxCell>
        <mxCell id="2841olOFZ7QWBVNqE34i-940" value="WAN" style="text;html=1;align=center;verticalAlign=middle;whiteSpace=wrap;rounded=1;shadow=0;fontSize=23;fontStyle=1" parent="1" vertex="1">
          <mxGeometry x="-5585.5" y="-1620" width="85" height="49" as="geometry" />
        </mxCell>
        <mxCell id="2841olOFZ7QWBVNqE34i-941" value="LAN" style="text;html=1;align=center;verticalAlign=middle;whiteSpace=wrap;rounded=1;shadow=0;fontSize=23;fontStyle=1" parent="1" vertex="1">
          <mxGeometry x="-5585.5" y="-1220" width="85" height="49" as="geometry" />
        </mxCell>
        <mxCell id="2841olOFZ7QWBVNqE34i-942" value="" style="rounded=1;whiteSpace=wrap;html=1;arcSize=3;fillColor=#f5f5f5;strokeColor=#1C57CD;strokeWidth=3;align=center;verticalAlign=middle;fontFamily=Helvetica;fontSize=12;fontColor=#333333;resizable=1;" parent="1" vertex="1">
          <mxGeometry x="-5261.5" y="-1178" width="650" height="210" as="geometry" />
        </mxCell>
        <mxCell id="2841olOFZ7QWBVNqE34i-943" value="Портал электронной площадки" style="text;html=1;align=center;verticalAlign=middle;whiteSpace=wrap;rounded=1;shadow=0;fontSize=23;fontStyle=1" parent="1" vertex="1">
          <mxGeometry x="-5194.5" y="-1176" width="380" height="49" as="geometry" />
        </mxCell>
        <mxCell id="2841olOFZ7QWBVNqE34i-944" value="Покупатель&lt;div&gt;&lt;br&gt;&lt;/div&gt;" style="shape=umlActor;verticalLabelPosition=bottom;verticalAlign=top;html=1;outlineConnect=0;rounded=1;" parent="1" vertex="1">
          <mxGeometry x="-5149.5" y="-1523" width="65" height="141" as="geometry" />
        </mxCell>
        <mxCell id="2841olOFZ7QWBVNqE34i-945" value="" style="endArrow=classic;html=1;rounded=1;dashed=1;fontSize=12;" parent="1" source="2841olOFZ7QWBVNqE34i-944" edge="1">
          <mxGeometry width="50" height="50" relative="1" as="geometry">
            <mxPoint x="-4560.5" y="-1440" as="sourcePoint" />
            <mxPoint x="-5116.5" y="-1185" as="targetPoint" />
            <Array as="points" />
          </mxGeometry>
        </mxCell>
        <mxCell id="2841olOFZ7QWBVNqE34i-946" value="" style="group" parent="1" vertex="1" connectable="0">
          <mxGeometry x="-5251.5" y="-1118" width="309" height="39" as="geometry" />
        </mxCell>
        <mxCell id="2841olOFZ7QWBVNqE34i-947" value="" style="group" parent="2841olOFZ7QWBVNqE34i-946" vertex="1" connectable="0">
          <mxGeometry width="309" height="39" as="geometry" />
        </mxCell>
        <mxCell id="2841olOFZ7QWBVNqE34i-948" value="" style="rounded=1;whiteSpace=wrap;html=1;fillColor=#1C57CD;strokeColor=none;" parent="2841olOFZ7QWBVNqE34i-947" vertex="1">
          <mxGeometry width="309" height="39" as="geometry" />
        </mxCell>
        <mxCell id="2841olOFZ7QWBVNqE34i-949" value="" style="sketch=0;outlineConnect=0;fontColor=#FFFFFF;gradientColor=none;fillColor=#FFFFFF;strokeColor=none;dashed=0;verticalLabelPosition=bottom;verticalAlign=top;align=center;html=1;fontSize=12;fontStyle=0;aspect=fixed;pointerEvents=1;shape=mxgraph.aws4.gear;rounded=1;" parent="2841olOFZ7QWBVNqE34i-947" vertex="1">
          <mxGeometry x="280" y="11" width="17" height="17" as="geometry" />
        </mxCell>
        <mxCell id="2841olOFZ7QWBVNqE34i-950" value="Зарегистрироваться на площадке" style="text;html=1;align=center;verticalAlign=middle;whiteSpace=wrap;rounded=1;fontSize=13;fontColor=#FFFFFF;" parent="2841olOFZ7QWBVNqE34i-947" vertex="1">
          <mxGeometry x="9" y="4.5" width="218" height="30" as="geometry" />
        </mxCell>
        <mxCell id="2841olOFZ7QWBVNqE34i-951" value="" style="group" parent="1" vertex="1" connectable="0">
          <mxGeometry x="-5251.5" y="-1068" width="309" height="39" as="geometry" />
        </mxCell>
        <mxCell id="2841olOFZ7QWBVNqE34i-952" value="" style="group" parent="2841olOFZ7QWBVNqE34i-951" vertex="1" connectable="0">
          <mxGeometry width="309" height="39" as="geometry" />
        </mxCell>
        <mxCell id="2841olOFZ7QWBVNqE34i-953" value="" style="rounded=1;whiteSpace=wrap;html=1;fillColor=#1C57CD;strokeColor=none;" parent="2841olOFZ7QWBVNqE34i-952" vertex="1">
          <mxGeometry width="309" height="39" as="geometry" />
        </mxCell>
        <mxCell id="2841olOFZ7QWBVNqE34i-954" value="" style="sketch=0;outlineConnect=0;fontColor=#FFFFFF;gradientColor=none;fillColor=#FFFFFF;strokeColor=none;dashed=0;verticalLabelPosition=bottom;verticalAlign=top;align=center;html=1;fontSize=12;fontStyle=0;aspect=fixed;pointerEvents=1;shape=mxgraph.aws4.gear;rounded=1;" parent="2841olOFZ7QWBVNqE34i-952" vertex="1">
          <mxGeometry x="280" y="11" width="17" height="17" as="geometry" />
        </mxCell>
        <mxCell id="2841olOFZ7QWBVNqE34i-955" value="Редактировать профиль" style="text;html=1;align=center;verticalAlign=middle;whiteSpace=wrap;rounded=1;fontSize=13;fontColor=#FFFFFF;" parent="2841olOFZ7QWBVNqE34i-952" vertex="1">
          <mxGeometry x="8" y="4.5" width="164" height="30" as="geometry" />
        </mxCell>
        <mxCell id="2841olOFZ7QWBVNqE34i-956" value="" style="group" parent="1" vertex="1" connectable="0">
          <mxGeometry x="-5251.5" y="-1018" width="309" height="39" as="geometry" />
        </mxCell>
        <mxCell id="2841olOFZ7QWBVNqE34i-957" value="" style="group" parent="2841olOFZ7QWBVNqE34i-956" vertex="1" connectable="0">
          <mxGeometry width="309" height="39" as="geometry" />
        </mxCell>
        <mxCell id="2841olOFZ7QWBVNqE34i-958" value="" style="rounded=1;whiteSpace=wrap;html=1;fillColor=#1C57CD;strokeColor=none;" parent="2841olOFZ7QWBVNqE34i-957" vertex="1">
          <mxGeometry width="309" height="39" as="geometry" />
        </mxCell>
        <mxCell id="2841olOFZ7QWBVNqE34i-959" value="" style="sketch=0;outlineConnect=0;fontColor=#FFFFFF;gradientColor=none;fillColor=#FFFFFF;strokeColor=none;dashed=0;verticalLabelPosition=bottom;verticalAlign=top;align=center;html=1;fontSize=12;fontStyle=0;aspect=fixed;pointerEvents=1;shape=mxgraph.aws4.gear;rounded=1;" parent="2841olOFZ7QWBVNqE34i-957" vertex="1">
          <mxGeometry x="280" y="11" width="17" height="17" as="geometry" />
        </mxCell>
        <mxCell id="2841olOFZ7QWBVNqE34i-960" value="Разместить заказ" style="text;html=1;align=center;verticalAlign=middle;whiteSpace=wrap;rounded=1;fontSize=13;fontColor=#FFFFFF;" parent="2841olOFZ7QWBVNqE34i-957" vertex="1">
          <mxGeometry x="14" y="3" width="117" height="30" as="geometry" />
        </mxCell>
        <mxCell id="2841olOFZ7QWBVNqE34i-961" value="" style="group" parent="1" vertex="1" connectable="0">
          <mxGeometry x="-4931.5" y="-1118" width="309" height="39" as="geometry" />
        </mxCell>
        <mxCell id="2841olOFZ7QWBVNqE34i-962" value="" style="group" parent="2841olOFZ7QWBVNqE34i-961" vertex="1" connectable="0">
          <mxGeometry width="309" height="39" as="geometry" />
        </mxCell>
        <mxCell id="2841olOFZ7QWBVNqE34i-963" value="" style="rounded=1;whiteSpace=wrap;html=1;fillColor=#1C57CD;strokeColor=none;" parent="2841olOFZ7QWBVNqE34i-962" vertex="1">
          <mxGeometry width="309" height="39" as="geometry" />
        </mxCell>
        <mxCell id="2841olOFZ7QWBVNqE34i-964" value="" style="sketch=0;outlineConnect=0;fontColor=#FFFFFF;gradientColor=none;fillColor=#FFFFFF;strokeColor=none;dashed=0;verticalLabelPosition=bottom;verticalAlign=top;align=center;html=1;fontSize=12;fontStyle=0;aspect=fixed;pointerEvents=1;shape=mxgraph.aws4.gear;rounded=1;" parent="2841olOFZ7QWBVNqE34i-962" vertex="1">
          <mxGeometry x="280" y="11" width="17" height="17" as="geometry" />
        </mxCell>
        <mxCell id="2841olOFZ7QWBVNqE34i-965" value="Разместить услугу" style="text;html=1;align=center;verticalAlign=middle;whiteSpace=wrap;rounded=1;fontSize=13;fontColor=#FFFFFF;" parent="2841olOFZ7QWBVNqE34i-962" vertex="1">
          <mxGeometry x="6" y="4.5" width="132" height="30" as="geometry" />
        </mxCell>
        <mxCell id="2841olOFZ7QWBVNqE34i-966" value="" style="group" parent="1" vertex="1" connectable="0">
          <mxGeometry x="-4931.5" y="-1068" width="309" height="39" as="geometry" />
        </mxCell>
        <mxCell id="2841olOFZ7QWBVNqE34i-967" value="" style="group" parent="2841olOFZ7QWBVNqE34i-966" vertex="1" connectable="0">
          <mxGeometry width="309" height="39" as="geometry" />
        </mxCell>
        <mxCell id="2841olOFZ7QWBVNqE34i-968" value="" style="rounded=1;whiteSpace=wrap;html=1;fillColor=#1C57CD;strokeColor=none;" parent="2841olOFZ7QWBVNqE34i-967" vertex="1">
          <mxGeometry width="309" height="39" as="geometry" />
        </mxCell>
        <mxCell id="2841olOFZ7QWBVNqE34i-969" value="" style="sketch=0;outlineConnect=0;fontColor=#FFFFFF;gradientColor=none;fillColor=#FFFFFF;strokeColor=none;dashed=0;verticalLabelPosition=bottom;verticalAlign=top;align=center;html=1;fontSize=12;fontStyle=0;aspect=fixed;pointerEvents=1;shape=mxgraph.aws4.gear;rounded=1;" parent="2841olOFZ7QWBVNqE34i-967" vertex="1">
          <mxGeometry x="280" y="11" width="17" height="17" as="geometry" />
        </mxCell>
        <mxCell id="2841olOFZ7QWBVNqE34i-970" value="Создать аукцион" style="text;html=1;align=center;verticalAlign=middle;whiteSpace=wrap;rounded=1;fontSize=13;fontColor=#FFFFFF;" parent="2841olOFZ7QWBVNqE34i-967" vertex="1">
          <mxGeometry x="10" y="4.5" width="110" height="30" as="geometry" />
        </mxCell>
        <mxCell id="2841olOFZ7QWBVNqE34i-971" value="" style="group" parent="1" vertex="1" connectable="0">
          <mxGeometry x="-4931.5" y="-1018" width="309" height="39" as="geometry" />
        </mxCell>
        <mxCell id="2841olOFZ7QWBVNqE34i-972" value="" style="group" parent="2841olOFZ7QWBVNqE34i-971" vertex="1" connectable="0">
          <mxGeometry width="309" height="39" as="geometry" />
        </mxCell>
        <mxCell id="2841olOFZ7QWBVNqE34i-973" value="" style="rounded=1;whiteSpace=wrap;html=1;fillColor=#1C57CD;strokeColor=none;" parent="2841olOFZ7QWBVNqE34i-972" vertex="1">
          <mxGeometry width="309" height="39" as="geometry" />
        </mxCell>
        <mxCell id="2841olOFZ7QWBVNqE34i-974" value="" style="sketch=0;outlineConnect=0;fontColor=#FFFFFF;gradientColor=none;fillColor=#FFFFFF;strokeColor=none;dashed=0;verticalLabelPosition=bottom;verticalAlign=top;align=center;html=1;fontSize=12;fontStyle=0;aspect=fixed;pointerEvents=1;shape=mxgraph.aws4.gear;rounded=1;" parent="2841olOFZ7QWBVNqE34i-972" vertex="1">
          <mxGeometry x="280" y="11" width="17" height="17" as="geometry" />
        </mxCell>
        <mxCell id="2841olOFZ7QWBVNqE34i-975" value="Подать заявку на аукцион" style="text;html=1;align=center;verticalAlign=middle;whiteSpace=wrap;rounded=1;fontSize=13;fontColor=#FFFFFF;" parent="2841olOFZ7QWBVNqE34i-972" vertex="1">
          <mxGeometry x="10" y="4.5" width="167" height="30" as="geometry" />
        </mxCell>
        <mxCell id="2841olOFZ7QWBVNqE34i-976" value="Продавец&lt;div&gt;&lt;br&gt;&lt;/div&gt;" style="shape=umlActor;verticalLabelPosition=bottom;verticalAlign=top;html=1;outlineConnect=0;rounded=1;" parent="1" vertex="1">
          <mxGeometry x="-5262.5" y="-1525" width="65" height="141" as="geometry" />
        </mxCell>
        <mxCell id="2841olOFZ7QWBVNqE34i-977" value="" style="endArrow=classic;html=1;rounded=1;dashed=1;entryX=0.5;entryY=0;entryDx=0;entryDy=0;fontSize=12;" parent="1" source="2841olOFZ7QWBVNqE34i-976" edge="1">
          <mxGeometry width="50" height="50" relative="1" as="geometry">
            <mxPoint x="-4772.5" y="-1338" as="sourcePoint" />
            <mxPoint x="-5227.5" y="-1179" as="targetPoint" />
            <Array as="points" />
          </mxGeometry>
        </mxCell>
        <mxCell id="2841olOFZ7QWBVNqE34i-978" value="Администратор" style="shape=umlActor;verticalLabelPosition=bottom;verticalAlign=top;html=1;outlineConnect=0;rounded=1;" parent="1" vertex="1">
          <mxGeometry x="-5027.5" y="-1521" width="65" height="141" as="geometry" />
        </mxCell>
        <mxCell id="2841olOFZ7QWBVNqE34i-979" value="" style="endArrow=classic;html=1;rounded=1;dashed=1;fontSize=12;" parent="1" source="2841olOFZ7QWBVNqE34i-978" edge="1">
          <mxGeometry width="50" height="50" relative="1" as="geometry">
            <mxPoint x="-4539.5" y="-1325" as="sourcePoint" />
            <mxPoint x="-4994.5" y="-1182" as="targetPoint" />
            <Array as="points" />
          </mxGeometry>
        </mxCell>
        <mxCell id="2841olOFZ7QWBVNqE34i-980" value="Техподдержка" style="shape=umlActor;verticalLabelPosition=bottom;verticalAlign=top;html=1;outlineConnect=0;rounded=1;" parent="1" vertex="1">
          <mxGeometry x="-4913.5" y="-1525" width="65" height="141" as="geometry" />
        </mxCell>
        <mxCell id="2841olOFZ7QWBVNqE34i-981" value="" style="endArrow=classic;html=1;rounded=1;dashed=1;entryX=0.5;entryY=0;entryDx=0;entryDy=0;fontSize=12;" parent="1" edge="1">
          <mxGeometry width="50" height="50" relative="1" as="geometry">
            <mxPoint x="-4878.5" y="-1379" as="sourcePoint" />
            <mxPoint x="-4878.5" y="-1179" as="targetPoint" />
            <Array as="points" />
          </mxGeometry>
        </mxCell>
        <mxCell id="2841olOFZ7QWBVNqE34i-982" value="" style="endArrow=classic;startArrow=classic;html=1;rounded=0;" parent="1" edge="1">
          <mxGeometry width="50" height="50" relative="1" as="geometry">
            <mxPoint x="-4959" y="-760" as="sourcePoint" />
            <mxPoint x="-4959" y="-950" as="targetPoint" />
          </mxGeometry>
        </mxCell>
        <mxCell id="Qh5JxXp58yzxft7WDl4Y-1" value="" style="group" parent="1" vertex="1" connectable="0">
          <mxGeometry x="-2759" y="1080" width="535" height="220" as="geometry" />
        </mxCell>
        <mxCell id="Qh5JxXp58yzxft7WDl4Y-2" value="" style="rounded=1;whiteSpace=wrap;html=1;arcSize=5;fillColor=#fff2cc;strokeColor=#d6b656;" parent="Qh5JxXp58yzxft7WDl4Y-1" vertex="1">
          <mxGeometry x="17" width="518" height="220" as="geometry" />
        </mxCell>
        <mxCell id="Qh5JxXp58yzxft7WDl4Y-3" value="TurboPay" style="text;html=1;align=center;verticalAlign=middle;whiteSpace=wrap;rounded=1;shadow=0;fontSize=23;fontStyle=1" parent="Qh5JxXp58yzxft7WDl4Y-1" vertex="1">
          <mxGeometry width="177" height="49" as="geometry" />
        </mxCell>
        <mxCell id="Qh5JxXp58yzxft7WDl4Y-4" value="" style="group" parent="1" vertex="1" connectable="0">
          <mxGeometry x="-2709" y="1140" width="518" height="224" as="geometry" />
        </mxCell>
        <mxCell id="Qh5JxXp58yzxft7WDl4Y-5" value="" style="rounded=1;whiteSpace=wrap;html=1;arcSize=5;fillColor=#fff2cc;strokeColor=#d6b656;" parent="Qh5JxXp58yzxft7WDl4Y-4" vertex="1">
          <mxGeometry width="518" height="224" as="geometry" />
        </mxCell>
        <mxCell id="Qh5JxXp58yzxft7WDl4Y-6" value="FastMoney" style="text;html=1;align=center;verticalAlign=middle;whiteSpace=wrap;rounded=1;shadow=0;fontSize=23;fontStyle=1" parent="Qh5JxXp58yzxft7WDl4Y-4" vertex="1">
          <mxGeometry x="2" width="141" height="49" as="geometry" />
        </mxCell>
        <mxCell id="Qh5JxXp58yzxft7WDl4Y-7" value="" style="group" parent="1" vertex="1" connectable="0">
          <mxGeometry x="-2679" y="1200" width="514" height="244" as="geometry" />
        </mxCell>
        <mxCell id="Qh5JxXp58yzxft7WDl4Y-8" value="" style="rounded=1;whiteSpace=wrap;html=1;arcSize=5;fillColor=#fff2cc;strokeColor=#d6b656;" parent="Qh5JxXp58yzxft7WDl4Y-7" vertex="1">
          <mxGeometry width="514" height="244" as="geometry" />
        </mxCell>
        <mxCell id="Qh5JxXp58yzxft7WDl4Y-9" value="Яндекс.Pay" style="text;html=1;align=center;verticalAlign=middle;whiteSpace=wrap;rounded=1;shadow=0;fontSize=23;fontStyle=1" parent="Qh5JxXp58yzxft7WDl4Y-7" vertex="1">
          <mxGeometry width="150" height="49" as="geometry" />
        </mxCell>
        <mxCell id="Qh5JxXp58yzxft7WDl4Y-10" value="" style="endArrow=classic;html=1;rounded=1;curved=0;entryX=0.997;entryY=0.279;entryDx=0;entryDy=0;entryPerimeter=0;" parent="1" target="Qh5JxXp58yzxft7WDl4Y-56" edge="1">
          <mxGeometry width="50" height="50" relative="1" as="geometry">
            <mxPoint x="-2409" y="1450" as="sourcePoint" />
            <mxPoint x="-2439" y="1645" as="targetPoint" />
            <Array as="points">
              <mxPoint x="-2409" y="1940" />
            </Array>
          </mxGeometry>
        </mxCell>
        <mxCell id="Qh5JxXp58yzxft7WDl4Y-11" value="&lt;p style=&quot;margin: 0px 0px 0px 21px; text-indent: -21px; font-variant-numeric: normal; font-variant-east-asian: normal; font-variant-alternates: normal; font-kerning: auto; font-optical-sizing: auto; font-feature-settings: normal; font-variation-settings: normal; font-variant-position: normal; font-stretch: normal; line-height: normal; color: rgb(14, 14, 14); text-align: start; text-wrap: wrap;&quot; class=&quot;p1&quot;&gt;&lt;font style=&quot;font-size: 12px;&quot; face=&quot;Helvetica&quot;&gt;Подтверждение платежа&lt;/font&gt;&lt;/p&gt;" style="edgeLabel;html=1;align=center;verticalAlign=middle;resizable=0;points=[];rounded=1;" parent="Qh5JxXp58yzxft7WDl4Y-10" vertex="1" connectable="0">
          <mxGeometry x="0.1936" y="1" relative="1" as="geometry">
            <mxPoint x="-79" y="55" as="offset" />
          </mxGeometry>
        </mxCell>
        <mxCell id="Qh5JxXp58yzxft7WDl4Y-12" value="" style="endArrow=classic;html=1;rounded=1;exitX=0.999;exitY=0.403;exitDx=0;exitDy=0;exitPerimeter=0;curved=0;entryX=0.68;entryY=1.001;entryDx=0;entryDy=0;entryPerimeter=0;" parent="1" source="Qh5JxXp58yzxft7WDl4Y-56" target="Qh5JxXp58yzxft7WDl4Y-8" edge="1">
          <mxGeometry width="50" height="50" relative="1" as="geometry">
            <mxPoint x="-2629" y="2146" as="sourcePoint" />
            <mxPoint x="-2329" y="1640" as="targetPoint" />
            <Array as="points">
              <mxPoint x="-2329" y="2020" />
            </Array>
          </mxGeometry>
        </mxCell>
        <mxCell id="Qh5JxXp58yzxft7WDl4Y-13" value="&lt;font style=&quot;font-size: 12px;&quot;&gt;Предоставить статус платежа&lt;/font&gt;" style="edgeLabel;html=1;align=center;verticalAlign=middle;resizable=0;points=[];rounded=1;" parent="Qh5JxXp58yzxft7WDl4Y-12" vertex="1" connectable="0">
          <mxGeometry x="0.1936" y="1" relative="1" as="geometry">
            <mxPoint x="-209" y="46" as="offset" />
          </mxGeometry>
        </mxCell>
        <mxCell id="Qh5JxXp58yzxft7WDl4Y-14" value="" style="endArrow=classic;html=1;rounded=1;curved=0;entryX=0.999;entryY=0.645;entryDx=0;entryDy=0;entryPerimeter=0;" parent="1" target="Qh5JxXp58yzxft7WDl4Y-56" edge="1">
          <mxGeometry width="50" height="50" relative="1" as="geometry">
            <mxPoint x="-2169" y="1450" as="sourcePoint" />
            <mxPoint x="-2789" y="2180" as="targetPoint" />
            <Array as="points">
              <mxPoint x="-2169" y="2180" />
            </Array>
          </mxGeometry>
        </mxCell>
        <mxCell id="Qh5JxXp58yzxft7WDl4Y-15" value="&lt;font style=&quot;font-size: 12px;&quot;&gt;Подтверждение отмены&amp;nbsp;&lt;/font&gt;&lt;div&gt;&lt;font style=&quot;font-size: 12px;&quot;&gt;платежа&lt;/font&gt;&lt;/div&gt;" style="edgeLabel;html=1;align=center;verticalAlign=middle;resizable=0;points=[];rounded=1;" parent="Qh5JxXp58yzxft7WDl4Y-14" vertex="1" connectable="0">
          <mxGeometry x="0.1936" y="1" relative="1" as="geometry">
            <mxPoint x="-262" y="-41" as="offset" />
          </mxGeometry>
        </mxCell>
        <mxCell id="Qh5JxXp58yzxft7WDl4Y-16" value="" style="endArrow=classic;html=1;rounded=1;exitX=0.995;exitY=0.156;exitDx=0;exitDy=0;exitPerimeter=0;curved=0;entryX=0.214;entryY=1.007;entryDx=0;entryDy=0;entryPerimeter=0;" parent="1" source="Qh5JxXp58yzxft7WDl4Y-56" target="Qh5JxXp58yzxft7WDl4Y-8" edge="1">
          <mxGeometry width="50" height="50" relative="1" as="geometry">
            <mxPoint x="-2919" y="1866" as="sourcePoint" />
            <mxPoint x="-2574" y="1481" as="targetPoint" />
            <Array as="points">
              <mxPoint x="-2569" y="1860" />
            </Array>
          </mxGeometry>
        </mxCell>
        <mxCell id="Qh5JxXp58yzxft7WDl4Y-17" value="&lt;span style=&quot;text-wrap: wrap;&quot;&gt;&lt;font style=&quot;font-size: 12px;&quot;&gt;Инициировать платёж&lt;/font&gt;&lt;/span&gt;" style="edgeLabel;html=1;align=center;verticalAlign=middle;resizable=0;points=[];rounded=1;" parent="Qh5JxXp58yzxft7WDl4Y-16" vertex="1" connectable="0">
          <mxGeometry x="0.1936" y="1" relative="1" as="geometry">
            <mxPoint x="-119" y="51" as="offset" />
          </mxGeometry>
        </mxCell>
        <mxCell id="Qh5JxXp58yzxft7WDl4Y-18" value="&lt;font style=&quot;font-size: 12px;&quot;&gt;[Транзакция.ID]&lt;/font&gt;" style="text;html=1;align=center;verticalAlign=middle;whiteSpace=wrap;rounded=1;fontSize=13;labelBackgroundColor=none;fontColor=#B8B8B8;" parent="1" vertex="1">
          <mxGeometry x="-2639" y="1938" width="100" height="30" as="geometry" />
        </mxCell>
        <mxCell id="Qh5JxXp58yzxft7WDl4Y-19" value="&lt;font style=&quot;font-size: 12px;&quot;&gt;[Транзакция.Статус]&lt;/font&gt;" style="text;html=1;align=center;verticalAlign=middle;whiteSpace=wrap;rounded=1;fontSize=13;labelBackgroundColor=none;fontColor=#B8B8B8;" parent="1" vertex="1">
          <mxGeometry x="-2559" y="1938" width="160" height="30" as="geometry" />
        </mxCell>
        <mxCell id="Qh5JxXp58yzxft7WDl4Y-20" value="&lt;font style=&quot;font-size: 12px;&quot;&gt;[Пользователь.ID]&lt;/font&gt;" style="text;html=1;align=center;verticalAlign=middle;whiteSpace=wrap;rounded=1;fontSize=13;labelBackgroundColor=none;fontColor=#007575;" parent="1" vertex="1">
          <mxGeometry x="-2771" y="1804" width="160" height="30" as="geometry" />
        </mxCell>
        <mxCell id="Qh5JxXp58yzxft7WDl4Y-21" value="&lt;font style=&quot;font-size: 12px;&quot;&gt;[Заказ.ID]&lt;/font&gt;" style="text;html=1;align=center;verticalAlign=middle;whiteSpace=wrap;rounded=1;fontSize=13;labelBackgroundColor=none;fontColor=#007575;" parent="1" vertex="1">
          <mxGeometry x="-2809" y="1830" width="160" height="30" as="geometry" />
        </mxCell>
        <mxCell id="Qh5JxXp58yzxft7WDl4Y-22" style="edgeStyle=orthogonalEdgeStyle;rounded=0;orthogonalLoop=1;jettySize=auto;html=1;" parent="1" source="Qh5JxXp58yzxft7WDl4Y-23" edge="1">
          <mxGeometry relative="1" as="geometry">
            <mxPoint x="-2666.333333333333" y="1810.5555555555557" as="targetPoint" />
          </mxGeometry>
        </mxCell>
        <mxCell id="Qh5JxXp58yzxft7WDl4Y-23" value="&lt;font style=&quot;font-size: 12px;&quot;&gt;[Заказ.Сумма]&lt;/font&gt;" style="text;html=1;align=center;verticalAlign=middle;whiteSpace=wrap;rounded=1;fontSize=13;labelBackgroundColor=none;fontColor=#007575;" parent="1" vertex="1">
          <mxGeometry x="-2739" y="1830" width="160" height="30" as="geometry" />
        </mxCell>
        <mxCell id="Qh5JxXp58yzxft7WDl4Y-24" value="&lt;font style=&quot;font-size: 12px;&quot;&gt;[Транзакция.ID]&lt;/font&gt;" style="text;html=1;align=center;verticalAlign=middle;whiteSpace=wrap;rounded=1;fontSize=13;labelBackgroundColor=none;fontColor=#B8B8B8;" parent="1" vertex="1">
          <mxGeometry x="-2610" y="2001" width="100" height="30" as="geometry" />
        </mxCell>
        <mxCell id="Qh5JxXp58yzxft7WDl4Y-25" value="" style="endArrow=classic;html=1;rounded=1;exitX=0.999;exitY=0.547;exitDx=0;exitDy=0;curved=0;entryX=0.837;entryY=1.005;entryDx=0;entryDy=0;entryPerimeter=0;exitPerimeter=0;" parent="1" source="Qh5JxXp58yzxft7WDl4Y-56" target="Qh5JxXp58yzxft7WDl4Y-8" edge="1">
          <mxGeometry width="50" height="50" relative="1" as="geometry">
            <mxPoint x="-2789" y="2104" as="sourcePoint" />
            <mxPoint x="-2325" y="1720" as="targetPoint" />
            <Array as="points">
              <mxPoint x="-2249" y="2100" />
            </Array>
          </mxGeometry>
        </mxCell>
        <mxCell id="Qh5JxXp58yzxft7WDl4Y-26" value="&lt;font style=&quot;font-size: 12px;&quot;&gt;Запросить статус платежа&lt;/font&gt;" style="edgeLabel;html=1;align=center;verticalAlign=middle;resizable=0;points=[];rounded=1;" parent="Qh5JxXp58yzxft7WDl4Y-25" vertex="1" connectable="0">
          <mxGeometry x="-0.4407" y="-1" relative="1" as="geometry">
            <mxPoint x="-246" y="-31" as="offset" />
          </mxGeometry>
        </mxCell>
        <mxCell id="Qh5JxXp58yzxft7WDl4Y-27" value="&lt;font style=&quot;font-size: 12px;&quot;&gt;[Транзакция.ID]&lt;/font&gt;" style="text;html=1;align=center;verticalAlign=middle;whiteSpace=wrap;rounded=1;fontSize=13;labelBackgroundColor=none;fontColor=#B8B8B8;" parent="1" vertex="1">
          <mxGeometry x="-2805" y="2060" width="100" height="30" as="geometry" />
        </mxCell>
        <mxCell id="Qh5JxXp58yzxft7WDl4Y-28" value="&lt;font style=&quot;font-size: 12px;&quot;&gt;[Транзакция.Статус]&lt;/font&gt;" style="text;html=1;align=center;verticalAlign=middle;whiteSpace=wrap;rounded=1;fontSize=13;labelBackgroundColor=none;fontColor=#B8B8B8;" parent="1" vertex="1">
          <mxGeometry x="-2550" y="2127" width="160" height="30" as="geometry" />
        </mxCell>
        <mxCell id="Qh5JxXp58yzxft7WDl4Y-29" value="1" style="ellipse;whiteSpace=wrap;html=1;aspect=fixed;rounded=1;fillColor=#FF77BF;" parent="1" vertex="1">
          <mxGeometry x="-2800" y="1797" width="23" height="23" as="geometry" />
        </mxCell>
        <mxCell id="Qh5JxXp58yzxft7WDl4Y-30" value="2" style="ellipse;whiteSpace=wrap;html=1;aspect=fixed;rounded=1;fillColor=#FF77BF;" parent="1" vertex="1">
          <mxGeometry x="-2419" y="1430" width="23" height="23" as="geometry" />
        </mxCell>
        <mxCell id="Qh5JxXp58yzxft7WDl4Y-31" value="3" style="ellipse;whiteSpace=wrap;html=1;aspect=fixed;rounded=1;fillColor=#ff77bf;" parent="1" vertex="1">
          <mxGeometry x="-2687" y="1972" width="23" height="23" as="geometry" />
        </mxCell>
        <mxCell id="Qh5JxXp58yzxft7WDl4Y-32" value="4" style="ellipse;whiteSpace=wrap;html=1;aspect=fixed;rounded=1;fillColor=#FF77BF;" parent="1" vertex="1">
          <mxGeometry x="-2616" y="2061" width="23" height="23" as="geometry" />
        </mxCell>
        <mxCell id="Qh5JxXp58yzxft7WDl4Y-33" value="5" style="ellipse;whiteSpace=wrap;html=1;aspect=fixed;rounded=1;fillColor=#FF77BF;" parent="1" vertex="1">
          <mxGeometry x="-2179" y="1430" width="23" height="23" as="geometry" />
        </mxCell>
        <mxCell id="Qh5JxXp58yzxft7WDl4Y-34" value="" style="strokeWidth=2;html=1;shape=mxgraph.flowchart.database;whiteSpace=wrap;rounded=1;movable=1;resizable=1;rotatable=1;deletable=1;editable=1;locked=0;connectable=1;" parent="1" vertex="1">
          <mxGeometry x="-2399" y="1260" width="220" height="171" as="geometry" />
        </mxCell>
        <mxCell id="Qh5JxXp58yzxft7WDl4Y-35" value="&lt;p style=&quot;margin: 0px 0px 0px 13px; text-indent: -13px; font-variant-numeric: normal; font-variant-east-asian: normal; font-variant-alternates: normal; font-kerning: auto; font-optical-sizing: auto; font-feature-settings: normal; font-variation-settings: normal; font-variant-position: normal; font-stretch: normal; font-size: 14px; line-height: normal; text-align: start;&quot; class=&quot;p1&quot;&gt;&lt;span style=&quot;font-size: 12px; text-align: center; text-indent: 0px;&quot;&gt;[Транзакция.Статус]&lt;/span&gt;&lt;br&gt;&lt;/p&gt;" style="rounded=1;whiteSpace=wrap;html=1;fillColor=#B8B8B8;strokeColor=#FFD966;" parent="1" vertex="1">
          <mxGeometry x="-2349" y="1350" width="119" height="21" as="geometry" />
        </mxCell>
        <mxCell id="Qh5JxXp58yzxft7WDl4Y-36" value="&lt;p style=&quot;margin: 0px 0px 0px 13px; text-indent: -13px; font-variant-numeric: normal; font-variant-east-asian: normal; font-variant-alternates: normal; font-kerning: auto; font-optical-sizing: auto; font-feature-settings: normal; font-variation-settings: normal; font-variant-position: normal; font-stretch: normal; font-size: 14px; line-height: normal; text-align: start;&quot; class=&quot;p1&quot;&gt;&lt;span style=&quot;font-size: 12px; text-align: center; text-indent: 0px;&quot;&gt;[Транзакция.ID]&lt;/span&gt;&lt;br&gt;&lt;/p&gt;" style="rounded=1;whiteSpace=wrap;html=1;fillColor=#B8B8B8;strokeColor=#FFD966;" parent="1" vertex="1">
          <mxGeometry x="-2349" y="1380" width="119" height="21" as="geometry" />
        </mxCell>
        <mxCell id="Qh5JxXp58yzxft7WDl4Y-37" value="" style="sketch=0;outlineConnect=0;fontColor=#FFFFFF;gradientColor=none;fillColor=#FFFFFF;strokeColor=none;dashed=0;verticalLabelPosition=bottom;verticalAlign=top;align=center;html=1;fontSize=12;fontStyle=0;aspect=fixed;pointerEvents=1;shape=mxgraph.aws4.gear;rounded=1;" parent="1" vertex="1">
          <mxGeometry x="-3635" y="1573" width="17" height="17" as="geometry" />
        </mxCell>
        <mxCell id="Qh5JxXp58yzxft7WDl4Y-38" value="" style="sketch=0;outlineConnect=0;fontColor=#FFFFFF;gradientColor=none;fillColor=#FFFFFF;strokeColor=none;dashed=0;verticalLabelPosition=bottom;verticalAlign=top;align=center;html=1;fontSize=12;fontStyle=0;aspect=fixed;pointerEvents=1;shape=mxgraph.aws4.gear;rounded=1;" parent="1" vertex="1">
          <mxGeometry x="-3635" y="1623" width="17" height="17" as="geometry" />
        </mxCell>
        <mxCell id="Qh5JxXp58yzxft7WDl4Y-39" value="" style="sketch=0;outlineConnect=0;fontColor=#FFFFFF;gradientColor=none;fillColor=#FFFFFF;strokeColor=none;dashed=0;verticalLabelPosition=bottom;verticalAlign=top;align=center;html=1;fontSize=12;fontStyle=0;aspect=fixed;pointerEvents=1;shape=mxgraph.aws4.gear;rounded=1;" parent="1" vertex="1">
          <mxGeometry x="-3635" y="1673" width="17" height="17" as="geometry" />
        </mxCell>
        <mxCell id="Qh5JxXp58yzxft7WDl4Y-40" value="" style="group" parent="1" vertex="1" connectable="0">
          <mxGeometry x="-2689" y="1250" width="260" height="39" as="geometry" />
        </mxCell>
        <mxCell id="Qh5JxXp58yzxft7WDl4Y-41" value="" style="rounded=1;whiteSpace=wrap;html=1;fillColor=#ffe6cc;strokeColor=#d79b00;" parent="Qh5JxXp58yzxft7WDl4Y-40" vertex="1">
          <mxGeometry x="10" width="250" height="39" as="geometry" />
        </mxCell>
        <mxCell id="Qh5JxXp58yzxft7WDl4Y-42" value="" style="sketch=0;outlineConnect=0;fontColor=#232F3E;gradientColor=none;fillColor=#232F3D;strokeColor=none;dashed=0;verticalLabelPosition=bottom;verticalAlign=top;align=center;html=1;fontSize=12;fontStyle=0;aspect=fixed;pointerEvents=1;shape=mxgraph.aws4.gear;rounded=1;" parent="Qh5JxXp58yzxft7WDl4Y-40" vertex="1">
          <mxGeometry x="230" y="11" width="17" height="17" as="geometry" />
        </mxCell>
        <mxCell id="Qh5JxXp58yzxft7WDl4Y-43" value="Инициировать платёж" style="text;html=1;align=center;verticalAlign=middle;whiteSpace=wrap;rounded=1;fontSize=13;" parent="Qh5JxXp58yzxft7WDl4Y-40" vertex="1">
          <mxGeometry y="4.5" width="170" height="30" as="geometry" />
        </mxCell>
        <mxCell id="Qh5JxXp58yzxft7WDl4Y-44" value="" style="group" parent="1" vertex="1" connectable="0">
          <mxGeometry x="-2689" y="1300" width="260" height="39" as="geometry" />
        </mxCell>
        <mxCell id="Qh5JxXp58yzxft7WDl4Y-45" value="" style="rounded=1;whiteSpace=wrap;html=1;fillColor=#ffe6cc;strokeColor=#d79b00;" parent="Qh5JxXp58yzxft7WDl4Y-44" vertex="1">
          <mxGeometry x="10" width="250" height="39" as="geometry" />
        </mxCell>
        <mxCell id="Qh5JxXp58yzxft7WDl4Y-46" value="" style="sketch=0;outlineConnect=0;fontColor=#232F3E;gradientColor=none;fillColor=#232F3D;strokeColor=none;dashed=0;verticalLabelPosition=bottom;verticalAlign=top;align=center;html=1;fontSize=12;fontStyle=0;aspect=fixed;pointerEvents=1;shape=mxgraph.aws4.gear;rounded=1;" parent="Qh5JxXp58yzxft7WDl4Y-44" vertex="1">
          <mxGeometry x="230" y="11" width="17" height="17" as="geometry" />
        </mxCell>
        <mxCell id="Qh5JxXp58yzxft7WDl4Y-47" value="Подтвердить платёж" style="text;html=1;align=center;verticalAlign=middle;whiteSpace=wrap;rounded=1;fontSize=13;" parent="Qh5JxXp58yzxft7WDl4Y-44" vertex="1">
          <mxGeometry y="4.5" width="170" height="30" as="geometry" />
        </mxCell>
        <mxCell id="Qh5JxXp58yzxft7WDl4Y-48" value="" style="group" parent="1" vertex="1" connectable="0">
          <mxGeometry x="-2679" y="1350" width="250" height="39" as="geometry" />
        </mxCell>
        <mxCell id="Qh5JxXp58yzxft7WDl4Y-49" value="" style="rounded=1;whiteSpace=wrap;html=1;fillColor=#ffe6cc;strokeColor=#d79b00;" parent="Qh5JxXp58yzxft7WDl4Y-48" vertex="1">
          <mxGeometry width="250" height="39" as="geometry" />
        </mxCell>
        <mxCell id="Qh5JxXp58yzxft7WDl4Y-50" value="" style="sketch=0;outlineConnect=0;fontColor=#232F3E;gradientColor=none;fillColor=#232F3D;strokeColor=none;dashed=0;verticalLabelPosition=bottom;verticalAlign=top;align=center;html=1;fontSize=12;fontStyle=0;aspect=fixed;pointerEvents=1;shape=mxgraph.aws4.gear;rounded=1;" parent="Qh5JxXp58yzxft7WDl4Y-48" vertex="1">
          <mxGeometry x="220" y="11" width="17" height="17" as="geometry" />
        </mxCell>
        <mxCell id="Qh5JxXp58yzxft7WDl4Y-51" value="Предоставить статус платежа" style="text;html=1;align=center;verticalAlign=middle;whiteSpace=wrap;rounded=1;fontSize=13;" parent="Qh5JxXp58yzxft7WDl4Y-48" vertex="1">
          <mxGeometry y="4.5" width="200" height="30" as="geometry" />
        </mxCell>
        <mxCell id="Qh5JxXp58yzxft7WDl4Y-52" value="" style="group" parent="1" vertex="1" connectable="0">
          <mxGeometry x="-2689" y="1400" width="260" height="39" as="geometry" />
        </mxCell>
        <mxCell id="Qh5JxXp58yzxft7WDl4Y-53" value="" style="rounded=1;whiteSpace=wrap;html=1;fillColor=#ffe6cc;strokeColor=#d79b00;" parent="Qh5JxXp58yzxft7WDl4Y-52" vertex="1">
          <mxGeometry x="10" width="250" height="39" as="geometry" />
        </mxCell>
        <mxCell id="Qh5JxXp58yzxft7WDl4Y-54" value="" style="sketch=0;outlineConnect=0;fontColor=#232F3E;gradientColor=none;fillColor=#232F3D;strokeColor=none;dashed=0;verticalLabelPosition=bottom;verticalAlign=top;align=center;html=1;fontSize=12;fontStyle=0;aspect=fixed;pointerEvents=1;shape=mxgraph.aws4.gear;rounded=1;" parent="Qh5JxXp58yzxft7WDl4Y-52" vertex="1">
          <mxGeometry x="230" y="11" width="17" height="17" as="geometry" />
        </mxCell>
        <mxCell id="Qh5JxXp58yzxft7WDl4Y-55" value="Подтвердить отмену платежа" style="text;html=1;align=center;verticalAlign=middle;whiteSpace=wrap;rounded=1;fontSize=13;" parent="Qh5JxXp58yzxft7WDl4Y-52" vertex="1">
          <mxGeometry y="4.5" width="210" height="30" as="geometry" />
        </mxCell>
        <mxCell id="Qh5JxXp58yzxft7WDl4Y-56" value="" style="rounded=1;whiteSpace=wrap;html=1;arcSize=3;movable=1;resizable=1;rotatable=1;deletable=1;editable=1;locked=0;connectable=1;fillColor=#f5f5f5;strokeColor=#FF0000;strokeWidth=3;fontColor=#333333;" parent="1" vertex="1">
          <mxGeometry x="-3664" y="1746" width="797" height="614" as="geometry" />
        </mxCell>
        <mxCell id="Qh5JxXp58yzxft7WDl4Y-57" value="" style="strokeWidth=2;html=1;shape=mxgraph.flowchart.database;whiteSpace=wrap;rounded=1;movable=1;resizable=1;rotatable=1;deletable=1;editable=1;locked=0;connectable=1;" parent="1" vertex="1">
          <mxGeometry x="-3284" y="1779" width="396" height="551" as="geometry" />
        </mxCell>
        <mxCell id="Qh5JxXp58yzxft7WDl4Y-58" value="" style="group" parent="1" vertex="1" connectable="0">
          <mxGeometry x="-3168" y="1843" width="151" height="49" as="geometry" />
        </mxCell>
        <mxCell id="Qh5JxXp58yzxft7WDl4Y-59" value="&lt;p style=&quot;margin: 0px 0px 0px 13px; text-indent: -13px; font-variant-numeric: normal; font-variant-east-asian: normal; font-variant-alternates: normal; font-kerning: auto; font-optical-sizing: auto; font-feature-settings: normal; font-variation-settings: normal; font-variant-position: normal; font-stretch: normal; font-size: 14px; line-height: normal; color: rgb(14, 14, 14); text-align: start;&quot; class=&quot;p1&quot;&gt;&lt;br&gt;&lt;/p&gt;" style="rounded=1;whiteSpace=wrap;html=1;fillColor=#FF77BF;strokeColor=none;arcSize=50;" parent="Qh5JxXp58yzxft7WDl4Y-58" vertex="1">
          <mxGeometry y="9" width="151" height="33" as="geometry" />
        </mxCell>
        <mxCell id="Qh5JxXp58yzxft7WDl4Y-60" value="&lt;font style=&quot;font-size: 18px;&quot;&gt;&lt;i&gt;PostgreSQL&lt;/i&gt;&lt;/font&gt;" style="text;html=1;align=center;verticalAlign=middle;whiteSpace=wrap;rounded=1;shadow=0;fontSize=23;fontStyle=1" parent="Qh5JxXp58yzxft7WDl4Y-58" vertex="1">
          <mxGeometry x="31" width="89" height="49" as="geometry" />
        </mxCell>
        <mxCell id="Qh5JxXp58yzxft7WDl4Y-61" value="Платежный сервис&amp;nbsp;" style="text;html=1;align=center;verticalAlign=middle;whiteSpace=wrap;rounded=1;shadow=0;fontSize=23;fontStyle=1" parent="1" vertex="1">
          <mxGeometry x="-3662" y="1752" width="549" height="49" as="geometry" />
        </mxCell>
        <mxCell id="Qh5JxXp58yzxft7WDl4Y-62" value="" style="group" parent="1" vertex="1" connectable="0">
          <mxGeometry x="-3627" y="2120" width="309" height="39" as="geometry" />
        </mxCell>
        <mxCell id="Qh5JxXp58yzxft7WDl4Y-63" value="" style="rounded=1;whiteSpace=wrap;html=1;fillColor=#1C57CD;strokeColor=none;" parent="Qh5JxXp58yzxft7WDl4Y-62" vertex="1">
          <mxGeometry width="309" height="39" as="geometry" />
        </mxCell>
        <mxCell id="Qh5JxXp58yzxft7WDl4Y-64" value="" style="sketch=0;outlineConnect=0;fontColor=#232F3E;gradientColor=none;fillColor=#FFFFFF;strokeColor=none;dashed=0;verticalLabelPosition=bottom;verticalAlign=top;align=center;html=1;fontSize=12;fontStyle=0;aspect=fixed;pointerEvents=1;shape=mxgraph.aws4.gear;rounded=1;" parent="Qh5JxXp58yzxft7WDl4Y-62" vertex="1">
          <mxGeometry x="280" y="11" width="17" height="17" as="geometry" />
        </mxCell>
        <mxCell id="Qh5JxXp58yzxft7WDl4Y-65" value="Предоставить статус операции" style="text;html=1;align=center;verticalAlign=middle;whiteSpace=wrap;rounded=1;fontSize=13;fontColor=#FFFFFF;strokeColor=none;" parent="Qh5JxXp58yzxft7WDl4Y-62" vertex="1">
          <mxGeometry y="4.5" width="207" height="30" as="geometry" />
        </mxCell>
        <mxCell id="Qh5JxXp58yzxft7WDl4Y-66" value="" style="group" parent="1" vertex="1" connectable="0">
          <mxGeometry x="-3627" y="2070" width="309" height="39" as="geometry" />
        </mxCell>
        <mxCell id="Qh5JxXp58yzxft7WDl4Y-67" value="" style="rounded=1;whiteSpace=wrap;html=1;fillColor=#1C57CD;strokeColor=none;" parent="Qh5JxXp58yzxft7WDl4Y-66" vertex="1">
          <mxGeometry width="309" height="39" as="geometry" />
        </mxCell>
        <mxCell id="Qh5JxXp58yzxft7WDl4Y-68" value="" style="sketch=0;outlineConnect=0;fontColor=#232F3E;gradientColor=none;fillColor=#FFFFFF;strokeColor=none;dashed=0;verticalLabelPosition=bottom;verticalAlign=top;align=center;html=1;fontSize=12;fontStyle=0;aspect=fixed;pointerEvents=1;shape=mxgraph.aws4.gear;rounded=1;" parent="Qh5JxXp58yzxft7WDl4Y-66" vertex="1">
          <mxGeometry x="280" y="11" width="17" height="17" as="geometry" />
        </mxCell>
        <mxCell id="Qh5JxXp58yzxft7WDl4Y-69" value="Запросить статус операции" style="text;html=1;align=center;verticalAlign=middle;whiteSpace=wrap;rounded=1;fontSize=13;fontColor=#FFFFFF;strokeColor=none;" parent="Qh5JxXp58yzxft7WDl4Y-66" vertex="1">
          <mxGeometry x="3" y="6" width="179" height="30" as="geometry" />
        </mxCell>
        <mxCell id="Qh5JxXp58yzxft7WDl4Y-70" value="" style="group" parent="1" vertex="1" connectable="0">
          <mxGeometry x="-3627" y="2024" width="309" height="39" as="geometry" />
        </mxCell>
        <mxCell id="Qh5JxXp58yzxft7WDl4Y-71" value="" style="rounded=1;whiteSpace=wrap;html=1;fillColor=#1C57CD;strokeColor=none;" parent="Qh5JxXp58yzxft7WDl4Y-70" vertex="1">
          <mxGeometry width="309" height="39" as="geometry" />
        </mxCell>
        <mxCell id="Qh5JxXp58yzxft7WDl4Y-72" value="" style="sketch=0;outlineConnect=0;fontColor=#232F3E;gradientColor=none;fillColor=#FFFFFF;strokeColor=none;dashed=0;verticalLabelPosition=bottom;verticalAlign=top;align=center;html=1;fontSize=12;fontStyle=0;aspect=fixed;pointerEvents=1;shape=mxgraph.aws4.gear;rounded=1;" parent="Qh5JxXp58yzxft7WDl4Y-70" vertex="1">
          <mxGeometry x="280" y="11" width="17" height="17" as="geometry" />
        </mxCell>
        <mxCell id="Qh5JxXp58yzxft7WDl4Y-73" value="Инициировать отмену транзакции" style="text;html=1;align=center;verticalAlign=middle;whiteSpace=wrap;rounded=1;fontSize=13;fontColor=#FFFFFF;strokeColor=none;" parent="Qh5JxXp58yzxft7WDl4Y-70" vertex="1">
          <mxGeometry x="2" y="4" width="223" height="30" as="geometry" />
        </mxCell>
        <mxCell id="Qh5JxXp58yzxft7WDl4Y-74" value="" style="group" parent="1" vertex="1" connectable="0">
          <mxGeometry x="-3627" y="1977" width="309" height="39" as="geometry" />
        </mxCell>
        <mxCell id="Qh5JxXp58yzxft7WDl4Y-75" value="" style="rounded=1;whiteSpace=wrap;html=1;fillColor=#1C57CD;strokeColor=none;" parent="Qh5JxXp58yzxft7WDl4Y-74" vertex="1">
          <mxGeometry width="309" height="39" as="geometry" />
        </mxCell>
        <mxCell id="Qh5JxXp58yzxft7WDl4Y-76" value="" style="sketch=0;outlineConnect=0;fontColor=#232F3E;gradientColor=none;fillColor=#FFFFFF;strokeColor=none;dashed=0;verticalLabelPosition=bottom;verticalAlign=top;align=center;html=1;fontSize=12;fontStyle=0;aspect=fixed;pointerEvents=1;shape=mxgraph.aws4.gear;rounded=1;" parent="Qh5JxXp58yzxft7WDl4Y-74" vertex="1">
          <mxGeometry x="280" y="11" width="17" height="17" as="geometry" />
        </mxCell>
        <mxCell id="Qh5JxXp58yzxft7WDl4Y-77" value="Предоставить список и статус операций" style="text;html=1;align=center;verticalAlign=middle;whiteSpace=wrap;rounded=1;fontSize=13;fontColor=#FFFFFF;strokeColor=none;" parent="Qh5JxXp58yzxft7WDl4Y-74" vertex="1">
          <mxGeometry y="4.5" width="263" height="30" as="geometry" />
        </mxCell>
        <mxCell id="Qh5JxXp58yzxft7WDl4Y-78" value="" style="group" parent="1" vertex="1" connectable="0">
          <mxGeometry x="-3634" y="1931" width="316" height="39" as="geometry" />
        </mxCell>
        <mxCell id="Qh5JxXp58yzxft7WDl4Y-79" value="" style="rounded=1;whiteSpace=wrap;html=1;fillColor=#1C57CD;strokeColor=none;" parent="Qh5JxXp58yzxft7WDl4Y-78" vertex="1">
          <mxGeometry x="7" width="309" height="39" as="geometry" />
        </mxCell>
        <mxCell id="Qh5JxXp58yzxft7WDl4Y-80" value="" style="sketch=0;outlineConnect=0;fontColor=#232F3E;gradientColor=none;fillColor=#FFFFFF;strokeColor=none;dashed=0;verticalLabelPosition=bottom;verticalAlign=top;align=center;html=1;fontSize=12;fontStyle=0;aspect=fixed;pointerEvents=1;shape=mxgraph.aws4.gear;rounded=1;" parent="Qh5JxXp58yzxft7WDl4Y-78" vertex="1">
          <mxGeometry x="287" y="11" width="17" height="17" as="geometry" />
        </mxCell>
        <mxCell id="Qh5JxXp58yzxft7WDl4Y-81" value="Авторизация платёжной операции" style="text;html=1;align=center;verticalAlign=middle;whiteSpace=wrap;rounded=1;fontSize=13;fontColor=#FFFFFF;strokeColor=none;" parent="Qh5JxXp58yzxft7WDl4Y-78" vertex="1">
          <mxGeometry y="4.5" width="243" height="30" as="geometry" />
        </mxCell>
        <mxCell id="Qh5JxXp58yzxft7WDl4Y-82" value="" style="group" parent="1" vertex="1" connectable="0">
          <mxGeometry x="-3627" y="1887" width="309" height="39" as="geometry" />
        </mxCell>
        <mxCell id="Qh5JxXp58yzxft7WDl4Y-83" value="" style="rounded=1;whiteSpace=wrap;html=1;fillColor=#1C57CD;strokeColor=none;" parent="Qh5JxXp58yzxft7WDl4Y-82" vertex="1">
          <mxGeometry width="309" height="39" as="geometry" />
        </mxCell>
        <mxCell id="Qh5JxXp58yzxft7WDl4Y-84" value="" style="sketch=0;outlineConnect=0;fontColor=#232F3E;gradientColor=none;fillColor=#FFFFFF;strokeColor=none;dashed=0;verticalLabelPosition=bottom;verticalAlign=top;align=center;html=1;fontSize=12;fontStyle=0;aspect=fixed;pointerEvents=1;shape=mxgraph.aws4.gear;rounded=1;" parent="Qh5JxXp58yzxft7WDl4Y-82" vertex="1">
          <mxGeometry x="280" y="11" width="17" height="17" as="geometry" />
        </mxCell>
        <mxCell id="Qh5JxXp58yzxft7WDl4Y-85" value="Учёт платёжной операции" style="text;html=1;align=center;verticalAlign=middle;whiteSpace=wrap;rounded=1;fontSize=13;fontColor=#FFFFFF;strokeColor=none;" parent="Qh5JxXp58yzxft7WDl4Y-82" vertex="1">
          <mxGeometry x="5" y="4.5" width="173" height="30" as="geometry" />
        </mxCell>
        <mxCell id="Qh5JxXp58yzxft7WDl4Y-86" value="" style="group" parent="1" vertex="1" connectable="0">
          <mxGeometry x="-3623.5" y="1842" width="309" height="39" as="geometry" />
        </mxCell>
        <mxCell id="Qh5JxXp58yzxft7WDl4Y-87" value="" style="rounded=1;whiteSpace=wrap;html=1;fillColor=#1C57CD;strokeColor=none;" parent="Qh5JxXp58yzxft7WDl4Y-86" vertex="1">
          <mxGeometry x="-3.5" width="309" height="39" as="geometry" />
        </mxCell>
        <mxCell id="Qh5JxXp58yzxft7WDl4Y-88" value="" style="sketch=0;outlineConnect=0;fontColor=#232F3E;gradientColor=none;fillColor=#FFFFFF;strokeColor=none;dashed=0;verticalLabelPosition=bottom;verticalAlign=top;align=center;html=1;fontSize=12;fontStyle=0;aspect=fixed;pointerEvents=1;shape=mxgraph.aws4.gear;rounded=1;" parent="Qh5JxXp58yzxft7WDl4Y-86" vertex="1">
          <mxGeometry x="280" y="11" width="17" height="17" as="geometry" />
        </mxCell>
        <mxCell id="Qh5JxXp58yzxft7WDl4Y-89" value="Инициировать платёжную операцию" style="text;html=1;align=center;verticalAlign=middle;whiteSpace=wrap;rounded=1;fontSize=13;fontColor=#FFFFFF;strokeColor=none;" parent="Qh5JxXp58yzxft7WDl4Y-86" vertex="1">
          <mxGeometry y="4.5" width="243" height="30" as="geometry" />
        </mxCell>
        <mxCell id="Qh5JxXp58yzxft7WDl4Y-90" value="" style="group" parent="1" vertex="1" connectable="0">
          <mxGeometry x="-3628" y="2176" width="309" height="39" as="geometry" />
        </mxCell>
        <mxCell id="Qh5JxXp58yzxft7WDl4Y-91" value="" style="rounded=1;whiteSpace=wrap;html=1;fillColor=#1C57CD;strokeColor=none;" parent="Qh5JxXp58yzxft7WDl4Y-90" vertex="1">
          <mxGeometry width="309" height="39" as="geometry" />
        </mxCell>
        <mxCell id="Qh5JxXp58yzxft7WDl4Y-92" value="" style="sketch=0;outlineConnect=0;fontColor=#232F3E;gradientColor=none;fillColor=#FFFFFF;strokeColor=none;dashed=0;verticalLabelPosition=bottom;verticalAlign=top;align=center;html=1;fontSize=12;fontStyle=0;aspect=fixed;pointerEvents=1;shape=mxgraph.aws4.gear;rounded=1;" parent="Qh5JxXp58yzxft7WDl4Y-90" vertex="1">
          <mxGeometry x="286" y="11" width="17" height="17" as="geometry" />
        </mxCell>
        <mxCell id="Qh5JxXp58yzxft7WDl4Y-93" value="Фильтрация и сортировка результатов" style="text;html=1;align=center;verticalAlign=middle;whiteSpace=wrap;rounded=1;fontSize=13;fontColor=#FFFFFF;strokeColor=none;" parent="Qh5JxXp58yzxft7WDl4Y-90" vertex="1">
          <mxGeometry x="5" y="4.5" width="248" height="30" as="geometry" />
        </mxCell>
        <mxCell id="Qh5JxXp58yzxft7WDl4Y-94" value="" style="group;strokeWidth=7;strokeColor=none;" parent="1" vertex="1" connectable="0">
          <mxGeometry x="-3626" y="2228" width="309" height="39" as="geometry" />
        </mxCell>
        <mxCell id="Qh5JxXp58yzxft7WDl4Y-95" value="" style="rounded=1;whiteSpace=wrap;html=1;fillColor=#1C57CD;strokeColor=none;" parent="Qh5JxXp58yzxft7WDl4Y-94" vertex="1">
          <mxGeometry width="309" height="39" as="geometry" />
        </mxCell>
        <mxCell id="Qh5JxXp58yzxft7WDl4Y-96" value="" style="sketch=0;outlineConnect=0;fontColor=#232F3E;gradientColor=none;fillColor=#FFFFFF;strokeColor=none;dashed=0;verticalLabelPosition=bottom;verticalAlign=top;align=center;html=1;fontSize=12;fontStyle=0;aspect=fixed;pointerEvents=1;shape=mxgraph.aws4.gear;rounded=1;" parent="Qh5JxXp58yzxft7WDl4Y-94" vertex="1">
          <mxGeometry x="286" y="11" width="17" height="17" as="geometry" />
        </mxCell>
        <mxCell id="Qh5JxXp58yzxft7WDl4Y-97" value="Определить способ оплаты" style="text;html=1;align=center;verticalAlign=middle;whiteSpace=wrap;rounded=1;fontSize=13;fontColor=#FFFFFF;strokeColor=none;" parent="Qh5JxXp58yzxft7WDl4Y-94" vertex="1">
          <mxGeometry x="7" y="4.5" width="173" height="30" as="geometry" />
        </mxCell>
        <mxCell id="Qh5JxXp58yzxft7WDl4Y-98" value="&lt;p style=&quot;margin: 0px 0px 0px 13px; text-indent: -13px; font-variant-numeric: normal; font-variant-east-asian: normal; font-variant-alternates: normal; font-kerning: auto; font-optical-sizing: auto; font-feature-settings: normal; font-variation-settings: normal; font-variant-position: normal; font-stretch: normal; line-height: normal; text-align: start;&quot; class=&quot;p1&quot;&gt;&lt;span style=&quot;text-align: center; text-indent: 0px;&quot;&gt;&lt;font style=&quot;font-size: 14px;&quot; face=&quot;Times New Roman&quot;&gt;[Транзакция.ID]&lt;/font&gt;&lt;/span&gt;&lt;br&gt;&lt;/p&gt;" style="rounded=1;whiteSpace=wrap;html=1;fillColor=#B8B8B8;strokeColor=#FFD966;" parent="1" vertex="1">
          <mxGeometry x="-3118" y="1989" width="108.95" height="22" as="geometry" />
        </mxCell>
        <mxCell id="Qh5JxXp58yzxft7WDl4Y-99" value="&lt;p style=&quot;margin: 0px 0px 0px 13px; text-indent: -13px; font-variant-numeric: normal; font-variant-east-asian: normal; font-variant-alternates: normal; font-kerning: auto; font-optical-sizing: auto; font-feature-settings: normal; font-variation-settings: normal; font-variant-position: normal; font-stretch: normal; line-height: normal; text-align: start;&quot; class=&quot;p1&quot;&gt;&lt;span style=&quot;text-align: center; text-indent: 0px;&quot;&gt;&lt;font style=&quot;font-size: 14px;&quot; face=&quot;Times New Roman&quot;&gt;[Транзакция.Статус]&lt;/font&gt;&lt;/span&gt;&lt;br&gt;&lt;/p&gt;" style="rounded=1;whiteSpace=wrap;html=1;fillColor=#B8B8B8;strokeColor=#FFD966;" parent="1" vertex="1">
          <mxGeometry x="-3123" y="2213" width="125" height="21" as="geometry" />
        </mxCell>
        <mxCell id="xWFdV5LjRs9u2q7FjHMf-1" value="&lt;p style=&quot;margin: 0px 0px 0px 13px; text-indent: -13px; font-variant-numeric: normal; font-variant-east-asian: normal; font-variant-alternates: normal; font-kerning: auto; font-optical-sizing: auto; font-feature-settings: normal; font-variation-settings: normal; font-variant-position: normal; font-stretch: normal; font-size: 14px; line-height: normal; color: rgb(14, 14, 14); text-align: start;&quot; class=&quot;p1&quot;&gt;&lt;font face=&quot;Times New Roman&quot;&gt;rt metrics&lt;/font&gt;&lt;/p&gt;" style="rounded=1;whiteSpace=wrap;html=1;fillColor=#b1ddf0;strokeColor=#CC0000;strokeWidth=2;" vertex="1" parent="1">
          <mxGeometry x="-6483" y="565.5" width="230" height="69" as="geometry" />
        </mxCell>
        <mxCell id="xWFdV5LjRs9u2q7FjHMf-3" value="" style="endArrow=classic;html=1;rounded=0;strokeColor=#CC0000;exitX=0.044;exitY=-0.008;exitDx=0;exitDy=0;exitPerimeter=0;" edge="1" parent="1" source="2841olOFZ7QWBVNqE34i-600" target="2841olOFZ7QWBVNqE34i-741">
          <mxGeometry width="50" height="50" relative="1" as="geometry">
            <mxPoint x="-5700" y="683" as="sourcePoint" />
            <mxPoint x="-5700" y="610" as="targetPoint" />
          </mxGeometry>
        </mxCell>
        <mxCell id="xWFdV5LjRs9u2q7FjHMf-4" value="RT METRICS" style="edgeLabel;html=1;align=center;verticalAlign=middle;resizable=0;points=[];" vertex="1" connectable="0" parent="xWFdV5LjRs9u2q7FjHMf-3">
          <mxGeometry x="-0.3942" y="-2" relative="1" as="geometry">
            <mxPoint x="-51" y="-8" as="offset" />
          </mxGeometry>
        </mxCell>
        <mxCell id="xWFdV5LjRs9u2q7FjHMf-7" value="" style="endArrow=classic;html=1;rounded=0;strokeColor=#CC0000;exitX=0.632;exitY=1.001;exitDx=0;exitDy=0;exitPerimeter=0;entryX=0.105;entryY=-0.013;entryDx=0;entryDy=0;entryPerimeter=0;" edge="1" parent="1" source="2841olOFZ7QWBVNqE34i-741" target="2841olOFZ7QWBVNqE34i-600">
          <mxGeometry width="50" height="50" relative="1" as="geometry">
            <mxPoint x="-6363" y="1090" as="sourcePoint" />
            <mxPoint x="-6270" y="1030" as="targetPoint" />
          </mxGeometry>
        </mxCell>
        <mxCell id="xWFdV5LjRs9u2q7FjHMf-8" value="auc info" style="edgeLabel;html=1;align=center;verticalAlign=middle;resizable=0;points=[];" vertex="1" connectable="0" parent="1">
          <mxGeometry x="-6400.003565777435" y="940.0001899642325" as="geometry" />
        </mxCell>
        <mxCell id="xWFdV5LjRs9u2q7FjHMf-9" value="" style="endArrow=classic;html=1;rounded=0;strokeColor=#CC0000;exitX=0.832;exitY=1;exitDx=0;exitDy=0;exitPerimeter=0;" edge="1" parent="1" source="2841olOFZ7QWBVNqE34i-741">
          <mxGeometry width="50" height="50" relative="1" as="geometry">
            <mxPoint x="-6120" y="740" as="sourcePoint" />
            <mxPoint x="-6170" y="1090" as="targetPoint" />
          </mxGeometry>
        </mxCell>
        <mxCell id="xWFdV5LjRs9u2q7FjHMf-13" value="" style="endArrow=classic;html=1;rounded=0;entryX=0.75;entryY=1;entryDx=0;entryDy=0;strokeColor=#CC0000;" edge="1" parent="1" target="2841olOFZ7QWBVNqE34i-741">
          <mxGeometry width="50" height="50" relative="1" as="geometry">
            <mxPoint x="-6248" y="1090" as="sourcePoint" />
            <mxPoint x="-5982" y="995" as="targetPoint" />
          </mxGeometry>
        </mxCell>
        <mxCell id="xWFdV5LjRs9u2q7FjHMf-14" value="order info" style="edgeLabel;html=1;align=center;verticalAlign=middle;resizable=0;points=[];" vertex="1" connectable="0" parent="1">
          <mxGeometry x="-6212.003565777435" y="926.0001899642327" as="geometry" />
        </mxCell>
        <mxCell id="xWFdV5LjRs9u2q7FjHMf-15" value="" style="endArrow=classic;html=1;rounded=0;strokeColor=#CC0000;entryX=0.554;entryY=0.997;entryDx=0;entryDy=0;entryPerimeter=0;exitX=0.07;exitY=-0.009;exitDx=0;exitDy=0;exitPerimeter=0;" edge="1" parent="1" source="2841olOFZ7QWBVNqE34i-600" target="2841olOFZ7QWBVNqE34i-741">
          <mxGeometry width="50" height="50" relative="1" as="geometry">
            <mxPoint x="-6440" y="1080" as="sourcePoint" />
            <mxPoint x="-6006.8" y="640" as="targetPoint" />
          </mxGeometry>
        </mxCell>
        <mxCell id="xWFdV5LjRs9u2q7FjHMf-16" value="" style="endArrow=classic;html=1;rounded=0;strokeColor=#CC0000;entryX=0.779;entryY=-0.007;entryDx=0;entryDy=0;entryPerimeter=0;" edge="1" parent="1" target="2841olOFZ7QWBVNqE34i-600">
          <mxGeometry width="50" height="50" relative="1" as="geometry">
            <mxPoint x="-4880" y="780" as="sourcePoint" />
            <mxPoint x="-4845.5" y="850.25" as="targetPoint" />
          </mxGeometry>
        </mxCell>
        <mxCell id="xWFdV5LjRs9u2q7FjHMf-17" value="" style="endArrow=classic;html=1;rounded=0;exitX=0.241;exitY=1.005;exitDx=0;exitDy=0;exitPerimeter=0;strokeColor=#CC0000;entryX=0.741;entryY=-0.007;entryDx=0;entryDy=0;entryPerimeter=0;" edge="1" parent="1" source="2841olOFZ7QWBVNqE34i-806" target="2841olOFZ7QWBVNqE34i-600">
          <mxGeometry width="50" height="50" relative="1" as="geometry">
            <mxPoint x="-5144.5" y="904.25" as="sourcePoint" />
            <mxPoint x="-4844.5" y="904.25" as="targetPoint" />
          </mxGeometry>
        </mxCell>
        <mxCell id="xWFdV5LjRs9u2q7FjHMf-18" value="" style="endArrow=classic;html=1;rounded=0;exitX=0.158;exitY=1.01;exitDx=0;exitDy=0;exitPerimeter=0;strokeColor=#CC0000;entryX=0.707;entryY=-0.013;entryDx=0;entryDy=0;entryPerimeter=0;" edge="1" parent="1" source="2841olOFZ7QWBVNqE34i-806" target="2841olOFZ7QWBVNqE34i-600">
          <mxGeometry width="50" height="50" relative="1" as="geometry">
            <mxPoint x="-5145.5" y="962.27" as="sourcePoint" />
            <mxPoint x="-4845.5" y="962.27" as="targetPoint" />
          </mxGeometry>
        </mxCell>
        <mxCell id="xWFdV5LjRs9u2q7FjHMf-19" value="создать\редактировать auc" style="edgeLabel;html=1;align=center;verticalAlign=middle;resizable=0;points=[];" vertex="1" connectable="0" parent="1">
          <mxGeometry x="-5171.002302982089" y="869.9998804349625" as="geometry" />
        </mxCell>
        <mxCell id="xWFdV5LjRs9u2q7FjHMf-20" value="ставка в аукционе" style="edgeLabel;html=1;align=center;verticalAlign=middle;resizable=0;points=[];" vertex="1" connectable="0" parent="1">
          <mxGeometry x="-5060.002302982089" y="899.9998804349625" as="geometry" />
        </mxCell>
        <mxCell id="xWFdV5LjRs9u2q7FjHMf-21" value="создать\\&lt;div&gt;редактировать\&lt;/div&gt;&lt;div&gt;удалить товар&lt;/div&gt;" style="edgeLabel;html=1;align=center;verticalAlign=middle;resizable=0;points=[];" vertex="1" connectable="0" parent="1">
          <mxGeometry x="-4942.502302982089" y="959.9998804349625" as="geometry">
            <mxPoint x="-11" y="-6" as="offset" />
          </mxGeometry>
        </mxCell>
        <mxCell id="xWFdV5LjRs9u2q7FjHMf-22" value="" style="endArrow=classic;html=1;rounded=0;exitX=0.069;exitY=0.998;exitDx=0;exitDy=0;exitPerimeter=0;strokeColor=#CC0000;entryX=0.666;entryY=-0.018;entryDx=0;entryDy=0;entryPerimeter=0;" edge="1" parent="1" source="2841olOFZ7QWBVNqE34i-806" target="2841olOFZ7QWBVNqE34i-600">
          <mxGeometry width="50" height="50" relative="1" as="geometry">
            <mxPoint x="-5145.5" y="1016.75" as="sourcePoint" />
            <mxPoint x="-4845.5" y="1016.75" as="targetPoint" />
          </mxGeometry>
        </mxCell>
        <mxCell id="xWFdV5LjRs9u2q7FjHMf-23" value="купить товар" style="edgeLabel;html=1;align=center;verticalAlign=middle;resizable=0;points=[];" vertex="1" connectable="0" parent="1">
          <mxGeometry x="-4881.002302982089" y="1009.9998804349625" as="geometry" />
        </mxCell>
        <mxCell id="xWFdV5LjRs9u2q7FjHMf-24" value="" style="endArrow=classic;html=1;rounded=0;strokeColor=#CC0000;exitX=0.96;exitY=-0.013;exitDx=0;exitDy=0;exitPerimeter=0;" edge="1" parent="1" source="2841olOFZ7QWBVNqE34i-600">
          <mxGeometry width="50" height="50" relative="1" as="geometry">
            <mxPoint x="-4362.54" y="860.86" as="sourcePoint" />
            <mxPoint x="-4480" y="780" as="targetPoint" />
          </mxGeometry>
        </mxCell>
        <mxCell id="xWFdV5LjRs9u2q7FjHMf-25" value="получить user_info" style="edgeLabel;html=1;align=center;verticalAlign=middle;resizable=0;points=[];" vertex="1" connectable="0" parent="1">
          <mxGeometry x="-4560.002302982089" y="1009.9998804349625" as="geometry" />
        </mxCell>
        <mxCell id="xWFdV5LjRs9u2q7FjHMf-26" value="" style="endArrow=classic;html=1;rounded=0;strokeColor=#CC0000;" edge="1" parent="1">
          <mxGeometry width="50" height="50" relative="1" as="geometry">
            <mxPoint x="-4560" y="1090" as="sourcePoint" />
            <mxPoint x="-4560" y="780" as="targetPoint" />
          </mxGeometry>
        </mxCell>
        <mxCell id="xWFdV5LjRs9u2q7FjHMf-27" value="нотификация участника" style="edgeLabel;html=1;align=center;verticalAlign=middle;resizable=0;points=[];" vertex="1" connectable="0" parent="1">
          <mxGeometry x="-4468.002302982089" y="859.9998804349625" as="geometry" />
        </mxCell>
        <mxCell id="xWFdV5LjRs9u2q7FjHMf-28" value="" style="endArrow=classic;html=1;rounded=0;strokeColor=#CC0000;entryX=0.997;entryY=0.569;entryDx=0;entryDy=0;entryPerimeter=0;" edge="1" parent="1" source="2841olOFZ7QWBVNqE34i-806" target="2841olOFZ7QWBVNqE34i-741">
          <mxGeometry width="50" height="50" relative="1" as="geometry">
            <mxPoint x="-6800" y="920" as="sourcePoint" />
            <mxPoint x="-6800" y="740" as="targetPoint" />
          </mxGeometry>
        </mxCell>
        <mxCell id="xWFdV5LjRs9u2q7FjHMf-29" value="заявка" style="edgeLabel;html=1;align=center;verticalAlign=middle;resizable=0;points=[];" vertex="1" connectable="0" parent="xWFdV5LjRs9u2q7FjHMf-28">
          <mxGeometry x="-0.3942" y="-2" relative="1" as="geometry">
            <mxPoint x="-51" y="-8" as="offset" />
          </mxGeometry>
        </mxCell>
        <mxCell id="xWFdV5LjRs9u2q7FjHMf-30" value="" style="endArrow=classic;html=1;rounded=0;strokeColor=#CC0000;entryX=0.006;entryY=0.413;entryDx=0;entryDy=0;entryPerimeter=0;" edge="1" parent="1" source="2841olOFZ7QWBVNqE34i-741" target="2841olOFZ7QWBVNqE34i-806">
          <mxGeometry width="50" height="50" relative="1" as="geometry">
            <mxPoint x="-6672" y="925" as="sourcePoint" />
            <mxPoint x="-5220" y="410" as="targetPoint" />
          </mxGeometry>
        </mxCell>
        <mxCell id="xWFdV5LjRs9u2q7FjHMf-31" value="ответ по заявке" style="edgeLabel;html=1;align=center;verticalAlign=middle;resizable=0;points=[];" vertex="1" connectable="0" parent="xWFdV5LjRs9u2q7FjHMf-30">
          <mxGeometry x="-0.3942" y="-2" relative="1" as="geometry">
            <mxPoint x="-51" y="-8" as="offset" />
          </mxGeometry>
        </mxCell>
        <mxCell id="xWFdV5LjRs9u2q7FjHMf-32" value="" style="endArrow=classic;html=1;rounded=0;strokeColor=#CC0000;" edge="1" parent="1">
          <mxGeometry width="50" height="50" relative="1" as="geometry">
            <mxPoint x="-4640" y="780" as="sourcePoint" />
            <mxPoint x="-4640" y="1090" as="targetPoint" />
          </mxGeometry>
        </mxCell>
        <mxCell id="xWFdV5LjRs9u2q7FjHMf-33" value="" style="endArrow=classic;html=1;rounded=0;exitX=0.485;exitY=1.01;exitDx=0;exitDy=0;exitPerimeter=0;strokeColor=#CC0000;" edge="1" parent="1" source="2841olOFZ7QWBVNqE34i-806">
          <mxGeometry width="50" height="50" relative="1" as="geometry">
            <mxPoint x="-4662.54" y="1021.32" as="sourcePoint" />
            <mxPoint x="-4720" y="1090" as="targetPoint" />
          </mxGeometry>
        </mxCell>
        <mxCell id="xWFdV5LjRs9u2q7FjHMf-34" value="создать&lt;div&gt;\редактировать\&lt;/div&gt;&lt;div&gt;удалить услугу&lt;/div&gt;" style="edgeLabel;html=1;align=center;verticalAlign=middle;resizable=0;points=[];" vertex="1" connectable="0" parent="1">
          <mxGeometry x="-4635.502302982089" y="909.9998804349625" as="geometry" />
        </mxCell>
        <mxCell id="xWFdV5LjRs9u2q7FjHMf-35" value="купить услугу" style="edgeLabel;html=1;align=center;verticalAlign=middle;resizable=0;points=[];" vertex="1" connectable="0" parent="1">
          <mxGeometry x="-4724.002302982089" y="979.9998804349625" as="geometry" />
        </mxCell>
        <mxCell id="xWFdV5LjRs9u2q7FjHMf-36" value="" style="endArrow=classic;html=1;rounded=0;entryX=-0.004;entryY=0.44;entryDx=0;entryDy=0;exitX=0.999;exitY=0.691;exitDx=0;exitDy=0;exitPerimeter=0;strokeColor=#CC0000;entryPerimeter=0;" edge="1" parent="1" target="Qh5JxXp58yzxft7WDl4Y-56">
          <mxGeometry width="50" height="50" relative="1" as="geometry">
            <mxPoint x="-4394" y="2027.1" as="sourcePoint" />
            <mxPoint x="-4076" y="2024.1" as="targetPoint" />
          </mxGeometry>
        </mxCell>
        <mxCell id="xWFdV5LjRs9u2q7FjHMf-37" value="запрос оплаты" style="edgeLabel;html=1;align=center;verticalAlign=middle;resizable=0;points=[];" vertex="1" connectable="0" parent="1">
          <mxGeometry x="-3984.003565777435" y="2001.0001899642325" as="geometry" />
        </mxCell>
        <mxCell id="xWFdV5LjRs9u2q7FjHMf-38" value="" style="endArrow=classic;html=1;rounded=0;strokeColor=#CC0000;exitX=0;exitY=0.5;exitDx=0;exitDy=0;" edge="1" parent="1" source="Qh5JxXp58yzxft7WDl4Y-56">
          <mxGeometry width="50" height="50" relative="1" as="geometry">
            <mxPoint x="-4076" y="2055.1" as="sourcePoint" />
            <mxPoint x="-4393.8" y="2057.9" as="targetPoint" />
          </mxGeometry>
        </mxCell>
        <mxCell id="xWFdV5LjRs9u2q7FjHMf-39" value="результат операции" style="edgeLabel;html=1;align=center;verticalAlign=middle;resizable=0;points=[];" vertex="1" connectable="0" parent="1">
          <mxGeometry x="-3974.003565777435" y="2072.5001899642325" as="geometry">
            <mxPoint x="2" y="1" as="offset" />
          </mxGeometry>
        </mxCell>
        <mxCell id="xWFdV5LjRs9u2q7FjHMf-41" value="" style="endArrow=classic;html=1;rounded=0;strokeColor=#CC0000;" edge="1" parent="1">
          <mxGeometry width="50" height="50" relative="1" as="geometry">
            <mxPoint x="-5554" y="2342" as="sourcePoint" />
            <mxPoint x="-5554" y="2522" as="targetPoint" />
          </mxGeometry>
        </mxCell>
        <mxCell id="xWFdV5LjRs9u2q7FjHMf-42" value="" style="endArrow=classic;html=1;rounded=0;strokeColor=#CC0000;" edge="1" parent="1">
          <mxGeometry width="50" height="50" relative="1" as="geometry">
            <mxPoint x="-5384" y="2340" as="sourcePoint" />
            <mxPoint x="-5384" y="2520" as="targetPoint" />
          </mxGeometry>
        </mxCell>
        <mxCell id="xWFdV5LjRs9u2q7FjHMf-43" value="" style="endArrow=classic;html=1;rounded=0;strokeColor=#CC0000;" edge="1" parent="1">
          <mxGeometry width="50" height="50" relative="1" as="geometry">
            <mxPoint x="-5742" y="2349.5" as="sourcePoint" />
            <mxPoint x="-5742" y="2529.5" as="targetPoint" />
          </mxGeometry>
        </mxCell>
        <mxCell id="xWFdV5LjRs9u2q7FjHMf-44" value="создать\редактировать\удалить товар" style="edgeLabel;html=1;align=center;verticalAlign=middle;resizable=0;points=[];" vertex="1" connectable="0" parent="1">
          <mxGeometry x="-5854.002302982089" y="2445.9998804349625" as="geometry" />
        </mxCell>
        <mxCell id="xWFdV5LjRs9u2q7FjHMf-45" value="поиск товара/услуги" style="edgeLabel;html=1;align=center;verticalAlign=middle;resizable=0;points=[];" vertex="1" connectable="0" parent="1">
          <mxGeometry x="-5322.002302982089" y="2440.9998804349625" as="geometry" />
        </mxCell>
        <mxCell id="xWFdV5LjRs9u2q7FjHMf-46" value="создать\редактировать\удалить услугу" style="edgeLabel;html=1;align=center;verticalAlign=middle;resizable=0;points=[];" vertex="1" connectable="0" parent="1">
          <mxGeometry x="-5556.002302982089" y="2439.4998804349625" as="geometry" />
        </mxCell>
        <mxCell id="xWFdV5LjRs9u2q7FjHMf-47" value="" style="endArrow=classic;html=1;rounded=0;strokeColor=#CC0000;exitX=0.208;exitY=1.001;exitDx=0;exitDy=0;exitPerimeter=0;" edge="1" parent="1" source="2841olOFZ7QWBVNqE34i-703">
          <mxGeometry width="50" height="50" relative="1" as="geometry">
            <mxPoint x="-6298" as="sourcePoint" />
            <mxPoint x="-6283" y="120" as="targetPoint" />
          </mxGeometry>
        </mxCell>
        <mxCell id="xWFdV5LjRs9u2q7FjHMf-49" value="" style="endArrow=classic;html=1;rounded=0;strokeColor=#CC0000;entryX=0.185;entryY=1.002;entryDx=0;entryDy=0;entryPerimeter=0;exitX=0.638;exitY=0.003;exitDx=0;exitDy=0;exitPerimeter=0;" edge="1" parent="1" source="2841olOFZ7QWBVNqE34i-741" target="2841olOFZ7QWBVNqE34i-703">
          <mxGeometry width="50" height="50" relative="1" as="geometry">
            <mxPoint x="-5987" y="446" as="sourcePoint" />
            <mxPoint x="-5169" y="434" as="targetPoint" />
          </mxGeometry>
        </mxCell>
        <mxCell id="xWFdV5LjRs9u2q7FjHMf-51" value="" style="endArrow=classic;html=1;rounded=0;strokeColor=#CC0000;entryX=0.621;entryY=0.997;entryDx=0;entryDy=0;entryPerimeter=0;exitX=0.5;exitY=0;exitDx=0;exitDy=0;" edge="1" parent="1" source="2841olOFZ7QWBVNqE34i-811" target="2841olOFZ7QWBVNqE34i-703">
          <mxGeometry width="50" height="50" relative="1" as="geometry">
            <mxPoint x="-5728" y="82" as="sourcePoint" />
            <mxPoint x="-4910" y="70" as="targetPoint" />
          </mxGeometry>
        </mxCell>
        <mxCell id="xWFdV5LjRs9u2q7FjHMf-53" value="" style="endArrow=classic;html=1;rounded=0;strokeColor=#CC0000;exitX=0.657;exitY=0.998;exitDx=0;exitDy=0;exitPerimeter=0;entryX=0.714;entryY=-0.003;entryDx=0;entryDy=0;entryPerimeter=0;" edge="1" parent="1" source="2841olOFZ7QWBVNqE34i-703" target="2841olOFZ7QWBVNqE34i-811">
          <mxGeometry width="50" height="50" relative="1" as="geometry">
            <mxPoint x="-4783.5" y="158.75" as="sourcePoint" />
            <mxPoint x="-4640" y="80" as="targetPoint" />
          </mxGeometry>
        </mxCell>
      </root>
    </mxGraphModel>
  </diagram>
</mxfile>
